<?xml version="1.0" encoding="utf-8" standalone="no"?>
<!DOCTYPE svg PUBLIC "-//W3C//DTD SVG 1.1//EN"
  "http://www.w3.org/Graphics/SVG/1.1/DTD/svg11.dtd">
<svg xmlns:xlink="http://www.w3.org/1999/xlink" width="720pt" height="360pt" viewBox="0 0 720 360" xmlns="http://www.w3.org/2000/svg" version="1.1">
 <metadata>
  <rdf:RDF xmlns:dc="http://purl.org/dc/elements/1.1/" xmlns:cc="http://creativecommons.org/ns#" xmlns:rdf="http://www.w3.org/1999/02/22-rdf-syntax-ns#">
   <cc:Work>
    <dc:type rdf:resource="http://purl.org/dc/dcmitype/StillImage"/>
    <dc:date>2022-02-26T22:08:35.750072</dc:date>
    <dc:format>image/svg+xml</dc:format>
    <dc:creator>
     <cc:Agent>
      <dc:title>Matplotlib v3.5.1, https://matplotlib.org/</dc:title>
     </cc:Agent>
    </dc:creator>
   </cc:Work>
  </rdf:RDF>
 </metadata>
 <defs>
  <style type="text/css">*{stroke-linejoin: round; stroke-linecap: butt}</style>
 </defs>
 <g id="figure_1">
  <g id="patch_1">
   <path d="M 0 360 
L 720 360 
L 720 0 
L 0 0 
L 0 360 
z
" style="fill: none"/>
  </g>
  <g id="axes_1">
   <g id="patch_2">
    <path d="M 50.46 327.04 
L 707.04 327.04 
L 707.04 12.96 
L 50.46 12.96 
z
" style="fill: #ffffff"/>
   </g>
   <g id="matplotlib.axis_1">
    <g id="xtick_1">
     <g id="line2d_1">
      <defs>
       <path id="mf440351f92" d="M 0 0 
L 0 3.5 
" style="stroke: #000000; stroke-width: 0.8"/>
      </defs>
      <g>
       <use xlink:href="#mf440351f92" x="80.304545" y="327.04" style="stroke: #000000; stroke-width: 0.8"/>
      </g>
     </g>
     <g id="text_1">
      <!-- Dec 05 -->
      <g transform="translate(59.151733 343.158125)scale(0.12 -0.12)">
       <defs>
        <path id="DejaVuSans-44" d="M 1259 4147 
L 1259 519 
L 2022 519 
Q 2988 519 3436 956 
Q 3884 1394 3884 2338 
Q 3884 3275 3436 3711 
Q 2988 4147 2022 4147 
L 1259 4147 
z
M 628 4666 
L 1925 4666 
Q 3281 4666 3915 4102 
Q 4550 3538 4550 2338 
Q 4550 1131 3912 565 
Q 3275 0 1925 0 
L 628 0 
L 628 4666 
z
" transform="scale(0.015625)"/>
        <path id="DejaVuSans-65" d="M 3597 1894 
L 3597 1613 
L 953 1613 
Q 991 1019 1311 708 
Q 1631 397 2203 397 
Q 2534 397 2845 478 
Q 3156 559 3463 722 
L 3463 178 
Q 3153 47 2828 -22 
Q 2503 -91 2169 -91 
Q 1331 -91 842 396 
Q 353 884 353 1716 
Q 353 2575 817 3079 
Q 1281 3584 2069 3584 
Q 2775 3584 3186 3129 
Q 3597 2675 3597 1894 
z
M 3022 2063 
Q 3016 2534 2758 2815 
Q 2500 3097 2075 3097 
Q 1594 3097 1305 2825 
Q 1016 2553 972 2059 
L 3022 2063 
z
" transform="scale(0.015625)"/>
        <path id="DejaVuSans-63" d="M 3122 3366 
L 3122 2828 
Q 2878 2963 2633 3030 
Q 2388 3097 2138 3097 
Q 1578 3097 1268 2742 
Q 959 2388 959 1747 
Q 959 1106 1268 751 
Q 1578 397 2138 397 
Q 2388 397 2633 464 
Q 2878 531 3122 666 
L 3122 134 
Q 2881 22 2623 -34 
Q 2366 -91 2075 -91 
Q 1284 -91 818 406 
Q 353 903 353 1747 
Q 353 2603 823 3093 
Q 1294 3584 2113 3584 
Q 2378 3584 2631 3529 
Q 2884 3475 3122 3366 
z
" transform="scale(0.015625)"/>
        <path id="DejaVuSans-20" transform="scale(0.015625)"/>
        <path id="DejaVuSans-30" d="M 2034 4250 
Q 1547 4250 1301 3770 
Q 1056 3291 1056 2328 
Q 1056 1369 1301 889 
Q 1547 409 2034 409 
Q 2525 409 2770 889 
Q 3016 1369 3016 2328 
Q 3016 3291 2770 3770 
Q 2525 4250 2034 4250 
z
M 2034 4750 
Q 2819 4750 3233 4129 
Q 3647 3509 3647 2328 
Q 3647 1150 3233 529 
Q 2819 -91 2034 -91 
Q 1250 -91 836 529 
Q 422 1150 422 2328 
Q 422 3509 836 4129 
Q 1250 4750 2034 4750 
z
" transform="scale(0.015625)"/>
        <path id="DejaVuSans-35" d="M 691 4666 
L 3169 4666 
L 3169 4134 
L 1269 4134 
L 1269 2991 
Q 1406 3038 1543 3061 
Q 1681 3084 1819 3084 
Q 2600 3084 3056 2656 
Q 3513 2228 3513 1497 
Q 3513 744 3044 326 
Q 2575 -91 1722 -91 
Q 1428 -91 1123 -41 
Q 819 9 494 109 
L 494 744 
Q 775 591 1075 516 
Q 1375 441 1709 441 
Q 2250 441 2565 725 
Q 2881 1009 2881 1497 
Q 2881 1984 2565 2268 
Q 2250 2553 1709 2553 
Q 1456 2553 1204 2497 
Q 953 2441 691 2322 
L 691 4666 
z
" transform="scale(0.015625)"/>
       </defs>
       <use xlink:href="#DejaVuSans-44"/>
       <use xlink:href="#DejaVuSans-65" x="77.001953"/>
       <use xlink:href="#DejaVuSans-63" x="138.525391"/>
       <use xlink:href="#DejaVuSans-20" x="193.505859"/>
       <use xlink:href="#DejaVuSans-30" x="225.292969"/>
       <use xlink:href="#DejaVuSans-35" x="288.916016"/>
      </g>
     </g>
    </g>
    <g id="xtick_2">
     <g id="line2d_2">
      <g>
       <use xlink:href="#mf440351f92" x="152.219113" y="327.04" style="stroke: #000000; stroke-width: 0.8"/>
      </g>
     </g>
     <g id="text_2">
      <!-- Dec 15 -->
      <g transform="translate(131.0663 343.158125)scale(0.12 -0.12)">
       <defs>
        <path id="DejaVuSans-31" d="M 794 531 
L 1825 531 
L 1825 4091 
L 703 3866 
L 703 4441 
L 1819 4666 
L 2450 4666 
L 2450 531 
L 3481 531 
L 3481 0 
L 794 0 
L 794 531 
z
" transform="scale(0.015625)"/>
       </defs>
       <use xlink:href="#DejaVuSans-44"/>
       <use xlink:href="#DejaVuSans-65" x="77.001953"/>
       <use xlink:href="#DejaVuSans-63" x="138.525391"/>
       <use xlink:href="#DejaVuSans-20" x="193.505859"/>
       <use xlink:href="#DejaVuSans-31" x="225.292969"/>
       <use xlink:href="#DejaVuSans-35" x="288.916016"/>
      </g>
     </g>
    </g>
    <g id="xtick_3">
     <g id="line2d_3">
      <g>
       <use xlink:href="#mf440351f92" x="224.13368" y="327.04" style="stroke: #000000; stroke-width: 0.8"/>
      </g>
     </g>
     <g id="text_3">
      <!-- Dec 25 -->
      <g transform="translate(202.980868 343.158125)scale(0.12 -0.12)">
       <defs>
        <path id="DejaVuSans-32" d="M 1228 531 
L 3431 531 
L 3431 0 
L 469 0 
L 469 531 
Q 828 903 1448 1529 
Q 2069 2156 2228 2338 
Q 2531 2678 2651 2914 
Q 2772 3150 2772 3378 
Q 2772 3750 2511 3984 
Q 2250 4219 1831 4219 
Q 1534 4219 1204 4116 
Q 875 4013 500 3803 
L 500 4441 
Q 881 4594 1212 4672 
Q 1544 4750 1819 4750 
Q 2544 4750 2975 4387 
Q 3406 4025 3406 3419 
Q 3406 3131 3298 2873 
Q 3191 2616 2906 2266 
Q 2828 2175 2409 1742 
Q 1991 1309 1228 531 
z
" transform="scale(0.015625)"/>
       </defs>
       <use xlink:href="#DejaVuSans-44"/>
       <use xlink:href="#DejaVuSans-65" x="77.001953"/>
       <use xlink:href="#DejaVuSans-63" x="138.525391"/>
       <use xlink:href="#DejaVuSans-20" x="193.505859"/>
       <use xlink:href="#DejaVuSans-32" x="225.292969"/>
       <use xlink:href="#DejaVuSans-35" x="288.916016"/>
      </g>
     </g>
    </g>
    <g id="xtick_4">
     <g id="line2d_4">
      <g>
       <use xlink:href="#mf440351f92" x="296.048248" y="327.04" style="stroke: #000000; stroke-width: 0.8"/>
      </g>
     </g>
     <g id="text_4">
      <!-- Jan 04 -->
      <g transform="translate(277.256998 343.158125)scale(0.12 -0.12)">
       <defs>
        <path id="DejaVuSans-4a" d="M 628 4666 
L 1259 4666 
L 1259 325 
Q 1259 -519 939 -900 
Q 619 -1281 -91 -1281 
L -331 -1281 
L -331 -750 
L -134 -750 
Q 284 -750 456 -515 
Q 628 -281 628 325 
L 628 4666 
z
" transform="scale(0.015625)"/>
        <path id="DejaVuSans-61" d="M 2194 1759 
Q 1497 1759 1228 1600 
Q 959 1441 959 1056 
Q 959 750 1161 570 
Q 1363 391 1709 391 
Q 2188 391 2477 730 
Q 2766 1069 2766 1631 
L 2766 1759 
L 2194 1759 
z
M 3341 1997 
L 3341 0 
L 2766 0 
L 2766 531 
Q 2569 213 2275 61 
Q 1981 -91 1556 -91 
Q 1019 -91 701 211 
Q 384 513 384 1019 
Q 384 1609 779 1909 
Q 1175 2209 1959 2209 
L 2766 2209 
L 2766 2266 
Q 2766 2663 2505 2880 
Q 2244 3097 1772 3097 
Q 1472 3097 1187 3025 
Q 903 2953 641 2809 
L 641 3341 
Q 956 3463 1253 3523 
Q 1550 3584 1831 3584 
Q 2591 3584 2966 3190 
Q 3341 2797 3341 1997 
z
" transform="scale(0.015625)"/>
        <path id="DejaVuSans-6e" d="M 3513 2113 
L 3513 0 
L 2938 0 
L 2938 2094 
Q 2938 2591 2744 2837 
Q 2550 3084 2163 3084 
Q 1697 3084 1428 2787 
Q 1159 2491 1159 1978 
L 1159 0 
L 581 0 
L 581 3500 
L 1159 3500 
L 1159 2956 
Q 1366 3272 1645 3428 
Q 1925 3584 2291 3584 
Q 2894 3584 3203 3211 
Q 3513 2838 3513 2113 
z
" transform="scale(0.015625)"/>
        <path id="DejaVuSans-34" d="M 2419 4116 
L 825 1625 
L 2419 1625 
L 2419 4116 
z
M 2253 4666 
L 3047 4666 
L 3047 1625 
L 3713 1625 
L 3713 1100 
L 3047 1100 
L 3047 0 
L 2419 0 
L 2419 1100 
L 313 1100 
L 313 1709 
L 2253 4666 
z
" transform="scale(0.015625)"/>
       </defs>
       <use xlink:href="#DejaVuSans-4a"/>
       <use xlink:href="#DejaVuSans-61" x="29.492188"/>
       <use xlink:href="#DejaVuSans-6e" x="90.771484"/>
       <use xlink:href="#DejaVuSans-20" x="154.150391"/>
       <use xlink:href="#DejaVuSans-30" x="185.9375"/>
       <use xlink:href="#DejaVuSans-34" x="249.560547"/>
      </g>
     </g>
    </g>
    <g id="xtick_5">
     <g id="line2d_5">
      <g>
       <use xlink:href="#mf440351f92" x="367.962815" y="327.04" style="stroke: #000000; stroke-width: 0.8"/>
      </g>
     </g>
     <g id="text_5">
      <!-- Jan 14 -->
      <g transform="translate(349.171565 343.158125)scale(0.12 -0.12)">
       <use xlink:href="#DejaVuSans-4a"/>
       <use xlink:href="#DejaVuSans-61" x="29.492188"/>
       <use xlink:href="#DejaVuSans-6e" x="90.771484"/>
       <use xlink:href="#DejaVuSans-20" x="154.150391"/>
       <use xlink:href="#DejaVuSans-31" x="185.9375"/>
       <use xlink:href="#DejaVuSans-34" x="249.560547"/>
      </g>
     </g>
    </g>
    <g id="xtick_6">
     <g id="line2d_6">
      <g>
       <use xlink:href="#mf440351f92" x="439.877382" y="327.04" style="stroke: #000000; stroke-width: 0.8"/>
      </g>
     </g>
     <g id="text_6">
      <!-- Jan 24 -->
      <g transform="translate(421.086132 343.158125)scale(0.12 -0.12)">
       <use xlink:href="#DejaVuSans-4a"/>
       <use xlink:href="#DejaVuSans-61" x="29.492188"/>
       <use xlink:href="#DejaVuSans-6e" x="90.771484"/>
       <use xlink:href="#DejaVuSans-20" x="154.150391"/>
       <use xlink:href="#DejaVuSans-32" x="185.9375"/>
       <use xlink:href="#DejaVuSans-34" x="249.560547"/>
      </g>
     </g>
    </g>
    <g id="xtick_7">
     <g id="line2d_7">
      <g>
       <use xlink:href="#mf440351f92" x="511.79195" y="327.04" style="stroke: #000000; stroke-width: 0.8"/>
      </g>
     </g>
     <g id="text_7">
      <!-- Feb 03 -->
      <g transform="translate(491.6282 343.158125)scale(0.12 -0.12)">
       <defs>
        <path id="DejaVuSans-46" d="M 628 4666 
L 3309 4666 
L 3309 4134 
L 1259 4134 
L 1259 2759 
L 3109 2759 
L 3109 2228 
L 1259 2228 
L 1259 0 
L 628 0 
L 628 4666 
z
" transform="scale(0.015625)"/>
        <path id="DejaVuSans-62" d="M 3116 1747 
Q 3116 2381 2855 2742 
Q 2594 3103 2138 3103 
Q 1681 3103 1420 2742 
Q 1159 2381 1159 1747 
Q 1159 1113 1420 752 
Q 1681 391 2138 391 
Q 2594 391 2855 752 
Q 3116 1113 3116 1747 
z
M 1159 2969 
Q 1341 3281 1617 3432 
Q 1894 3584 2278 3584 
Q 2916 3584 3314 3078 
Q 3713 2572 3713 1747 
Q 3713 922 3314 415 
Q 2916 -91 2278 -91 
Q 1894 -91 1617 61 
Q 1341 213 1159 525 
L 1159 0 
L 581 0 
L 581 4863 
L 1159 4863 
L 1159 2969 
z
" transform="scale(0.015625)"/>
        <path id="DejaVuSans-33" d="M 2597 2516 
Q 3050 2419 3304 2112 
Q 3559 1806 3559 1356 
Q 3559 666 3084 287 
Q 2609 -91 1734 -91 
Q 1441 -91 1130 -33 
Q 819 25 488 141 
L 488 750 
Q 750 597 1062 519 
Q 1375 441 1716 441 
Q 2309 441 2620 675 
Q 2931 909 2931 1356 
Q 2931 1769 2642 2001 
Q 2353 2234 1838 2234 
L 1294 2234 
L 1294 2753 
L 1863 2753 
Q 2328 2753 2575 2939 
Q 2822 3125 2822 3475 
Q 2822 3834 2567 4026 
Q 2313 4219 1838 4219 
Q 1578 4219 1281 4162 
Q 984 4106 628 3988 
L 628 4550 
Q 988 4650 1302 4700 
Q 1616 4750 1894 4750 
Q 2613 4750 3031 4423 
Q 3450 4097 3450 3541 
Q 3450 3153 3228 2886 
Q 3006 2619 2597 2516 
z
" transform="scale(0.015625)"/>
       </defs>
       <use xlink:href="#DejaVuSans-46"/>
       <use xlink:href="#DejaVuSans-65" x="52.019531"/>
       <use xlink:href="#DejaVuSans-62" x="113.542969"/>
       <use xlink:href="#DejaVuSans-20" x="177.019531"/>
       <use xlink:href="#DejaVuSans-30" x="208.806641"/>
       <use xlink:href="#DejaVuSans-33" x="272.429688"/>
      </g>
     </g>
    </g>
    <g id="xtick_8">
     <g id="line2d_8">
      <g>
       <use xlink:href="#mf440351f92" x="583.706517" y="327.04" style="stroke: #000000; stroke-width: 0.8"/>
      </g>
     </g>
     <g id="text_8">
      <!-- Feb 13 -->
      <g transform="translate(563.542767 343.158125)scale(0.12 -0.12)">
       <use xlink:href="#DejaVuSans-46"/>
       <use xlink:href="#DejaVuSans-65" x="52.019531"/>
       <use xlink:href="#DejaVuSans-62" x="113.542969"/>
       <use xlink:href="#DejaVuSans-20" x="177.019531"/>
       <use xlink:href="#DejaVuSans-31" x="208.806641"/>
       <use xlink:href="#DejaVuSans-33" x="272.429688"/>
      </g>
     </g>
    </g>
    <g id="xtick_9">
     <g id="line2d_9">
      <g>
       <use xlink:href="#mf440351f92" x="655.621084" y="327.04" style="stroke: #000000; stroke-width: 0.8"/>
      </g>
     </g>
     <g id="text_9">
      <!-- Feb 23 -->
      <g transform="translate(635.457334 343.158125)scale(0.12 -0.12)">
       <use xlink:href="#DejaVuSans-46"/>
       <use xlink:href="#DejaVuSans-65" x="52.019531"/>
       <use xlink:href="#DejaVuSans-62" x="113.542969"/>
       <use xlink:href="#DejaVuSans-20" x="177.019531"/>
       <use xlink:href="#DejaVuSans-32" x="208.806641"/>
       <use xlink:href="#DejaVuSans-33" x="272.429688"/>
      </g>
     </g>
    </g>
   </g>
   <g id="matplotlib.axis_2">
    <g id="ytick_1">
     <g id="line2d_10">
      <defs>
       <path id="mef4969712a" d="M 0 0 
L -3.5 0 
" style="stroke: #000000; stroke-width: 0.8"/>
      </defs>
      <g>
       <use xlink:href="#mef4969712a" x="50.46" y="327.04" style="stroke: #000000; stroke-width: 0.8"/>
      </g>
     </g>
     <g id="text_10">
      <!-- 0 -->
      <g transform="translate(35.825 331.599063)scale(0.12 -0.12)">
       <use xlink:href="#DejaVuSans-30"/>
      </g>
     </g>
    </g>
    <g id="ytick_2">
     <g id="line2d_11">
      <g>
       <use xlink:href="#mef4969712a" x="50.46" y="285.104516" style="stroke: #000000; stroke-width: 0.8"/>
      </g>
     </g>
     <g id="text_11">
      <!-- 500 -->
      <g transform="translate(20.555 289.663579)scale(0.12 -0.12)">
       <use xlink:href="#DejaVuSans-35"/>
       <use xlink:href="#DejaVuSans-30" x="63.623047"/>
       <use xlink:href="#DejaVuSans-30" x="127.246094"/>
      </g>
     </g>
    </g>
    <g id="ytick_3">
     <g id="line2d_12">
      <g>
       <use xlink:href="#mef4969712a" x="50.46" y="243.169032" style="stroke: #000000; stroke-width: 0.8"/>
      </g>
     </g>
     <g id="text_12">
      <!-- 1000 -->
      <g transform="translate(12.92 247.728095)scale(0.12 -0.12)">
       <use xlink:href="#DejaVuSans-31"/>
       <use xlink:href="#DejaVuSans-30" x="63.623047"/>
       <use xlink:href="#DejaVuSans-30" x="127.246094"/>
       <use xlink:href="#DejaVuSans-30" x="190.869141"/>
      </g>
     </g>
    </g>
    <g id="ytick_4">
     <g id="line2d_13">
      <g>
       <use xlink:href="#mef4969712a" x="50.46" y="201.233548" style="stroke: #000000; stroke-width: 0.8"/>
      </g>
     </g>
     <g id="text_13">
      <!-- 1500 -->
      <g transform="translate(12.92 205.792611)scale(0.12 -0.12)">
       <use xlink:href="#DejaVuSans-31"/>
       <use xlink:href="#DejaVuSans-35" x="63.623047"/>
       <use xlink:href="#DejaVuSans-30" x="127.246094"/>
       <use xlink:href="#DejaVuSans-30" x="190.869141"/>
      </g>
     </g>
    </g>
    <g id="ytick_5">
     <g id="line2d_14">
      <g>
       <use xlink:href="#mef4969712a" x="50.46" y="159.298065" style="stroke: #000000; stroke-width: 0.8"/>
      </g>
     </g>
     <g id="text_14">
      <!-- 2000 -->
      <g transform="translate(12.92 163.857127)scale(0.12 -0.12)">
       <use xlink:href="#DejaVuSans-32"/>
       <use xlink:href="#DejaVuSans-30" x="63.623047"/>
       <use xlink:href="#DejaVuSans-30" x="127.246094"/>
       <use xlink:href="#DejaVuSans-30" x="190.869141"/>
      </g>
     </g>
    </g>
    <g id="ytick_6">
     <g id="line2d_15">
      <g>
       <use xlink:href="#mef4969712a" x="50.46" y="117.362581" style="stroke: #000000; stroke-width: 0.8"/>
      </g>
     </g>
     <g id="text_15">
      <!-- 2500 -->
      <g transform="translate(12.92 121.921643)scale(0.12 -0.12)">
       <use xlink:href="#DejaVuSans-32"/>
       <use xlink:href="#DejaVuSans-35" x="63.623047"/>
       <use xlink:href="#DejaVuSans-30" x="127.246094"/>
       <use xlink:href="#DejaVuSans-30" x="190.869141"/>
      </g>
     </g>
    </g>
    <g id="ytick_7">
     <g id="line2d_16">
      <g>
       <use xlink:href="#mef4969712a" x="50.46" y="75.427097" style="stroke: #000000; stroke-width: 0.8"/>
      </g>
     </g>
     <g id="text_16">
      <!-- 3000 -->
      <g transform="translate(12.92 79.986159)scale(0.12 -0.12)">
       <use xlink:href="#DejaVuSans-33"/>
       <use xlink:href="#DejaVuSans-30" x="63.623047"/>
       <use xlink:href="#DejaVuSans-30" x="127.246094"/>
       <use xlink:href="#DejaVuSans-30" x="190.869141"/>
      </g>
     </g>
    </g>
    <g id="ytick_8">
     <g id="line2d_17">
      <g>
       <use xlink:href="#mef4969712a" x="50.46" y="33.491613" style="stroke: #000000; stroke-width: 0.8"/>
      </g>
     </g>
     <g id="text_17">
      <!-- 3500 -->
      <g transform="translate(12.92 38.050675)scale(0.12 -0.12)">
       <use xlink:href="#DejaVuSans-33"/>
       <use xlink:href="#DejaVuSans-35" x="63.623047"/>
       <use xlink:href="#DejaVuSans-30" x="127.246094"/>
       <use xlink:href="#DejaVuSans-30" x="190.869141"/>
      </g>
     </g>
    </g>
   </g>
   <g id="line2d_18">
    <path d="M 80.304545 313.788387 
L 87.496002 310.014194 
L 94.687459 310.265806 
L 101.878916 303.723871 
L 109.070372 308.672258 
L 116.261829 310.769032 
L 123.453286 311.691613 
L 130.644743 310.433548 
L 137.836199 306.575484 
L 145.027656 307.414194 
L 152.219113 299.110968 
L 159.41057 299.110968 
L 166.602026 306.24 
L 173.793483 304.310968 
L 180.98494 308.504516 
L 188.176396 305.904516 
L 195.367853 307.162581 
L 202.55931 304.981935 
L 209.750767 304.814194 
L 216.942223 306.743226 
L 224.13368 306.407742 
L 231.325137 312.781935 
L 238.516594 310.181935 
L 245.70805 305.233548 
L 252.899507 302.717419 
L 260.090964 298.356129 
L 267.282421 299.27871 
L 274.473877 298.104516 
L 281.665334 294.246452 
L 288.856791 288.459355 
L 296.048248 271.60129 
L 303.239704 259.188387 
L 310.431161 261.117419 
L 317.622618 263.80129 
L 324.814074 229.665806 
L 332.005531 226.898065 
L 339.196988 246.943226 
L 346.388445 220.691613 
L 353.579901 207.691613 
L 360.771358 208.781935 
L 367.962815 209.536774 
L 375.154272 244.007742 
L 382.345728 165.00129 
L 389.537185 206.098065 
L 396.728642 238.136774 
L 403.920099 220.523871 
L 411.111555 211.381935 
L 418.303012 227.569032 
L 425.494469 225.304516 
L 432.685926 242.749677 
L 439.877382 266.40129 
L 447.068839 239.814194 
L 454.260296 246.943226 
L 461.451752 254.323871 
L 468.643209 264.472258 
L 475.834666 254.743226 
L 483.026123 268.581935 
L 490.217579 274.872258 
L 497.409036 273.614194 
L 504.600493 258.098065 
L 511.79195 270.594839 
L 518.983406 276.633548 
L 526.174863 286.865806 
L 533.36632 284.265806 
L 540.557777 285.44 
L 547.749233 275.04 
L 554.94069 269.336774 
L 562.132147 278.646452 
L 569.323604 281.07871 
L 576.51506 287.620645 
L 583.706517 288.627097 
L 590.897974 289.298065 
L 598.08943 286.110968 
L 605.280887 276.465806 
L 612.472344 280.575484 
L 619.663801 291.562581 
L 626.855257 295.756129 
L 634.046714 299.446452 
L 641.238171 301.543226 
L 648.429628 298.691613 
L 655.621084 291.898065 
L 662.812541 300.20129 
L 670.003998 300.452903 
L 677.195455 299.27871 
" clip-path="url(#p0db08c5c6a)" style="fill: none; stroke: #1f77b4; stroke-width: 1.5; stroke-linecap: square"/>
    <defs>
     <path id="m747d399abc" d="M 0 3 
C 0.795609 3 1.55874 2.683901 2.12132 2.12132 
C 2.683901 1.55874 3 0.795609 3 0 
C 3 -0.795609 2.683901 -1.55874 2.12132 -2.12132 
C 1.55874 -2.683901 0.795609 -3 0 -3 
C -0.795609 -3 -1.55874 -2.683901 -2.12132 -2.12132 
C -2.683901 -1.55874 -3 -0.795609 -3 0 
C -3 0.795609 -2.683901 1.55874 -2.12132 2.12132 
C -1.55874 2.683901 -0.795609 3 0 3 
z
" style="stroke: #1f77b4"/>
    </defs>
    <g clip-path="url(#p0db08c5c6a)">
     <use xlink:href="#m747d399abc" x="80.304545" y="313.788387" style="fill: #1f77b4; stroke: #1f77b4"/>
     <use xlink:href="#m747d399abc" x="87.496002" y="310.014194" style="fill: #1f77b4; stroke: #1f77b4"/>
     <use xlink:href="#m747d399abc" x="94.687459" y="310.265806" style="fill: #1f77b4; stroke: #1f77b4"/>
     <use xlink:href="#m747d399abc" x="101.878916" y="303.723871" style="fill: #1f77b4; stroke: #1f77b4"/>
     <use xlink:href="#m747d399abc" x="109.070372" y="308.672258" style="fill: #1f77b4; stroke: #1f77b4"/>
     <use xlink:href="#m747d399abc" x="116.261829" y="310.769032" style="fill: #1f77b4; stroke: #1f77b4"/>
     <use xlink:href="#m747d399abc" x="123.453286" y="311.691613" style="fill: #1f77b4; stroke: #1f77b4"/>
     <use xlink:href="#m747d399abc" x="130.644743" y="310.433548" style="fill: #1f77b4; stroke: #1f77b4"/>
     <use xlink:href="#m747d399abc" x="137.836199" y="306.575484" style="fill: #1f77b4; stroke: #1f77b4"/>
     <use xlink:href="#m747d399abc" x="145.027656" y="307.414194" style="fill: #1f77b4; stroke: #1f77b4"/>
     <use xlink:href="#m747d399abc" x="152.219113" y="299.110968" style="fill: #1f77b4; stroke: #1f77b4"/>
     <use xlink:href="#m747d399abc" x="159.41057" y="299.110968" style="fill: #1f77b4; stroke: #1f77b4"/>
     <use xlink:href="#m747d399abc" x="166.602026" y="306.24" style="fill: #1f77b4; stroke: #1f77b4"/>
     <use xlink:href="#m747d399abc" x="173.793483" y="304.310968" style="fill: #1f77b4; stroke: #1f77b4"/>
     <use xlink:href="#m747d399abc" x="180.98494" y="308.504516" style="fill: #1f77b4; stroke: #1f77b4"/>
     <use xlink:href="#m747d399abc" x="188.176396" y="305.904516" style="fill: #1f77b4; stroke: #1f77b4"/>
     <use xlink:href="#m747d399abc" x="195.367853" y="307.162581" style="fill: #1f77b4; stroke: #1f77b4"/>
     <use xlink:href="#m747d399abc" x="202.55931" y="304.981935" style="fill: #1f77b4; stroke: #1f77b4"/>
     <use xlink:href="#m747d399abc" x="209.750767" y="304.814194" style="fill: #1f77b4; stroke: #1f77b4"/>
     <use xlink:href="#m747d399abc" x="216.942223" y="306.743226" style="fill: #1f77b4; stroke: #1f77b4"/>
     <use xlink:href="#m747d399abc" x="224.13368" y="306.407742" style="fill: #1f77b4; stroke: #1f77b4"/>
     <use xlink:href="#m747d399abc" x="231.325137" y="312.781935" style="fill: #1f77b4; stroke: #1f77b4"/>
     <use xlink:href="#m747d399abc" x="238.516594" y="310.181935" style="fill: #1f77b4; stroke: #1f77b4"/>
     <use xlink:href="#m747d399abc" x="245.70805" y="305.233548" style="fill: #1f77b4; stroke: #1f77b4"/>
     <use xlink:href="#m747d399abc" x="252.899507" y="302.717419" style="fill: #1f77b4; stroke: #1f77b4"/>
     <use xlink:href="#m747d399abc" x="260.090964" y="298.356129" style="fill: #1f77b4; stroke: #1f77b4"/>
     <use xlink:href="#m747d399abc" x="267.282421" y="299.27871" style="fill: #1f77b4; stroke: #1f77b4"/>
     <use xlink:href="#m747d399abc" x="274.473877" y="298.104516" style="fill: #1f77b4; stroke: #1f77b4"/>
     <use xlink:href="#m747d399abc" x="281.665334" y="294.246452" style="fill: #1f77b4; stroke: #1f77b4"/>
     <use xlink:href="#m747d399abc" x="288.856791" y="288.459355" style="fill: #1f77b4; stroke: #1f77b4"/>
     <use xlink:href="#m747d399abc" x="296.048248" y="271.60129" style="fill: #1f77b4; stroke: #1f77b4"/>
     <use xlink:href="#m747d399abc" x="303.239704" y="259.188387" style="fill: #1f77b4; stroke: #1f77b4"/>
     <use xlink:href="#m747d399abc" x="310.431161" y="261.117419" style="fill: #1f77b4; stroke: #1f77b4"/>
     <use xlink:href="#m747d399abc" x="317.622618" y="263.80129" style="fill: #1f77b4; stroke: #1f77b4"/>
     <use xlink:href="#m747d399abc" x="324.814074" y="229.665806" style="fill: #1f77b4; stroke: #1f77b4"/>
     <use xlink:href="#m747d399abc" x="332.005531" y="226.898065" style="fill: #1f77b4; stroke: #1f77b4"/>
     <use xlink:href="#m747d399abc" x="339.196988" y="246.943226" style="fill: #1f77b4; stroke: #1f77b4"/>
     <use xlink:href="#m747d399abc" x="346.388445" y="220.691613" style="fill: #1f77b4; stroke: #1f77b4"/>
     <use xlink:href="#m747d399abc" x="353.579901" y="207.691613" style="fill: #1f77b4; stroke: #1f77b4"/>
     <use xlink:href="#m747d399abc" x="360.771358" y="208.781935" style="fill: #1f77b4; stroke: #1f77b4"/>
     <use xlink:href="#m747d399abc" x="367.962815" y="209.536774" style="fill: #1f77b4; stroke: #1f77b4"/>
     <use xlink:href="#m747d399abc" x="375.154272" y="244.007742" style="fill: #1f77b4; stroke: #1f77b4"/>
     <use xlink:href="#m747d399abc" x="382.345728" y="165.00129" style="fill: #1f77b4; stroke: #1f77b4"/>
     <use xlink:href="#m747d399abc" x="389.537185" y="206.098065" style="fill: #1f77b4; stroke: #1f77b4"/>
     <use xlink:href="#m747d399abc" x="396.728642" y="238.136774" style="fill: #1f77b4; stroke: #1f77b4"/>
     <use xlink:href="#m747d399abc" x="403.920099" y="220.523871" style="fill: #1f77b4; stroke: #1f77b4"/>
     <use xlink:href="#m747d399abc" x="411.111555" y="211.381935" style="fill: #1f77b4; stroke: #1f77b4"/>
     <use xlink:href="#m747d399abc" x="418.303012" y="227.569032" style="fill: #1f77b4; stroke: #1f77b4"/>
     <use xlink:href="#m747d399abc" x="425.494469" y="225.304516" style="fill: #1f77b4; stroke: #1f77b4"/>
     <use xlink:href="#m747d399abc" x="432.685926" y="242.749677" style="fill: #1f77b4; stroke: #1f77b4"/>
     <use xlink:href="#m747d399abc" x="439.877382" y="266.40129" style="fill: #1f77b4; stroke: #1f77b4"/>
     <use xlink:href="#m747d399abc" x="447.068839" y="239.814194" style="fill: #1f77b4; stroke: #1f77b4"/>
     <use xlink:href="#m747d399abc" x="454.260296" y="246.943226" style="fill: #1f77b4; stroke: #1f77b4"/>
     <use xlink:href="#m747d399abc" x="461.451752" y="254.323871" style="fill: #1f77b4; stroke: #1f77b4"/>
     <use xlink:href="#m747d399abc" x="468.643209" y="264.472258" style="fill: #1f77b4; stroke: #1f77b4"/>
     <use xlink:href="#m747d399abc" x="475.834666" y="254.743226" style="fill: #1f77b4; stroke: #1f77b4"/>
     <use xlink:href="#m747d399abc" x="483.026123" y="268.581935" style="fill: #1f77b4; stroke: #1f77b4"/>
     <use xlink:href="#m747d399abc" x="490.217579" y="274.872258" style="fill: #1f77b4; stroke: #1f77b4"/>
     <use xlink:href="#m747d399abc" x="497.409036" y="273.614194" style="fill: #1f77b4; stroke: #1f77b4"/>
     <use xlink:href="#m747d399abc" x="504.600493" y="258.098065" style="fill: #1f77b4; stroke: #1f77b4"/>
     <use xlink:href="#m747d399abc" x="511.79195" y="270.594839" style="fill: #1f77b4; stroke: #1f77b4"/>
     <use xlink:href="#m747d399abc" x="518.983406" y="276.633548" style="fill: #1f77b4; stroke: #1f77b4"/>
     <use xlink:href="#m747d399abc" x="526.174863" y="286.865806" style="fill: #1f77b4; stroke: #1f77b4"/>
     <use xlink:href="#m747d399abc" x="533.36632" y="284.265806" style="fill: #1f77b4; stroke: #1f77b4"/>
     <use xlink:href="#m747d399abc" x="540.557777" y="285.44" style="fill: #1f77b4; stroke: #1f77b4"/>
     <use xlink:href="#m747d399abc" x="547.749233" y="275.04" style="fill: #1f77b4; stroke: #1f77b4"/>
     <use xlink:href="#m747d399abc" x="554.94069" y="269.336774" style="fill: #1f77b4; stroke: #1f77b4"/>
     <use xlink:href="#m747d399abc" x="562.132147" y="278.646452" style="fill: #1f77b4; stroke: #1f77b4"/>
     <use xlink:href="#m747d399abc" x="569.323604" y="281.07871" style="fill: #1f77b4; stroke: #1f77b4"/>
     <use xlink:href="#m747d399abc" x="576.51506" y="287.620645" style="fill: #1f77b4; stroke: #1f77b4"/>
     <use xlink:href="#m747d399abc" x="583.706517" y="288.627097" style="fill: #1f77b4; stroke: #1f77b4"/>
     <use xlink:href="#m747d399abc" x="590.897974" y="289.298065" style="fill: #1f77b4; stroke: #1f77b4"/>
     <use xlink:href="#m747d399abc" x="598.08943" y="286.110968" style="fill: #1f77b4; stroke: #1f77b4"/>
     <use xlink:href="#m747d399abc" x="605.280887" y="276.465806" style="fill: #1f77b4; stroke: #1f77b4"/>
     <use xlink:href="#m747d399abc" x="612.472344" y="280.575484" style="fill: #1f77b4; stroke: #1f77b4"/>
     <use xlink:href="#m747d399abc" x="619.663801" y="291.562581" style="fill: #1f77b4; stroke: #1f77b4"/>
     <use xlink:href="#m747d399abc" x="626.855257" y="295.756129" style="fill: #1f77b4; stroke: #1f77b4"/>
     <use xlink:href="#m747d399abc" x="634.046714" y="299.446452" style="fill: #1f77b4; stroke: #1f77b4"/>
     <use xlink:href="#m747d399abc" x="641.238171" y="301.543226" style="fill: #1f77b4; stroke: #1f77b4"/>
     <use xlink:href="#m747d399abc" x="648.429628" y="298.691613" style="fill: #1f77b4; stroke: #1f77b4"/>
     <use xlink:href="#m747d399abc" x="655.621084" y="291.898065" style="fill: #1f77b4; stroke: #1f77b4"/>
     <use xlink:href="#m747d399abc" x="662.812541" y="300.20129" style="fill: #1f77b4; stroke: #1f77b4"/>
     <use xlink:href="#m747d399abc" x="670.003998" y="300.452903" style="fill: #1f77b4; stroke: #1f77b4"/>
     <use xlink:href="#m747d399abc" x="677.195455" y="299.27871" style="fill: #1f77b4; stroke: #1f77b4"/>
    </g>
   </g>
   <g id="line2d_19">
    <path d="M 80.304545 313.033548 
L 87.496002 311.356129 
L 94.687459 307.833548 
L 101.878916 307.749677 
L 109.070372 308.00129 
L 116.261829 312.027097 
L 123.453286 312.194839 
L 130.644743 312.446452 
L 137.836199 310.433548 
L 145.027656 307.917419 
L 152.219113 306.827097 
L 159.41057 310.769032 
L 166.602026 311.188387 
L 173.793483 310.60129 
L 180.98494 311.44 
L 188.176396 311.104516 
L 195.367853 312.27871 
L 202.55931 309.594839 
L 209.750767 305.569032 
L 216.942223 305.652903 
L 224.13368 302.80129 
L 231.325137 310.769032 
L 238.516594 307.833548 
L 245.70805 304.730323 
L 252.899507 292.065806 
L 260.090964 283.343226 
L 267.282421 275.627097 
L 274.473877 265.47871 
L 281.665334 267.491613 
L 288.856791 257.259355 
L 296.048248 202.407742 
L 303.239704 158.291613 
L 310.431161 100.84 
L 317.622618 94.465806 
L 324.814074 27.285161 
L 332.005531 57.646452 
L 339.196988 116.104516 
L 346.388445 117.614194 
L 353.579901 124.156129 
L 360.771358 141.852903 
L 367.962815 150.24 
L 375.154272 210.04 
L 382.345728 158.962581 
L 389.537185 208.362581 
L 396.728642 237.717419 
L 403.920099 227.988387 
L 411.111555 222.369032 
L 418.303012 237.130323 
L 425.494469 248.788387 
L 432.685926 265.310968 
L 439.877382 286.865806 
L 447.068839 265.394839 
L 454.260296 267.323871 
L 461.451752 268.917419 
L 468.643209 273.530323 
L 475.834666 262.962581 
L 483.026123 280.743226 
L 490.217579 286.865806 
L 497.409036 277.891613 
L 504.600493 235.452903 
L 511.79195 262.459355 
L 518.983406 278.310968 
L 526.174863 296.427097 
L 533.36632 296.175484 
L 540.557777 295.504516 
L 547.749233 288.04 
L 554.94069 276.717419 
L 562.132147 281.414194 
L 569.323604 286.446452 
L 576.51506 289.969032 
L 583.706517 294.665806 
L 590.897974 292.485161 
L 598.08943 291.814194 
L 605.280887 277.388387 
L 612.472344 280.072258 
L 619.663801 286.530323 
L 626.855257 293.910968 
L 634.046714 301.87871 
L 641.238171 297.769032 
L 648.429628 295.588387 
L 655.621084 290.64 
L 662.812541 294.498065 
L 670.003998 292.652903 
L 677.195455 297.60129 
" clip-path="url(#p0db08c5c6a)" style="fill: none; stroke: #ff7f0e; stroke-width: 1.5; stroke-linecap: square"/>
    <defs>
     <path id="ma6b9e641d5" d="M 0 3 
C 0.795609 3 1.55874 2.683901 2.12132 2.12132 
C 2.683901 1.55874 3 0.795609 3 0 
C 3 -0.795609 2.683901 -1.55874 2.12132 -2.12132 
C 1.55874 -2.683901 0.795609 -3 0 -3 
C -0.795609 -3 -1.55874 -2.683901 -2.12132 -2.12132 
C -2.683901 -1.55874 -3 -0.795609 -3 0 
C -3 0.795609 -2.683901 1.55874 -2.12132 2.12132 
C -1.55874 2.683901 -0.795609 3 0 3 
z
" style="stroke: #ff7f0e"/>
    </defs>
    <g clip-path="url(#p0db08c5c6a)">
     <use xlink:href="#ma6b9e641d5" x="80.304545" y="313.033548" style="fill: #ff7f0e; stroke: #ff7f0e"/>
     <use xlink:href="#ma6b9e641d5" x="87.496002" y="311.356129" style="fill: #ff7f0e; stroke: #ff7f0e"/>
     <use xlink:href="#ma6b9e641d5" x="94.687459" y="307.833548" style="fill: #ff7f0e; stroke: #ff7f0e"/>
     <use xlink:href="#ma6b9e641d5" x="101.878916" y="307.749677" style="fill: #ff7f0e; stroke: #ff7f0e"/>
     <use xlink:href="#ma6b9e641d5" x="109.070372" y="308.00129" style="fill: #ff7f0e; stroke: #ff7f0e"/>
     <use xlink:href="#ma6b9e641d5" x="116.261829" y="312.027097" style="fill: #ff7f0e; stroke: #ff7f0e"/>
     <use xlink:href="#ma6b9e641d5" x="123.453286" y="312.194839" style="fill: #ff7f0e; stroke: #ff7f0e"/>
     <use xlink:href="#ma6b9e641d5" x="130.644743" y="312.446452" style="fill: #ff7f0e; stroke: #ff7f0e"/>
     <use xlink:href="#ma6b9e641d5" x="137.836199" y="310.433548" style="fill: #ff7f0e; stroke: #ff7f0e"/>
     <use xlink:href="#ma6b9e641d5" x="145.027656" y="307.917419" style="fill: #ff7f0e; stroke: #ff7f0e"/>
     <use xlink:href="#ma6b9e641d5" x="152.219113" y="306.827097" style="fill: #ff7f0e; stroke: #ff7f0e"/>
     <use xlink:href="#ma6b9e641d5" x="159.41057" y="310.769032" style="fill: #ff7f0e; stroke: #ff7f0e"/>
     <use xlink:href="#ma6b9e641d5" x="166.602026" y="311.188387" style="fill: #ff7f0e; stroke: #ff7f0e"/>
     <use xlink:href="#ma6b9e641d5" x="173.793483" y="310.60129" style="fill: #ff7f0e; stroke: #ff7f0e"/>
     <use xlink:href="#ma6b9e641d5" x="180.98494" y="311.44" style="fill: #ff7f0e; stroke: #ff7f0e"/>
     <use xlink:href="#ma6b9e641d5" x="188.176396" y="311.104516" style="fill: #ff7f0e; stroke: #ff7f0e"/>
     <use xlink:href="#ma6b9e641d5" x="195.367853" y="312.27871" style="fill: #ff7f0e; stroke: #ff7f0e"/>
     <use xlink:href="#ma6b9e641d5" x="202.55931" y="309.594839" style="fill: #ff7f0e; stroke: #ff7f0e"/>
     <use xlink:href="#ma6b9e641d5" x="209.750767" y="305.569032" style="fill: #ff7f0e; stroke: #ff7f0e"/>
     <use xlink:href="#ma6b9e641d5" x="216.942223" y="305.652903" style="fill: #ff7f0e; stroke: #ff7f0e"/>
     <use xlink:href="#ma6b9e641d5" x="224.13368" y="302.80129" style="fill: #ff7f0e; stroke: #ff7f0e"/>
     <use xlink:href="#ma6b9e641d5" x="231.325137" y="310.769032" style="fill: #ff7f0e; stroke: #ff7f0e"/>
     <use xlink:href="#ma6b9e641d5" x="238.516594" y="307.833548" style="fill: #ff7f0e; stroke: #ff7f0e"/>
     <use xlink:href="#ma6b9e641d5" x="245.70805" y="304.730323" style="fill: #ff7f0e; stroke: #ff7f0e"/>
     <use xlink:href="#ma6b9e641d5" x="252.899507" y="292.065806" style="fill: #ff7f0e; stroke: #ff7f0e"/>
     <use xlink:href="#ma6b9e641d5" x="260.090964" y="283.343226" style="fill: #ff7f0e; stroke: #ff7f0e"/>
     <use xlink:href="#ma6b9e641d5" x="267.282421" y="275.627097" style="fill: #ff7f0e; stroke: #ff7f0e"/>
     <use xlink:href="#ma6b9e641d5" x="274.473877" y="265.47871" style="fill: #ff7f0e; stroke: #ff7f0e"/>
     <use xlink:href="#ma6b9e641d5" x="281.665334" y="267.491613" style="fill: #ff7f0e; stroke: #ff7f0e"/>
     <use xlink:href="#ma6b9e641d5" x="288.856791" y="257.259355" style="fill: #ff7f0e; stroke: #ff7f0e"/>
     <use xlink:href="#ma6b9e641d5" x="296.048248" y="202.407742" style="fill: #ff7f0e; stroke: #ff7f0e"/>
     <use xlink:href="#ma6b9e641d5" x="303.239704" y="158.291613" style="fill: #ff7f0e; stroke: #ff7f0e"/>
     <use xlink:href="#ma6b9e641d5" x="310.431161" y="100.84" style="fill: #ff7f0e; stroke: #ff7f0e"/>
     <use xlink:href="#ma6b9e641d5" x="317.622618" y="94.465806" style="fill: #ff7f0e; stroke: #ff7f0e"/>
     <use xlink:href="#ma6b9e641d5" x="324.814074" y="27.285161" style="fill: #ff7f0e; stroke: #ff7f0e"/>
     <use xlink:href="#ma6b9e641d5" x="332.005531" y="57.646452" style="fill: #ff7f0e; stroke: #ff7f0e"/>
     <use xlink:href="#ma6b9e641d5" x="339.196988" y="116.104516" style="fill: #ff7f0e; stroke: #ff7f0e"/>
     <use xlink:href="#ma6b9e641d5" x="346.388445" y="117.614194" style="fill: #ff7f0e; stroke: #ff7f0e"/>
     <use xlink:href="#ma6b9e641d5" x="353.579901" y="124.156129" style="fill: #ff7f0e; stroke: #ff7f0e"/>
     <use xlink:href="#ma6b9e641d5" x="360.771358" y="141.852903" style="fill: #ff7f0e; stroke: #ff7f0e"/>
     <use xlink:href="#ma6b9e641d5" x="367.962815" y="150.24" style="fill: #ff7f0e; stroke: #ff7f0e"/>
     <use xlink:href="#ma6b9e641d5" x="375.154272" y="210.04" style="fill: #ff7f0e; stroke: #ff7f0e"/>
     <use xlink:href="#ma6b9e641d5" x="382.345728" y="158.962581" style="fill: #ff7f0e; stroke: #ff7f0e"/>
     <use xlink:href="#ma6b9e641d5" x="389.537185" y="208.362581" style="fill: #ff7f0e; stroke: #ff7f0e"/>
     <use xlink:href="#ma6b9e641d5" x="396.728642" y="237.717419" style="fill: #ff7f0e; stroke: #ff7f0e"/>
     <use xlink:href="#ma6b9e641d5" x="403.920099" y="227.988387" style="fill: #ff7f0e; stroke: #ff7f0e"/>
     <use xlink:href="#ma6b9e641d5" x="411.111555" y="222.369032" style="fill: #ff7f0e; stroke: #ff7f0e"/>
     <use xlink:href="#ma6b9e641d5" x="418.303012" y="237.130323" style="fill: #ff7f0e; stroke: #ff7f0e"/>
     <use xlink:href="#ma6b9e641d5" x="425.494469" y="248.788387" style="fill: #ff7f0e; stroke: #ff7f0e"/>
     <use xlink:href="#ma6b9e641d5" x="432.685926" y="265.310968" style="fill: #ff7f0e; stroke: #ff7f0e"/>
     <use xlink:href="#ma6b9e641d5" x="439.877382" y="286.865806" style="fill: #ff7f0e; stroke: #ff7f0e"/>
     <use xlink:href="#ma6b9e641d5" x="447.068839" y="265.394839" style="fill: #ff7f0e; stroke: #ff7f0e"/>
     <use xlink:href="#ma6b9e641d5" x="454.260296" y="267.323871" style="fill: #ff7f0e; stroke: #ff7f0e"/>
     <use xlink:href="#ma6b9e641d5" x="461.451752" y="268.917419" style="fill: #ff7f0e; stroke: #ff7f0e"/>
     <use xlink:href="#ma6b9e641d5" x="468.643209" y="273.530323" style="fill: #ff7f0e; stroke: #ff7f0e"/>
     <use xlink:href="#ma6b9e641d5" x="475.834666" y="262.962581" style="fill: #ff7f0e; stroke: #ff7f0e"/>
     <use xlink:href="#ma6b9e641d5" x="483.026123" y="280.743226" style="fill: #ff7f0e; stroke: #ff7f0e"/>
     <use xlink:href="#ma6b9e641d5" x="490.217579" y="286.865806" style="fill: #ff7f0e; stroke: #ff7f0e"/>
     <use xlink:href="#ma6b9e641d5" x="497.409036" y="277.891613" style="fill: #ff7f0e; stroke: #ff7f0e"/>
     <use xlink:href="#ma6b9e641d5" x="504.600493" y="235.452903" style="fill: #ff7f0e; stroke: #ff7f0e"/>
     <use xlink:href="#ma6b9e641d5" x="511.79195" y="262.459355" style="fill: #ff7f0e; stroke: #ff7f0e"/>
     <use xlink:href="#ma6b9e641d5" x="518.983406" y="278.310968" style="fill: #ff7f0e; stroke: #ff7f0e"/>
     <use xlink:href="#ma6b9e641d5" x="526.174863" y="296.427097" style="fill: #ff7f0e; stroke: #ff7f0e"/>
     <use xlink:href="#ma6b9e641d5" x="533.36632" y="296.175484" style="fill: #ff7f0e; stroke: #ff7f0e"/>
     <use xlink:href="#ma6b9e641d5" x="540.557777" y="295.504516" style="fill: #ff7f0e; stroke: #ff7f0e"/>
     <use xlink:href="#ma6b9e641d5" x="547.749233" y="288.04" style="fill: #ff7f0e; stroke: #ff7f0e"/>
     <use xlink:href="#ma6b9e641d5" x="554.94069" y="276.717419" style="fill: #ff7f0e; stroke: #ff7f0e"/>
     <use xlink:href="#ma6b9e641d5" x="562.132147" y="281.414194" style="fill: #ff7f0e; stroke: #ff7f0e"/>
     <use xlink:href="#ma6b9e641d5" x="569.323604" y="286.446452" style="fill: #ff7f0e; stroke: #ff7f0e"/>
     <use xlink:href="#ma6b9e641d5" x="576.51506" y="289.969032" style="fill: #ff7f0e; stroke: #ff7f0e"/>
     <use xlink:href="#ma6b9e641d5" x="583.706517" y="294.665806" style="fill: #ff7f0e; stroke: #ff7f0e"/>
     <use xlink:href="#ma6b9e641d5" x="590.897974" y="292.485161" style="fill: #ff7f0e; stroke: #ff7f0e"/>
     <use xlink:href="#ma6b9e641d5" x="598.08943" y="291.814194" style="fill: #ff7f0e; stroke: #ff7f0e"/>
     <use xlink:href="#ma6b9e641d5" x="605.280887" y="277.388387" style="fill: #ff7f0e; stroke: #ff7f0e"/>
     <use xlink:href="#ma6b9e641d5" x="612.472344" y="280.072258" style="fill: #ff7f0e; stroke: #ff7f0e"/>
     <use xlink:href="#ma6b9e641d5" x="619.663801" y="286.530323" style="fill: #ff7f0e; stroke: #ff7f0e"/>
     <use xlink:href="#ma6b9e641d5" x="626.855257" y="293.910968" style="fill: #ff7f0e; stroke: #ff7f0e"/>
     <use xlink:href="#ma6b9e641d5" x="634.046714" y="301.87871" style="fill: #ff7f0e; stroke: #ff7f0e"/>
     <use xlink:href="#ma6b9e641d5" x="641.238171" y="297.769032" style="fill: #ff7f0e; stroke: #ff7f0e"/>
     <use xlink:href="#ma6b9e641d5" x="648.429628" y="295.588387" style="fill: #ff7f0e; stroke: #ff7f0e"/>
     <use xlink:href="#ma6b9e641d5" x="655.621084" y="290.64" style="fill: #ff7f0e; stroke: #ff7f0e"/>
     <use xlink:href="#ma6b9e641d5" x="662.812541" y="294.498065" style="fill: #ff7f0e; stroke: #ff7f0e"/>
     <use xlink:href="#ma6b9e641d5" x="670.003998" y="292.652903" style="fill: #ff7f0e; stroke: #ff7f0e"/>
     <use xlink:href="#ma6b9e641d5" x="677.195455" y="297.60129" style="fill: #ff7f0e; stroke: #ff7f0e"/>
    </g>
   </g>
   <g id="patch_3">
    <path d="M 50.46 327.04 
L 50.46 12.96 
" style="fill: none; stroke: #000000; stroke-width: 0.8; stroke-linejoin: miter; stroke-linecap: square"/>
   </g>
   <g id="patch_4">
    <path d="M 50.46 327.04 
L 707.04 327.04 
" style="fill: none; stroke: #000000; stroke-width: 0.8; stroke-linejoin: miter; stroke-linecap: square"/>
   </g>
   <g id="legend_1">
    <g id="patch_5">
     <path d="M 58.86 57.7875 
L 197.86125 57.7875 
Q 200.26125 57.7875 200.26125 55.3875 
L 200.26125 21.36 
Q 200.26125 18.96 197.86125 18.96 
L 58.86 18.96 
Q 56.46 18.96 56.46 21.36 
L 56.46 55.3875 
Q 56.46 57.7875 58.86 57.7875 
z
" style="fill: #ffffff; opacity: 0.8; stroke: #cccccc; stroke-linejoin: miter"/>
    </g>
    <g id="line2d_20">
     <path d="M 61.26 28.678125 
L 73.26 28.678125 
L 85.26 28.678125 
" style="fill: none; stroke: #1f77b4; stroke-width: 1.5; stroke-linecap: square"/>
     <g>
      <use xlink:href="#m747d399abc" x="73.26" y="28.678125" style="fill: #1f77b4; stroke: #1f77b4"/>
     </g>
    </g>
    <g id="text_18">
     <!-- Age range 0-9 -->
     <g transform="translate(94.86 32.878125)scale(0.12 -0.12)">
      <defs>
       <path id="DejaVuSans-41" d="M 2188 4044 
L 1331 1722 
L 3047 1722 
L 2188 4044 
z
M 1831 4666 
L 2547 4666 
L 4325 0 
L 3669 0 
L 3244 1197 
L 1141 1197 
L 716 0 
L 50 0 
L 1831 4666 
z
" transform="scale(0.015625)"/>
       <path id="DejaVuSans-67" d="M 2906 1791 
Q 2906 2416 2648 2759 
Q 2391 3103 1925 3103 
Q 1463 3103 1205 2759 
Q 947 2416 947 1791 
Q 947 1169 1205 825 
Q 1463 481 1925 481 
Q 2391 481 2648 825 
Q 2906 1169 2906 1791 
z
M 3481 434 
Q 3481 -459 3084 -895 
Q 2688 -1331 1869 -1331 
Q 1566 -1331 1297 -1286 
Q 1028 -1241 775 -1147 
L 775 -588 
Q 1028 -725 1275 -790 
Q 1522 -856 1778 -856 
Q 2344 -856 2625 -561 
Q 2906 -266 2906 331 
L 2906 616 
Q 2728 306 2450 153 
Q 2172 0 1784 0 
Q 1141 0 747 490 
Q 353 981 353 1791 
Q 353 2603 747 3093 
Q 1141 3584 1784 3584 
Q 2172 3584 2450 3431 
Q 2728 3278 2906 2969 
L 2906 3500 
L 3481 3500 
L 3481 434 
z
" transform="scale(0.015625)"/>
       <path id="DejaVuSans-72" d="M 2631 2963 
Q 2534 3019 2420 3045 
Q 2306 3072 2169 3072 
Q 1681 3072 1420 2755 
Q 1159 2438 1159 1844 
L 1159 0 
L 581 0 
L 581 3500 
L 1159 3500 
L 1159 2956 
Q 1341 3275 1631 3429 
Q 1922 3584 2338 3584 
Q 2397 3584 2469 3576 
Q 2541 3569 2628 3553 
L 2631 2963 
z
" transform="scale(0.015625)"/>
       <path id="DejaVuSans-2d" d="M 313 2009 
L 1997 2009 
L 1997 1497 
L 313 1497 
L 313 2009 
z
" transform="scale(0.015625)"/>
       <path id="DejaVuSans-39" d="M 703 97 
L 703 672 
Q 941 559 1184 500 
Q 1428 441 1663 441 
Q 2288 441 2617 861 
Q 2947 1281 2994 2138 
Q 2813 1869 2534 1725 
Q 2256 1581 1919 1581 
Q 1219 1581 811 2004 
Q 403 2428 403 3163 
Q 403 3881 828 4315 
Q 1253 4750 1959 4750 
Q 2769 4750 3195 4129 
Q 3622 3509 3622 2328 
Q 3622 1225 3098 567 
Q 2575 -91 1691 -91 
Q 1453 -91 1209 -44 
Q 966 3 703 97 
z
M 1959 2075 
Q 2384 2075 2632 2365 
Q 2881 2656 2881 3163 
Q 2881 3666 2632 3958 
Q 2384 4250 1959 4250 
Q 1534 4250 1286 3958 
Q 1038 3666 1038 3163 
Q 1038 2656 1286 2365 
Q 1534 2075 1959 2075 
z
" transform="scale(0.015625)"/>
      </defs>
      <use xlink:href="#DejaVuSans-41"/>
      <use xlink:href="#DejaVuSans-67" x="68.408203"/>
      <use xlink:href="#DejaVuSans-65" x="131.884766"/>
      <use xlink:href="#DejaVuSans-20" x="193.408203"/>
      <use xlink:href="#DejaVuSans-72" x="225.195312"/>
      <use xlink:href="#DejaVuSans-61" x="266.308594"/>
      <use xlink:href="#DejaVuSans-6e" x="327.587891"/>
      <use xlink:href="#DejaVuSans-67" x="390.966797"/>
      <use xlink:href="#DejaVuSans-65" x="454.443359"/>
      <use xlink:href="#DejaVuSans-20" x="515.966797"/>
      <use xlink:href="#DejaVuSans-30" x="547.753906"/>
      <use xlink:href="#DejaVuSans-2d" x="611.376953"/>
      <use xlink:href="#DejaVuSans-39" x="647.460938"/>
     </g>
    </g>
    <g id="line2d_21">
     <path d="M 61.26 46.291875 
L 73.26 46.291875 
L 85.26 46.291875 
" style="fill: none; stroke: #ff7f0e; stroke-width: 1.5; stroke-linecap: square"/>
     <g>
      <use xlink:href="#ma6b9e641d5" x="73.26" y="46.291875" style="fill: #ff7f0e; stroke: #ff7f0e"/>
     </g>
    </g>
    <g id="text_19">
     <!-- Age range 10-19 -->
     <g transform="translate(94.86 50.491875)scale(0.12 -0.12)">
      <use xlink:href="#DejaVuSans-41"/>
      <use xlink:href="#DejaVuSans-67" x="68.408203"/>
      <use xlink:href="#DejaVuSans-65" x="131.884766"/>
      <use xlink:href="#DejaVuSans-20" x="193.408203"/>
      <use xlink:href="#DejaVuSans-72" x="225.195312"/>
      <use xlink:href="#DejaVuSans-61" x="266.308594"/>
      <use xlink:href="#DejaVuSans-6e" x="327.587891"/>
      <use xlink:href="#DejaVuSans-67" x="390.966797"/>
      <use xlink:href="#DejaVuSans-65" x="454.443359"/>
      <use xlink:href="#DejaVuSans-20" x="515.966797"/>
      <use xlink:href="#DejaVuSans-31" x="547.753906"/>
      <use xlink:href="#DejaVuSans-30" x="611.376953"/>
      <use xlink:href="#DejaVuSans-2d" x="675"/>
      <use xlink:href="#DejaVuSans-31" x="711.083984"/>
      <use xlink:href="#DejaVuSans-39" x="774.707031"/>
     </g>
    </g>
   </g>
  </g>
 </g>
 <defs>
  <clipPath id="p0db08c5c6a">
   <rect x="50.46" y="12.96" width="656.58" height="314.08"/>
  </clipPath>
 </defs>
</svg>
