<?xml version="1.0" encoding="utf-8" standalone="no"?>
<!DOCTYPE svg PUBLIC "-//W3C//DTD SVG 1.1//EN"
  "http://www.w3.org/Graphics/SVG/1.1/DTD/svg11.dtd">
<svg xmlns:xlink="http://www.w3.org/1999/xlink" width="720pt" height="360pt" viewBox="0 0 720 360" xmlns="http://www.w3.org/2000/svg" version="1.1">
 <metadata>
  <rdf:RDF xmlns:dc="http://purl.org/dc/elements/1.1/" xmlns:cc="http://creativecommons.org/ns#" xmlns:rdf="http://www.w3.org/1999/02/22-rdf-syntax-ns#">
   <cc:Work>
    <dc:type rdf:resource="http://purl.org/dc/dcmitype/StillImage"/>
    <dc:date>2022-03-24T01:42:39.192465</dc:date>
    <dc:format>image/svg+xml</dc:format>
    <dc:creator>
     <cc:Agent>
      <dc:title>Matplotlib v3.5.1, https://matplotlib.org/</dc:title>
     </cc:Agent>
    </dc:creator>
   </cc:Work>
  </rdf:RDF>
 </metadata>
 <defs>
  <style type="text/css">*{stroke-linejoin: round; stroke-linecap: butt}</style>
 </defs>
 <g id="figure_1">
  <g id="patch_1">
   <path d="M 0 360 
L 720 360 
L 720 0 
L 0 0 
L 0 360 
z
" style="fill: none"/>
  </g>
  <g id="axes_1">
   <g id="patch_2">
    <path d="M 50.46 327.04 
L 707.04 327.04 
L 707.04 12.96 
L 50.46 12.96 
z
" style="fill: #ffffff"/>
   </g>
   <g id="matplotlib.axis_1">
    <g id="xtick_1">
     <g id="line2d_1">
      <defs>
       <path id="m0f09b32976" d="M 0 0 
L 0 3.5 
" style="stroke: #000000; stroke-width: 0.8"/>
      </defs>
      <g>
       <use xlink:href="#m0f09b32976" x="80.304545" y="327.04" style="stroke: #000000; stroke-width: 0.8"/>
      </g>
     </g>
     <g id="text_1">
      <!-- Dec 05 -->
      <g transform="translate(59.151733 343.158125)scale(0.12 -0.12)">
       <defs>
        <path id="DejaVuSans-44" d="M 1259 4147 
L 1259 519 
L 2022 519 
Q 2988 519 3436 956 
Q 3884 1394 3884 2338 
Q 3884 3275 3436 3711 
Q 2988 4147 2022 4147 
L 1259 4147 
z
M 628 4666 
L 1925 4666 
Q 3281 4666 3915 4102 
Q 4550 3538 4550 2338 
Q 4550 1131 3912 565 
Q 3275 0 1925 0 
L 628 0 
L 628 4666 
z
" transform="scale(0.015625)"/>
        <path id="DejaVuSans-65" d="M 3597 1894 
L 3597 1613 
L 953 1613 
Q 991 1019 1311 708 
Q 1631 397 2203 397 
Q 2534 397 2845 478 
Q 3156 559 3463 722 
L 3463 178 
Q 3153 47 2828 -22 
Q 2503 -91 2169 -91 
Q 1331 -91 842 396 
Q 353 884 353 1716 
Q 353 2575 817 3079 
Q 1281 3584 2069 3584 
Q 2775 3584 3186 3129 
Q 3597 2675 3597 1894 
z
M 3022 2063 
Q 3016 2534 2758 2815 
Q 2500 3097 2075 3097 
Q 1594 3097 1305 2825 
Q 1016 2553 972 2059 
L 3022 2063 
z
" transform="scale(0.015625)"/>
        <path id="DejaVuSans-63" d="M 3122 3366 
L 3122 2828 
Q 2878 2963 2633 3030 
Q 2388 3097 2138 3097 
Q 1578 3097 1268 2742 
Q 959 2388 959 1747 
Q 959 1106 1268 751 
Q 1578 397 2138 397 
Q 2388 397 2633 464 
Q 2878 531 3122 666 
L 3122 134 
Q 2881 22 2623 -34 
Q 2366 -91 2075 -91 
Q 1284 -91 818 406 
Q 353 903 353 1747 
Q 353 2603 823 3093 
Q 1294 3584 2113 3584 
Q 2378 3584 2631 3529 
Q 2884 3475 3122 3366 
z
" transform="scale(0.015625)"/>
        <path id="DejaVuSans-20" transform="scale(0.015625)"/>
        <path id="DejaVuSans-30" d="M 2034 4250 
Q 1547 4250 1301 3770 
Q 1056 3291 1056 2328 
Q 1056 1369 1301 889 
Q 1547 409 2034 409 
Q 2525 409 2770 889 
Q 3016 1369 3016 2328 
Q 3016 3291 2770 3770 
Q 2525 4250 2034 4250 
z
M 2034 4750 
Q 2819 4750 3233 4129 
Q 3647 3509 3647 2328 
Q 3647 1150 3233 529 
Q 2819 -91 2034 -91 
Q 1250 -91 836 529 
Q 422 1150 422 2328 
Q 422 3509 836 4129 
Q 1250 4750 2034 4750 
z
" transform="scale(0.015625)"/>
        <path id="DejaVuSans-35" d="M 691 4666 
L 3169 4666 
L 3169 4134 
L 1269 4134 
L 1269 2991 
Q 1406 3038 1543 3061 
Q 1681 3084 1819 3084 
Q 2600 3084 3056 2656 
Q 3513 2228 3513 1497 
Q 3513 744 3044 326 
Q 2575 -91 1722 -91 
Q 1428 -91 1123 -41 
Q 819 9 494 109 
L 494 744 
Q 775 591 1075 516 
Q 1375 441 1709 441 
Q 2250 441 2565 725 
Q 2881 1009 2881 1497 
Q 2881 1984 2565 2268 
Q 2250 2553 1709 2553 
Q 1456 2553 1204 2497 
Q 953 2441 691 2322 
L 691 4666 
z
" transform="scale(0.015625)"/>
       </defs>
       <use xlink:href="#DejaVuSans-44"/>
       <use xlink:href="#DejaVuSans-65" x="77.001953"/>
       <use xlink:href="#DejaVuSans-63" x="138.525391"/>
       <use xlink:href="#DejaVuSans-20" x="193.505859"/>
       <use xlink:href="#DejaVuSans-30" x="225.292969"/>
       <use xlink:href="#DejaVuSans-35" x="288.916016"/>
      </g>
     </g>
    </g>
    <g id="xtick_2">
     <g id="line2d_2">
      <g>
       <use xlink:href="#m0f09b32976" x="152.152525" y="327.04" style="stroke: #000000; stroke-width: 0.8"/>
      </g>
     </g>
     <g id="text_2">
      <!-- Dec 18 -->
      <g transform="translate(130.999713 343.158125)scale(0.12 -0.12)">
       <defs>
        <path id="DejaVuSans-31" d="M 794 531 
L 1825 531 
L 1825 4091 
L 703 3866 
L 703 4441 
L 1819 4666 
L 2450 4666 
L 2450 531 
L 3481 531 
L 3481 0 
L 794 0 
L 794 531 
z
" transform="scale(0.015625)"/>
        <path id="DejaVuSans-38" d="M 2034 2216 
Q 1584 2216 1326 1975 
Q 1069 1734 1069 1313 
Q 1069 891 1326 650 
Q 1584 409 2034 409 
Q 2484 409 2743 651 
Q 3003 894 3003 1313 
Q 3003 1734 2745 1975 
Q 2488 2216 2034 2216 
z
M 1403 2484 
Q 997 2584 770 2862 
Q 544 3141 544 3541 
Q 544 4100 942 4425 
Q 1341 4750 2034 4750 
Q 2731 4750 3128 4425 
Q 3525 4100 3525 3541 
Q 3525 3141 3298 2862 
Q 3072 2584 2669 2484 
Q 3125 2378 3379 2068 
Q 3634 1759 3634 1313 
Q 3634 634 3220 271 
Q 2806 -91 2034 -91 
Q 1263 -91 848 271 
Q 434 634 434 1313 
Q 434 1759 690 2068 
Q 947 2378 1403 2484 
z
M 1172 3481 
Q 1172 3119 1398 2916 
Q 1625 2713 2034 2713 
Q 2441 2713 2670 2916 
Q 2900 3119 2900 3481 
Q 2900 3844 2670 4047 
Q 2441 4250 2034 4250 
Q 1625 4250 1398 4047 
Q 1172 3844 1172 3481 
z
" transform="scale(0.015625)"/>
       </defs>
       <use xlink:href="#DejaVuSans-44"/>
       <use xlink:href="#DejaVuSans-65" x="77.001953"/>
       <use xlink:href="#DejaVuSans-63" x="138.525391"/>
       <use xlink:href="#DejaVuSans-20" x="193.505859"/>
       <use xlink:href="#DejaVuSans-31" x="225.292969"/>
       <use xlink:href="#DejaVuSans-38" x="288.916016"/>
      </g>
     </g>
    </g>
    <g id="xtick_3">
     <g id="line2d_3">
      <g>
       <use xlink:href="#m0f09b32976" x="224.000505" y="327.04" style="stroke: #000000; stroke-width: 0.8"/>
      </g>
     </g>
     <g id="text_3">
      <!-- Dec 31 -->
      <g transform="translate(202.847693 343.158125)scale(0.12 -0.12)">
       <defs>
        <path id="DejaVuSans-33" d="M 2597 2516 
Q 3050 2419 3304 2112 
Q 3559 1806 3559 1356 
Q 3559 666 3084 287 
Q 2609 -91 1734 -91 
Q 1441 -91 1130 -33 
Q 819 25 488 141 
L 488 750 
Q 750 597 1062 519 
Q 1375 441 1716 441 
Q 2309 441 2620 675 
Q 2931 909 2931 1356 
Q 2931 1769 2642 2001 
Q 2353 2234 1838 2234 
L 1294 2234 
L 1294 2753 
L 1863 2753 
Q 2328 2753 2575 2939 
Q 2822 3125 2822 3475 
Q 2822 3834 2567 4026 
Q 2313 4219 1838 4219 
Q 1578 4219 1281 4162 
Q 984 4106 628 3988 
L 628 4550 
Q 988 4650 1302 4700 
Q 1616 4750 1894 4750 
Q 2613 4750 3031 4423 
Q 3450 4097 3450 3541 
Q 3450 3153 3228 2886 
Q 3006 2619 2597 2516 
z
" transform="scale(0.015625)"/>
       </defs>
       <use xlink:href="#DejaVuSans-44"/>
       <use xlink:href="#DejaVuSans-65" x="77.001953"/>
       <use xlink:href="#DejaVuSans-63" x="138.525391"/>
       <use xlink:href="#DejaVuSans-20" x="193.505859"/>
       <use xlink:href="#DejaVuSans-33" x="225.292969"/>
       <use xlink:href="#DejaVuSans-31" x="288.916016"/>
      </g>
     </g>
    </g>
    <g id="xtick_4">
     <g id="line2d_4">
      <g>
       <use xlink:href="#m0f09b32976" x="295.848485" y="327.04" style="stroke: #000000; stroke-width: 0.8"/>
      </g>
     </g>
     <g id="text_4">
      <!-- Jan 13 -->
      <g transform="translate(277.057235 343.158125)scale(0.12 -0.12)">
       <defs>
        <path id="DejaVuSans-4a" d="M 628 4666 
L 1259 4666 
L 1259 325 
Q 1259 -519 939 -900 
Q 619 -1281 -91 -1281 
L -331 -1281 
L -331 -750 
L -134 -750 
Q 284 -750 456 -515 
Q 628 -281 628 325 
L 628 4666 
z
" transform="scale(0.015625)"/>
        <path id="DejaVuSans-61" d="M 2194 1759 
Q 1497 1759 1228 1600 
Q 959 1441 959 1056 
Q 959 750 1161 570 
Q 1363 391 1709 391 
Q 2188 391 2477 730 
Q 2766 1069 2766 1631 
L 2766 1759 
L 2194 1759 
z
M 3341 1997 
L 3341 0 
L 2766 0 
L 2766 531 
Q 2569 213 2275 61 
Q 1981 -91 1556 -91 
Q 1019 -91 701 211 
Q 384 513 384 1019 
Q 384 1609 779 1909 
Q 1175 2209 1959 2209 
L 2766 2209 
L 2766 2266 
Q 2766 2663 2505 2880 
Q 2244 3097 1772 3097 
Q 1472 3097 1187 3025 
Q 903 2953 641 2809 
L 641 3341 
Q 956 3463 1253 3523 
Q 1550 3584 1831 3584 
Q 2591 3584 2966 3190 
Q 3341 2797 3341 1997 
z
" transform="scale(0.015625)"/>
        <path id="DejaVuSans-6e" d="M 3513 2113 
L 3513 0 
L 2938 0 
L 2938 2094 
Q 2938 2591 2744 2837 
Q 2550 3084 2163 3084 
Q 1697 3084 1428 2787 
Q 1159 2491 1159 1978 
L 1159 0 
L 581 0 
L 581 3500 
L 1159 3500 
L 1159 2956 
Q 1366 3272 1645 3428 
Q 1925 3584 2291 3584 
Q 2894 3584 3203 3211 
Q 3513 2838 3513 2113 
z
" transform="scale(0.015625)"/>
       </defs>
       <use xlink:href="#DejaVuSans-4a"/>
       <use xlink:href="#DejaVuSans-61" x="29.492188"/>
       <use xlink:href="#DejaVuSans-6e" x="90.771484"/>
       <use xlink:href="#DejaVuSans-20" x="154.150391"/>
       <use xlink:href="#DejaVuSans-31" x="185.9375"/>
       <use xlink:href="#DejaVuSans-33" x="249.560547"/>
      </g>
     </g>
    </g>
    <g id="xtick_5">
     <g id="line2d_5">
      <g>
       <use xlink:href="#m0f09b32976" x="367.696465" y="327.04" style="stroke: #000000; stroke-width: 0.8"/>
      </g>
     </g>
     <g id="text_5">
      <!-- Jan 26 -->
      <g transform="translate(348.905215 343.158125)scale(0.12 -0.12)">
       <defs>
        <path id="DejaVuSans-32" d="M 1228 531 
L 3431 531 
L 3431 0 
L 469 0 
L 469 531 
Q 828 903 1448 1529 
Q 2069 2156 2228 2338 
Q 2531 2678 2651 2914 
Q 2772 3150 2772 3378 
Q 2772 3750 2511 3984 
Q 2250 4219 1831 4219 
Q 1534 4219 1204 4116 
Q 875 4013 500 3803 
L 500 4441 
Q 881 4594 1212 4672 
Q 1544 4750 1819 4750 
Q 2544 4750 2975 4387 
Q 3406 4025 3406 3419 
Q 3406 3131 3298 2873 
Q 3191 2616 2906 2266 
Q 2828 2175 2409 1742 
Q 1991 1309 1228 531 
z
" transform="scale(0.015625)"/>
        <path id="DejaVuSans-36" d="M 2113 2584 
Q 1688 2584 1439 2293 
Q 1191 2003 1191 1497 
Q 1191 994 1439 701 
Q 1688 409 2113 409 
Q 2538 409 2786 701 
Q 3034 994 3034 1497 
Q 3034 2003 2786 2293 
Q 2538 2584 2113 2584 
z
M 3366 4563 
L 3366 3988 
Q 3128 4100 2886 4159 
Q 2644 4219 2406 4219 
Q 1781 4219 1451 3797 
Q 1122 3375 1075 2522 
Q 1259 2794 1537 2939 
Q 1816 3084 2150 3084 
Q 2853 3084 3261 2657 
Q 3669 2231 3669 1497 
Q 3669 778 3244 343 
Q 2819 -91 2113 -91 
Q 1303 -91 875 529 
Q 447 1150 447 2328 
Q 447 3434 972 4092 
Q 1497 4750 2381 4750 
Q 2619 4750 2861 4703 
Q 3103 4656 3366 4563 
z
" transform="scale(0.015625)"/>
       </defs>
       <use xlink:href="#DejaVuSans-4a"/>
       <use xlink:href="#DejaVuSans-61" x="29.492188"/>
       <use xlink:href="#DejaVuSans-6e" x="90.771484"/>
       <use xlink:href="#DejaVuSans-20" x="154.150391"/>
       <use xlink:href="#DejaVuSans-32" x="185.9375"/>
       <use xlink:href="#DejaVuSans-36" x="249.560547"/>
      </g>
     </g>
    </g>
    <g id="xtick_6">
     <g id="line2d_6">
      <g>
       <use xlink:href="#m0f09b32976" x="439.544444" y="327.04" style="stroke: #000000; stroke-width: 0.8"/>
      </g>
     </g>
     <g id="text_6">
      <!-- Feb 08 -->
      <g transform="translate(419.380694 343.158125)scale(0.12 -0.12)">
       <defs>
        <path id="DejaVuSans-46" d="M 628 4666 
L 3309 4666 
L 3309 4134 
L 1259 4134 
L 1259 2759 
L 3109 2759 
L 3109 2228 
L 1259 2228 
L 1259 0 
L 628 0 
L 628 4666 
z
" transform="scale(0.015625)"/>
        <path id="DejaVuSans-62" d="M 3116 1747 
Q 3116 2381 2855 2742 
Q 2594 3103 2138 3103 
Q 1681 3103 1420 2742 
Q 1159 2381 1159 1747 
Q 1159 1113 1420 752 
Q 1681 391 2138 391 
Q 2594 391 2855 752 
Q 3116 1113 3116 1747 
z
M 1159 2969 
Q 1341 3281 1617 3432 
Q 1894 3584 2278 3584 
Q 2916 3584 3314 3078 
Q 3713 2572 3713 1747 
Q 3713 922 3314 415 
Q 2916 -91 2278 -91 
Q 1894 -91 1617 61 
Q 1341 213 1159 525 
L 1159 0 
L 581 0 
L 581 4863 
L 1159 4863 
L 1159 2969 
z
" transform="scale(0.015625)"/>
       </defs>
       <use xlink:href="#DejaVuSans-46"/>
       <use xlink:href="#DejaVuSans-65" x="52.019531"/>
       <use xlink:href="#DejaVuSans-62" x="113.542969"/>
       <use xlink:href="#DejaVuSans-20" x="177.019531"/>
       <use xlink:href="#DejaVuSans-30" x="208.806641"/>
       <use xlink:href="#DejaVuSans-38" x="272.429688"/>
      </g>
     </g>
    </g>
    <g id="xtick_7">
     <g id="line2d_7">
      <g>
       <use xlink:href="#m0f09b32976" x="511.392424" y="327.04" style="stroke: #000000; stroke-width: 0.8"/>
      </g>
     </g>
     <g id="text_7">
      <!-- Feb 21 -->
      <g transform="translate(491.228674 343.158125)scale(0.12 -0.12)">
       <use xlink:href="#DejaVuSans-46"/>
       <use xlink:href="#DejaVuSans-65" x="52.019531"/>
       <use xlink:href="#DejaVuSans-62" x="113.542969"/>
       <use xlink:href="#DejaVuSans-20" x="177.019531"/>
       <use xlink:href="#DejaVuSans-32" x="208.806641"/>
       <use xlink:href="#DejaVuSans-31" x="272.429688"/>
      </g>
     </g>
    </g>
    <g id="xtick_8">
     <g id="line2d_8">
      <g>
       <use xlink:href="#m0f09b32976" x="583.240404" y="327.04" style="stroke: #000000; stroke-width: 0.8"/>
      </g>
     </g>
     <g id="text_8">
      <!-- Mar 06 -->
      <g transform="translate(562.378217 343.158125)scale(0.12 -0.12)">
       <defs>
        <path id="DejaVuSans-4d" d="M 628 4666 
L 1569 4666 
L 2759 1491 
L 3956 4666 
L 4897 4666 
L 4897 0 
L 4281 0 
L 4281 4097 
L 3078 897 
L 2444 897 
L 1241 4097 
L 1241 0 
L 628 0 
L 628 4666 
z
" transform="scale(0.015625)"/>
        <path id="DejaVuSans-72" d="M 2631 2963 
Q 2534 3019 2420 3045 
Q 2306 3072 2169 3072 
Q 1681 3072 1420 2755 
Q 1159 2438 1159 1844 
L 1159 0 
L 581 0 
L 581 3500 
L 1159 3500 
L 1159 2956 
Q 1341 3275 1631 3429 
Q 1922 3584 2338 3584 
Q 2397 3584 2469 3576 
Q 2541 3569 2628 3553 
L 2631 2963 
z
" transform="scale(0.015625)"/>
       </defs>
       <use xlink:href="#DejaVuSans-4d"/>
       <use xlink:href="#DejaVuSans-61" x="86.279297"/>
       <use xlink:href="#DejaVuSans-72" x="147.558594"/>
       <use xlink:href="#DejaVuSans-20" x="188.671875"/>
       <use xlink:href="#DejaVuSans-30" x="220.458984"/>
       <use xlink:href="#DejaVuSans-36" x="284.082031"/>
      </g>
     </g>
    </g>
    <g id="xtick_9">
     <g id="line2d_9">
      <g>
       <use xlink:href="#m0f09b32976" x="655.088384" y="327.04" style="stroke: #000000; stroke-width: 0.8"/>
      </g>
     </g>
     <g id="text_9">
      <!-- Mar 19 -->
      <g transform="translate(634.226196 343.158125)scale(0.12 -0.12)">
       <defs>
        <path id="DejaVuSans-39" d="M 703 97 
L 703 672 
Q 941 559 1184 500 
Q 1428 441 1663 441 
Q 2288 441 2617 861 
Q 2947 1281 2994 2138 
Q 2813 1869 2534 1725 
Q 2256 1581 1919 1581 
Q 1219 1581 811 2004 
Q 403 2428 403 3163 
Q 403 3881 828 4315 
Q 1253 4750 1959 4750 
Q 2769 4750 3195 4129 
Q 3622 3509 3622 2328 
Q 3622 1225 3098 567 
Q 2575 -91 1691 -91 
Q 1453 -91 1209 -44 
Q 966 3 703 97 
z
M 1959 2075 
Q 2384 2075 2632 2365 
Q 2881 2656 2881 3163 
Q 2881 3666 2632 3958 
Q 2384 4250 1959 4250 
Q 1534 4250 1286 3958 
Q 1038 3666 1038 3163 
Q 1038 2656 1286 2365 
Q 1534 2075 1959 2075 
z
" transform="scale(0.015625)"/>
       </defs>
       <use xlink:href="#DejaVuSans-4d"/>
       <use xlink:href="#DejaVuSans-61" x="86.279297"/>
       <use xlink:href="#DejaVuSans-72" x="147.558594"/>
       <use xlink:href="#DejaVuSans-20" x="188.671875"/>
       <use xlink:href="#DejaVuSans-31" x="220.458984"/>
       <use xlink:href="#DejaVuSans-39" x="284.082031"/>
      </g>
     </g>
    </g>
   </g>
   <g id="matplotlib.axis_2">
    <g id="ytick_1">
     <g id="line2d_10">
      <defs>
       <path id="medf77dc660" d="M 0 0 
L -3.5 0 
" style="stroke: #000000; stroke-width: 0.8"/>
      </defs>
      <g>
       <use xlink:href="#medf77dc660" x="50.46" y="327.04" style="stroke: #000000; stroke-width: 0.8"/>
      </g>
     </g>
     <g id="text_10">
      <!-- 0 -->
      <g transform="translate(35.825 331.599063)scale(0.12 -0.12)">
       <use xlink:href="#DejaVuSans-30"/>
      </g>
     </g>
    </g>
    <g id="ytick_2">
     <g id="line2d_11">
      <g>
       <use xlink:href="#medf77dc660" x="50.46" y="285.116271" style="stroke: #000000; stroke-width: 0.8"/>
      </g>
     </g>
     <g id="text_11">
      <!-- 500 -->
      <g transform="translate(20.555 289.675334)scale(0.12 -0.12)">
       <use xlink:href="#DejaVuSans-35"/>
       <use xlink:href="#DejaVuSans-30" x="63.623047"/>
       <use xlink:href="#DejaVuSans-30" x="127.246094"/>
      </g>
     </g>
    </g>
    <g id="ytick_3">
     <g id="line2d_12">
      <g>
       <use xlink:href="#medf77dc660" x="50.46" y="243.192542" style="stroke: #000000; stroke-width: 0.8"/>
      </g>
     </g>
     <g id="text_12">
      <!-- 1000 -->
      <g transform="translate(12.92 247.751605)scale(0.12 -0.12)">
       <use xlink:href="#DejaVuSans-31"/>
       <use xlink:href="#DejaVuSans-30" x="63.623047"/>
       <use xlink:href="#DejaVuSans-30" x="127.246094"/>
       <use xlink:href="#DejaVuSans-30" x="190.869141"/>
      </g>
     </g>
    </g>
    <g id="ytick_4">
     <g id="line2d_13">
      <g>
       <use xlink:href="#medf77dc660" x="50.46" y="201.268813" style="stroke: #000000; stroke-width: 0.8"/>
      </g>
     </g>
     <g id="text_13">
      <!-- 1500 -->
      <g transform="translate(12.92 205.827876)scale(0.12 -0.12)">
       <use xlink:href="#DejaVuSans-31"/>
       <use xlink:href="#DejaVuSans-35" x="63.623047"/>
       <use xlink:href="#DejaVuSans-30" x="127.246094"/>
       <use xlink:href="#DejaVuSans-30" x="190.869141"/>
      </g>
     </g>
    </g>
    <g id="ytick_5">
     <g id="line2d_14">
      <g>
       <use xlink:href="#medf77dc660" x="50.46" y="159.345084" style="stroke: #000000; stroke-width: 0.8"/>
      </g>
     </g>
     <g id="text_14">
      <!-- 2000 -->
      <g transform="translate(12.92 163.904147)scale(0.12 -0.12)">
       <use xlink:href="#DejaVuSans-32"/>
       <use xlink:href="#DejaVuSans-30" x="63.623047"/>
       <use xlink:href="#DejaVuSans-30" x="127.246094"/>
       <use xlink:href="#DejaVuSans-30" x="190.869141"/>
      </g>
     </g>
    </g>
    <g id="ytick_6">
     <g id="line2d_15">
      <g>
       <use xlink:href="#medf77dc660" x="50.46" y="117.421355" style="stroke: #000000; stroke-width: 0.8"/>
      </g>
     </g>
     <g id="text_15">
      <!-- 2500 -->
      <g transform="translate(12.92 121.980418)scale(0.12 -0.12)">
       <use xlink:href="#DejaVuSans-32"/>
       <use xlink:href="#DejaVuSans-35" x="63.623047"/>
       <use xlink:href="#DejaVuSans-30" x="127.246094"/>
       <use xlink:href="#DejaVuSans-30" x="190.869141"/>
      </g>
     </g>
    </g>
    <g id="ytick_7">
     <g id="line2d_16">
      <g>
       <use xlink:href="#medf77dc660" x="50.46" y="75.497626" style="stroke: #000000; stroke-width: 0.8"/>
      </g>
     </g>
     <g id="text_16">
      <!-- 3000 -->
      <g transform="translate(12.92 80.056689)scale(0.12 -0.12)">
       <use xlink:href="#DejaVuSans-33"/>
       <use xlink:href="#DejaVuSans-30" x="63.623047"/>
       <use xlink:href="#DejaVuSans-30" x="127.246094"/>
       <use xlink:href="#DejaVuSans-30" x="190.869141"/>
      </g>
     </g>
    </g>
    <g id="ytick_8">
     <g id="line2d_17">
      <g>
       <use xlink:href="#medf77dc660" x="50.46" y="33.573898" style="stroke: #000000; stroke-width: 0.8"/>
      </g>
     </g>
     <g id="text_17">
      <!-- 3500 -->
      <g transform="translate(12.92 38.13296)scale(0.12 -0.12)">
       <use xlink:href="#DejaVuSans-33"/>
       <use xlink:href="#DejaVuSans-35" x="63.623047"/>
       <use xlink:href="#DejaVuSans-30" x="127.246094"/>
       <use xlink:href="#DejaVuSans-30" x="190.869141"/>
      </g>
     </g>
    </g>
   </g>
   <g id="line2d_18">
    <path d="M 80.304545 313.792102 
L 85.831313 310.018966 
L 91.358081 310.270508 
L 96.884848 303.730407 
L 102.411616 308.677407 
L 107.938384 310.773593 
L 113.465152 311.695915 
L 118.991919 310.438203 
L 124.518687 306.58122 
L 130.045455 307.419695 
L 135.572222 299.118797 
L 141.09899 299.118797 
L 146.625758 306.24583 
L 152.152525 304.317339 
L 157.679293 308.509712 
L 163.206061 305.910441 
L 168.732828 307.168152 
L 174.259596 304.988119 
L 179.786364 304.820424 
L 185.313131 306.748915 
L 190.839899 306.413525 
L 196.366667 312.785932 
L 201.893434 310.186661 
L 207.420202 305.239661 
L 212.94697 302.724237 
L 218.473737 298.364169 
L 224.000505 299.286491 
L 229.527273 298.112627 
L 235.05404 294.255644 
L 240.580808 288.470169 
L 246.107576 271.61683 
L 251.634343 259.207407 
L 257.161111 261.135898 
L 262.687879 263.819017 
L 268.214646 229.776949 
L 273.741414 227.009983 
L 279.268182 246.88183 
L 284.794949 220.721423 
L 290.321717 207.725067 
L 295.848485 208.815084 
L 301.375253 209.569712 
L 306.90202 244.031017 
L 312.428788 165.046711 
L 317.955556 206.131966 
L 323.482323 238.161695 
L 329.009091 220.050644 
L 334.535859 211.414356 
L 340.062626 227.596915 
L 345.589394 225.249186 
L 351.116162 242.773305 
L 356.642929 266.418288 
L 362.169697 239.670949 
L 367.696465 246.88183 
L 373.223232 254.428101 
L 378.75 264.322102 
L 384.276768 254.763491 
L 389.803535 268.598322 
L 395.330303 274.803034 
L 400.857071 273.545322 
L 406.383838 258.033542 
L 411.910606 270.359118 
L 417.437374 276.479983 
L 422.964141 286.709373 
L 428.490909 284.277796 
L 434.017677 285.116271 
L 439.544444 274.886881 
L 445.071212 269.101407 
L 450.59798 278.408474 
L 456.124747 281.007746 
L 461.651515 287.631695 
L 467.178283 288.302474 
L 472.705051 288.973254 
L 478.231818 285.954746 
L 483.758586 276.060746 
L 489.285354 280.504661 
L 494.812121 291.069441 
L 500.338889 295.513356 
L 505.865657 299.202644 
L 511.392424 300.711898 
L 516.919192 296.016441 
L 522.44596 289.392491 
L 527.972727 297.274152 
L 533.499495 298.112627 
L 539.026263 296.771068 
L 544.55303 302.388847 
L 550.079798 303.898102 
L 555.606566 303.898102 
L 561.133333 298.364169 
L 566.660101 305.071966 
L 572.186869 302.137305 
L 577.713636 307.671237 
L 583.240404 310.102814 
L 588.767172 309.767424 
L 594.293939 305.994288 
L 599.820707 304.317339 
L 605.347475 305.910441 
L 610.874242 305.658898 
L 616.40101 305.826593 
L 621.927778 309.264339 
L 627.454545 312.450542 
L 632.981313 309.096644 
L 638.508081 306.161983 
L 644.034848 295.681051 
L 649.561616 300.628051 
L 655.088384 302.891932 
L 660.615152 308.174322 
L 666.141919 308.593559 
L 671.668687 306.832763 
L 677.195455 300.795746 
" clip-path="url(#p678cc2fea5)" style="fill: none; stroke: #1f77b4; stroke-width: 1.5; stroke-linecap: square"/>
    <defs>
     <path id="m73c997a2a1" d="M 0 3 
C 0.795609 3 1.55874 2.683901 2.12132 2.12132 
C 2.683901 1.55874 3 0.795609 3 0 
C 3 -0.795609 2.683901 -1.55874 2.12132 -2.12132 
C 1.55874 -2.683901 0.795609 -3 0 -3 
C -0.795609 -3 -1.55874 -2.683901 -2.12132 -2.12132 
C -2.683901 -1.55874 -3 -0.795609 -3 0 
C -3 0.795609 -2.683901 1.55874 -2.12132 2.12132 
C -1.55874 2.683901 -0.795609 3 0 3 
z
" style="stroke: #1f77b4"/>
    </defs>
    <g clip-path="url(#p678cc2fea5)">
     <use xlink:href="#m73c997a2a1" x="80.304545" y="313.792102" style="fill: #1f77b4; stroke: #1f77b4"/>
     <use xlink:href="#m73c997a2a1" x="85.831313" y="310.018966" style="fill: #1f77b4; stroke: #1f77b4"/>
     <use xlink:href="#m73c997a2a1" x="91.358081" y="310.270508" style="fill: #1f77b4; stroke: #1f77b4"/>
     <use xlink:href="#m73c997a2a1" x="96.884848" y="303.730407" style="fill: #1f77b4; stroke: #1f77b4"/>
     <use xlink:href="#m73c997a2a1" x="102.411616" y="308.677407" style="fill: #1f77b4; stroke: #1f77b4"/>
     <use xlink:href="#m73c997a2a1" x="107.938384" y="310.773593" style="fill: #1f77b4; stroke: #1f77b4"/>
     <use xlink:href="#m73c997a2a1" x="113.465152" y="311.695915" style="fill: #1f77b4; stroke: #1f77b4"/>
     <use xlink:href="#m73c997a2a1" x="118.991919" y="310.438203" style="fill: #1f77b4; stroke: #1f77b4"/>
     <use xlink:href="#m73c997a2a1" x="124.518687" y="306.58122" style="fill: #1f77b4; stroke: #1f77b4"/>
     <use xlink:href="#m73c997a2a1" x="130.045455" y="307.419695" style="fill: #1f77b4; stroke: #1f77b4"/>
     <use xlink:href="#m73c997a2a1" x="135.572222" y="299.118797" style="fill: #1f77b4; stroke: #1f77b4"/>
     <use xlink:href="#m73c997a2a1" x="141.09899" y="299.118797" style="fill: #1f77b4; stroke: #1f77b4"/>
     <use xlink:href="#m73c997a2a1" x="146.625758" y="306.24583" style="fill: #1f77b4; stroke: #1f77b4"/>
     <use xlink:href="#m73c997a2a1" x="152.152525" y="304.317339" style="fill: #1f77b4; stroke: #1f77b4"/>
     <use xlink:href="#m73c997a2a1" x="157.679293" y="308.509712" style="fill: #1f77b4; stroke: #1f77b4"/>
     <use xlink:href="#m73c997a2a1" x="163.206061" y="305.910441" style="fill: #1f77b4; stroke: #1f77b4"/>
     <use xlink:href="#m73c997a2a1" x="168.732828" y="307.168152" style="fill: #1f77b4; stroke: #1f77b4"/>
     <use xlink:href="#m73c997a2a1" x="174.259596" y="304.988119" style="fill: #1f77b4; stroke: #1f77b4"/>
     <use xlink:href="#m73c997a2a1" x="179.786364" y="304.820424" style="fill: #1f77b4; stroke: #1f77b4"/>
     <use xlink:href="#m73c997a2a1" x="185.313131" y="306.748915" style="fill: #1f77b4; stroke: #1f77b4"/>
     <use xlink:href="#m73c997a2a1" x="190.839899" y="306.413525" style="fill: #1f77b4; stroke: #1f77b4"/>
     <use xlink:href="#m73c997a2a1" x="196.366667" y="312.785932" style="fill: #1f77b4; stroke: #1f77b4"/>
     <use xlink:href="#m73c997a2a1" x="201.893434" y="310.186661" style="fill: #1f77b4; stroke: #1f77b4"/>
     <use xlink:href="#m73c997a2a1" x="207.420202" y="305.239661" style="fill: #1f77b4; stroke: #1f77b4"/>
     <use xlink:href="#m73c997a2a1" x="212.94697" y="302.724237" style="fill: #1f77b4; stroke: #1f77b4"/>
     <use xlink:href="#m73c997a2a1" x="218.473737" y="298.364169" style="fill: #1f77b4; stroke: #1f77b4"/>
     <use xlink:href="#m73c997a2a1" x="224.000505" y="299.286491" style="fill: #1f77b4; stroke: #1f77b4"/>
     <use xlink:href="#m73c997a2a1" x="229.527273" y="298.112627" style="fill: #1f77b4; stroke: #1f77b4"/>
     <use xlink:href="#m73c997a2a1" x="235.05404" y="294.255644" style="fill: #1f77b4; stroke: #1f77b4"/>
     <use xlink:href="#m73c997a2a1" x="240.580808" y="288.470169" style="fill: #1f77b4; stroke: #1f77b4"/>
     <use xlink:href="#m73c997a2a1" x="246.107576" y="271.61683" style="fill: #1f77b4; stroke: #1f77b4"/>
     <use xlink:href="#m73c997a2a1" x="251.634343" y="259.207407" style="fill: #1f77b4; stroke: #1f77b4"/>
     <use xlink:href="#m73c997a2a1" x="257.161111" y="261.135898" style="fill: #1f77b4; stroke: #1f77b4"/>
     <use xlink:href="#m73c997a2a1" x="262.687879" y="263.819017" style="fill: #1f77b4; stroke: #1f77b4"/>
     <use xlink:href="#m73c997a2a1" x="268.214646" y="229.776949" style="fill: #1f77b4; stroke: #1f77b4"/>
     <use xlink:href="#m73c997a2a1" x="273.741414" y="227.009983" style="fill: #1f77b4; stroke: #1f77b4"/>
     <use xlink:href="#m73c997a2a1" x="279.268182" y="246.88183" style="fill: #1f77b4; stroke: #1f77b4"/>
     <use xlink:href="#m73c997a2a1" x="284.794949" y="220.721423" style="fill: #1f77b4; stroke: #1f77b4"/>
     <use xlink:href="#m73c997a2a1" x="290.321717" y="207.725067" style="fill: #1f77b4; stroke: #1f77b4"/>
     <use xlink:href="#m73c997a2a1" x="295.848485" y="208.815084" style="fill: #1f77b4; stroke: #1f77b4"/>
     <use xlink:href="#m73c997a2a1" x="301.375253" y="209.569712" style="fill: #1f77b4; stroke: #1f77b4"/>
     <use xlink:href="#m73c997a2a1" x="306.90202" y="244.031017" style="fill: #1f77b4; stroke: #1f77b4"/>
     <use xlink:href="#m73c997a2a1" x="312.428788" y="165.046711" style="fill: #1f77b4; stroke: #1f77b4"/>
     <use xlink:href="#m73c997a2a1" x="317.955556" y="206.131966" style="fill: #1f77b4; stroke: #1f77b4"/>
     <use xlink:href="#m73c997a2a1" x="323.482323" y="238.161695" style="fill: #1f77b4; stroke: #1f77b4"/>
     <use xlink:href="#m73c997a2a1" x="329.009091" y="220.050644" style="fill: #1f77b4; stroke: #1f77b4"/>
     <use xlink:href="#m73c997a2a1" x="334.535859" y="211.414356" style="fill: #1f77b4; stroke: #1f77b4"/>
     <use xlink:href="#m73c997a2a1" x="340.062626" y="227.596915" style="fill: #1f77b4; stroke: #1f77b4"/>
     <use xlink:href="#m73c997a2a1" x="345.589394" y="225.249186" style="fill: #1f77b4; stroke: #1f77b4"/>
     <use xlink:href="#m73c997a2a1" x="351.116162" y="242.773305" style="fill: #1f77b4; stroke: #1f77b4"/>
     <use xlink:href="#m73c997a2a1" x="356.642929" y="266.418288" style="fill: #1f77b4; stroke: #1f77b4"/>
     <use xlink:href="#m73c997a2a1" x="362.169697" y="239.670949" style="fill: #1f77b4; stroke: #1f77b4"/>
     <use xlink:href="#m73c997a2a1" x="367.696465" y="246.88183" style="fill: #1f77b4; stroke: #1f77b4"/>
     <use xlink:href="#m73c997a2a1" x="373.223232" y="254.428101" style="fill: #1f77b4; stroke: #1f77b4"/>
     <use xlink:href="#m73c997a2a1" x="378.75" y="264.322102" style="fill: #1f77b4; stroke: #1f77b4"/>
     <use xlink:href="#m73c997a2a1" x="384.276768" y="254.763491" style="fill: #1f77b4; stroke: #1f77b4"/>
     <use xlink:href="#m73c997a2a1" x="389.803535" y="268.598322" style="fill: #1f77b4; stroke: #1f77b4"/>
     <use xlink:href="#m73c997a2a1" x="395.330303" y="274.803034" style="fill: #1f77b4; stroke: #1f77b4"/>
     <use xlink:href="#m73c997a2a1" x="400.857071" y="273.545322" style="fill: #1f77b4; stroke: #1f77b4"/>
     <use xlink:href="#m73c997a2a1" x="406.383838" y="258.033542" style="fill: #1f77b4; stroke: #1f77b4"/>
     <use xlink:href="#m73c997a2a1" x="411.910606" y="270.359118" style="fill: #1f77b4; stroke: #1f77b4"/>
     <use xlink:href="#m73c997a2a1" x="417.437374" y="276.479983" style="fill: #1f77b4; stroke: #1f77b4"/>
     <use xlink:href="#m73c997a2a1" x="422.964141" y="286.709373" style="fill: #1f77b4; stroke: #1f77b4"/>
     <use xlink:href="#m73c997a2a1" x="428.490909" y="284.277796" style="fill: #1f77b4; stroke: #1f77b4"/>
     <use xlink:href="#m73c997a2a1" x="434.017677" y="285.116271" style="fill: #1f77b4; stroke: #1f77b4"/>
     <use xlink:href="#m73c997a2a1" x="439.544444" y="274.886881" style="fill: #1f77b4; stroke: #1f77b4"/>
     <use xlink:href="#m73c997a2a1" x="445.071212" y="269.101407" style="fill: #1f77b4; stroke: #1f77b4"/>
     <use xlink:href="#m73c997a2a1" x="450.59798" y="278.408474" style="fill: #1f77b4; stroke: #1f77b4"/>
     <use xlink:href="#m73c997a2a1" x="456.124747" y="281.007746" style="fill: #1f77b4; stroke: #1f77b4"/>
     <use xlink:href="#m73c997a2a1" x="461.651515" y="287.631695" style="fill: #1f77b4; stroke: #1f77b4"/>
     <use xlink:href="#m73c997a2a1" x="467.178283" y="288.302474" style="fill: #1f77b4; stroke: #1f77b4"/>
     <use xlink:href="#m73c997a2a1" x="472.705051" y="288.973254" style="fill: #1f77b4; stroke: #1f77b4"/>
     <use xlink:href="#m73c997a2a1" x="478.231818" y="285.954746" style="fill: #1f77b4; stroke: #1f77b4"/>
     <use xlink:href="#m73c997a2a1" x="483.758586" y="276.060746" style="fill: #1f77b4; stroke: #1f77b4"/>
     <use xlink:href="#m73c997a2a1" x="489.285354" y="280.504661" style="fill: #1f77b4; stroke: #1f77b4"/>
     <use xlink:href="#m73c997a2a1" x="494.812121" y="291.069441" style="fill: #1f77b4; stroke: #1f77b4"/>
     <use xlink:href="#m73c997a2a1" x="500.338889" y="295.513356" style="fill: #1f77b4; stroke: #1f77b4"/>
     <use xlink:href="#m73c997a2a1" x="505.865657" y="299.202644" style="fill: #1f77b4; stroke: #1f77b4"/>
     <use xlink:href="#m73c997a2a1" x="511.392424" y="300.711898" style="fill: #1f77b4; stroke: #1f77b4"/>
     <use xlink:href="#m73c997a2a1" x="516.919192" y="296.016441" style="fill: #1f77b4; stroke: #1f77b4"/>
     <use xlink:href="#m73c997a2a1" x="522.44596" y="289.392491" style="fill: #1f77b4; stroke: #1f77b4"/>
     <use xlink:href="#m73c997a2a1" x="527.972727" y="297.274152" style="fill: #1f77b4; stroke: #1f77b4"/>
     <use xlink:href="#m73c997a2a1" x="533.499495" y="298.112627" style="fill: #1f77b4; stroke: #1f77b4"/>
     <use xlink:href="#m73c997a2a1" x="539.026263" y="296.771068" style="fill: #1f77b4; stroke: #1f77b4"/>
     <use xlink:href="#m73c997a2a1" x="544.55303" y="302.388847" style="fill: #1f77b4; stroke: #1f77b4"/>
     <use xlink:href="#m73c997a2a1" x="550.079798" y="303.898102" style="fill: #1f77b4; stroke: #1f77b4"/>
     <use xlink:href="#m73c997a2a1" x="555.606566" y="303.898102" style="fill: #1f77b4; stroke: #1f77b4"/>
     <use xlink:href="#m73c997a2a1" x="561.133333" y="298.364169" style="fill: #1f77b4; stroke: #1f77b4"/>
     <use xlink:href="#m73c997a2a1" x="566.660101" y="305.071966" style="fill: #1f77b4; stroke: #1f77b4"/>
     <use xlink:href="#m73c997a2a1" x="572.186869" y="302.137305" style="fill: #1f77b4; stroke: #1f77b4"/>
     <use xlink:href="#m73c997a2a1" x="577.713636" y="307.671237" style="fill: #1f77b4; stroke: #1f77b4"/>
     <use xlink:href="#m73c997a2a1" x="583.240404" y="310.102814" style="fill: #1f77b4; stroke: #1f77b4"/>
     <use xlink:href="#m73c997a2a1" x="588.767172" y="309.767424" style="fill: #1f77b4; stroke: #1f77b4"/>
     <use xlink:href="#m73c997a2a1" x="594.293939" y="305.994288" style="fill: #1f77b4; stroke: #1f77b4"/>
     <use xlink:href="#m73c997a2a1" x="599.820707" y="304.317339" style="fill: #1f77b4; stroke: #1f77b4"/>
     <use xlink:href="#m73c997a2a1" x="605.347475" y="305.910441" style="fill: #1f77b4; stroke: #1f77b4"/>
     <use xlink:href="#m73c997a2a1" x="610.874242" y="305.658898" style="fill: #1f77b4; stroke: #1f77b4"/>
     <use xlink:href="#m73c997a2a1" x="616.40101" y="305.826593" style="fill: #1f77b4; stroke: #1f77b4"/>
     <use xlink:href="#m73c997a2a1" x="621.927778" y="309.264339" style="fill: #1f77b4; stroke: #1f77b4"/>
     <use xlink:href="#m73c997a2a1" x="627.454545" y="312.450542" style="fill: #1f77b4; stroke: #1f77b4"/>
     <use xlink:href="#m73c997a2a1" x="632.981313" y="309.096644" style="fill: #1f77b4; stroke: #1f77b4"/>
     <use xlink:href="#m73c997a2a1" x="638.508081" y="306.161983" style="fill: #1f77b4; stroke: #1f77b4"/>
     <use xlink:href="#m73c997a2a1" x="644.034848" y="295.681051" style="fill: #1f77b4; stroke: #1f77b4"/>
     <use xlink:href="#m73c997a2a1" x="649.561616" y="300.628051" style="fill: #1f77b4; stroke: #1f77b4"/>
     <use xlink:href="#m73c997a2a1" x="655.088384" y="302.891932" style="fill: #1f77b4; stroke: #1f77b4"/>
     <use xlink:href="#m73c997a2a1" x="660.615152" y="308.174322" style="fill: #1f77b4; stroke: #1f77b4"/>
     <use xlink:href="#m73c997a2a1" x="666.141919" y="308.593559" style="fill: #1f77b4; stroke: #1f77b4"/>
     <use xlink:href="#m73c997a2a1" x="671.668687" y="306.832763" style="fill: #1f77b4; stroke: #1f77b4"/>
     <use xlink:href="#m73c997a2a1" x="677.195455" y="300.795746" style="fill: #1f77b4; stroke: #1f77b4"/>
    </g>
   </g>
   <g id="line2d_19">
    <path d="M 80.304545 313.037475 
L 85.831313 311.360525 
L 91.358081 307.838932 
L 96.884848 307.755085 
L 102.411616 308.006627 
L 107.938384 312.031305 
L 113.465152 312.199 
L 118.991919 312.450542 
L 124.518687 310.438203 
L 130.045455 307.92278 
L 135.572222 306.832763 
L 141.09899 310.773593 
L 146.625758 311.19283 
L 152.152525 310.605898 
L 157.679293 311.444373 
L 163.206061 311.108983 
L 168.732828 312.282847 
L 174.259596 309.599729 
L 179.786364 305.575051 
L 185.313131 305.658898 
L 190.839899 302.808085 
L 196.366667 310.773593 
L 201.893434 307.838932 
L 207.420202 304.736576 
L 212.94697 292.07561 
L 218.473737 283.355474 
L 224.000505 275.641508 
L 229.527273 265.495966 
L 235.05404 267.508305 
L 240.580808 257.278915 
L 246.107576 202.442678 
L 251.634343 158.338915 
L 257.161111 100.819559 
L 262.687879 94.530999 
L 268.214646 27.285338 
L 273.741414 57.721965 
L 279.268182 116.079796 
L 284.794949 117.672898 
L 290.321717 124.212999 
L 295.848485 141.904813 
L 301.375253 150.121864 
L 306.90202 210.072796 
L 312.428788 159.009694 
L 317.955556 208.395847 
L 323.482323 237.742457 
L 329.009091 227.932305 
L 334.535859 222.398373 
L 340.062626 237.155525 
L 345.589394 248.810322 
L 351.116162 265.328271 
L 356.642929 286.877068 
L 362.169697 265.412118 
L 367.696465 267.34061 
L 373.223232 268.933712 
L 378.75 273.461474 
L 384.276768 262.980542 
L 389.803535 280.756203 
L 395.330303 286.79322 
L 400.857071 277.989237 
L 406.383838 235.143186 
L 411.910606 262.477457 
L 417.437374 278.073085 
L 422.964141 296.184136 
L 428.490909 296.184136 
L 434.017677 295.261813 
L 439.544444 287.883237 
L 445.071212 276.56383 
L 450.59798 280.840051 
L 456.124747 286.290135 
L 461.651515 289.895576 
L 467.178283 294.507186 
L 472.705051 292.159458 
L 478.231818 291.237135 
L 483.758586 276.983068 
L 489.285354 279.246949 
L 494.812121 285.703203 
L 500.338889 293.333322 
L 505.865657 301.214983 
L 511.392424 296.68722 
L 516.919192 292.830237 
L 522.44596 285.116271 
L 527.972727 289.560186 
L 533.499495 288.13478 
L 539.026263 293.920254 
L 544.55303 297.525695 
L 550.079798 289.392491 
L 555.606566 283.523169 
L 561.133333 269.436796 
L 566.660101 280.756203 
L 572.186869 283.942407 
L 577.713636 289.140949 
L 583.240404 289.308644 
L 588.767172 294.591034 
L 594.293939 286.960915 
L 599.820707 278.660017 
L 605.347475 281.594678 
L 610.874242 284.277796 
L 616.40101 290.985593 
L 621.927778 292.997932 
L 627.454545 296.938763 
L 632.981313 291.320983 
L 638.508081 285.116271 
L 644.034848 273.545322 
L 649.561616 285.703203 
L 655.088384 294.423339 
L 660.615152 299.118797 
L 666.141919 298.02878 
L 671.668687 297.358 
L 677.195455 285.283966 
" clip-path="url(#p678cc2fea5)" style="fill: none; stroke: #ff7f0e; stroke-width: 1.5; stroke-linecap: square"/>
    <defs>
     <path id="mee5eb285da" d="M 0 3 
C 0.795609 3 1.55874 2.683901 2.12132 2.12132 
C 2.683901 1.55874 3 0.795609 3 0 
C 3 -0.795609 2.683901 -1.55874 2.12132 -2.12132 
C 1.55874 -2.683901 0.795609 -3 0 -3 
C -0.795609 -3 -1.55874 -2.683901 -2.12132 -2.12132 
C -2.683901 -1.55874 -3 -0.795609 -3 0 
C -3 0.795609 -2.683901 1.55874 -2.12132 2.12132 
C -1.55874 2.683901 -0.795609 3 0 3 
z
" style="stroke: #ff7f0e"/>
    </defs>
    <g clip-path="url(#p678cc2fea5)">
     <use xlink:href="#mee5eb285da" x="80.304545" y="313.037475" style="fill: #ff7f0e; stroke: #ff7f0e"/>
     <use xlink:href="#mee5eb285da" x="85.831313" y="311.360525" style="fill: #ff7f0e; stroke: #ff7f0e"/>
     <use xlink:href="#mee5eb285da" x="91.358081" y="307.838932" style="fill: #ff7f0e; stroke: #ff7f0e"/>
     <use xlink:href="#mee5eb285da" x="96.884848" y="307.755085" style="fill: #ff7f0e; stroke: #ff7f0e"/>
     <use xlink:href="#mee5eb285da" x="102.411616" y="308.006627" style="fill: #ff7f0e; stroke: #ff7f0e"/>
     <use xlink:href="#mee5eb285da" x="107.938384" y="312.031305" style="fill: #ff7f0e; stroke: #ff7f0e"/>
     <use xlink:href="#mee5eb285da" x="113.465152" y="312.199" style="fill: #ff7f0e; stroke: #ff7f0e"/>
     <use xlink:href="#mee5eb285da" x="118.991919" y="312.450542" style="fill: #ff7f0e; stroke: #ff7f0e"/>
     <use xlink:href="#mee5eb285da" x="124.518687" y="310.438203" style="fill: #ff7f0e; stroke: #ff7f0e"/>
     <use xlink:href="#mee5eb285da" x="130.045455" y="307.92278" style="fill: #ff7f0e; stroke: #ff7f0e"/>
     <use xlink:href="#mee5eb285da" x="135.572222" y="306.832763" style="fill: #ff7f0e; stroke: #ff7f0e"/>
     <use xlink:href="#mee5eb285da" x="141.09899" y="310.773593" style="fill: #ff7f0e; stroke: #ff7f0e"/>
     <use xlink:href="#mee5eb285da" x="146.625758" y="311.19283" style="fill: #ff7f0e; stroke: #ff7f0e"/>
     <use xlink:href="#mee5eb285da" x="152.152525" y="310.605898" style="fill: #ff7f0e; stroke: #ff7f0e"/>
     <use xlink:href="#mee5eb285da" x="157.679293" y="311.444373" style="fill: #ff7f0e; stroke: #ff7f0e"/>
     <use xlink:href="#mee5eb285da" x="163.206061" y="311.108983" style="fill: #ff7f0e; stroke: #ff7f0e"/>
     <use xlink:href="#mee5eb285da" x="168.732828" y="312.282847" style="fill: #ff7f0e; stroke: #ff7f0e"/>
     <use xlink:href="#mee5eb285da" x="174.259596" y="309.599729" style="fill: #ff7f0e; stroke: #ff7f0e"/>
     <use xlink:href="#mee5eb285da" x="179.786364" y="305.575051" style="fill: #ff7f0e; stroke: #ff7f0e"/>
     <use xlink:href="#mee5eb285da" x="185.313131" y="305.658898" style="fill: #ff7f0e; stroke: #ff7f0e"/>
     <use xlink:href="#mee5eb285da" x="190.839899" y="302.808085" style="fill: #ff7f0e; stroke: #ff7f0e"/>
     <use xlink:href="#mee5eb285da" x="196.366667" y="310.773593" style="fill: #ff7f0e; stroke: #ff7f0e"/>
     <use xlink:href="#mee5eb285da" x="201.893434" y="307.838932" style="fill: #ff7f0e; stroke: #ff7f0e"/>
     <use xlink:href="#mee5eb285da" x="207.420202" y="304.736576" style="fill: #ff7f0e; stroke: #ff7f0e"/>
     <use xlink:href="#mee5eb285da" x="212.94697" y="292.07561" style="fill: #ff7f0e; stroke: #ff7f0e"/>
     <use xlink:href="#mee5eb285da" x="218.473737" y="283.355474" style="fill: #ff7f0e; stroke: #ff7f0e"/>
     <use xlink:href="#mee5eb285da" x="224.000505" y="275.641508" style="fill: #ff7f0e; stroke: #ff7f0e"/>
     <use xlink:href="#mee5eb285da" x="229.527273" y="265.495966" style="fill: #ff7f0e; stroke: #ff7f0e"/>
     <use xlink:href="#mee5eb285da" x="235.05404" y="267.508305" style="fill: #ff7f0e; stroke: #ff7f0e"/>
     <use xlink:href="#mee5eb285da" x="240.580808" y="257.278915" style="fill: #ff7f0e; stroke: #ff7f0e"/>
     <use xlink:href="#mee5eb285da" x="246.107576" y="202.442678" style="fill: #ff7f0e; stroke: #ff7f0e"/>
     <use xlink:href="#mee5eb285da" x="251.634343" y="158.338915" style="fill: #ff7f0e; stroke: #ff7f0e"/>
     <use xlink:href="#mee5eb285da" x="257.161111" y="100.819559" style="fill: #ff7f0e; stroke: #ff7f0e"/>
     <use xlink:href="#mee5eb285da" x="262.687879" y="94.530999" style="fill: #ff7f0e; stroke: #ff7f0e"/>
     <use xlink:href="#mee5eb285da" x="268.214646" y="27.285338" style="fill: #ff7f0e; stroke: #ff7f0e"/>
     <use xlink:href="#mee5eb285da" x="273.741414" y="57.721965" style="fill: #ff7f0e; stroke: #ff7f0e"/>
     <use xlink:href="#mee5eb285da" x="279.268182" y="116.079796" style="fill: #ff7f0e; stroke: #ff7f0e"/>
     <use xlink:href="#mee5eb285da" x="284.794949" y="117.672898" style="fill: #ff7f0e; stroke: #ff7f0e"/>
     <use xlink:href="#mee5eb285da" x="290.321717" y="124.212999" style="fill: #ff7f0e; stroke: #ff7f0e"/>
     <use xlink:href="#mee5eb285da" x="295.848485" y="141.904813" style="fill: #ff7f0e; stroke: #ff7f0e"/>
     <use xlink:href="#mee5eb285da" x="301.375253" y="150.121864" style="fill: #ff7f0e; stroke: #ff7f0e"/>
     <use xlink:href="#mee5eb285da" x="306.90202" y="210.072796" style="fill: #ff7f0e; stroke: #ff7f0e"/>
     <use xlink:href="#mee5eb285da" x="312.428788" y="159.009694" style="fill: #ff7f0e; stroke: #ff7f0e"/>
     <use xlink:href="#mee5eb285da" x="317.955556" y="208.395847" style="fill: #ff7f0e; stroke: #ff7f0e"/>
     <use xlink:href="#mee5eb285da" x="323.482323" y="237.742457" style="fill: #ff7f0e; stroke: #ff7f0e"/>
     <use xlink:href="#mee5eb285da" x="329.009091" y="227.932305" style="fill: #ff7f0e; stroke: #ff7f0e"/>
     <use xlink:href="#mee5eb285da" x="334.535859" y="222.398373" style="fill: #ff7f0e; stroke: #ff7f0e"/>
     <use xlink:href="#mee5eb285da" x="340.062626" y="237.155525" style="fill: #ff7f0e; stroke: #ff7f0e"/>
     <use xlink:href="#mee5eb285da" x="345.589394" y="248.810322" style="fill: #ff7f0e; stroke: #ff7f0e"/>
     <use xlink:href="#mee5eb285da" x="351.116162" y="265.328271" style="fill: #ff7f0e; stroke: #ff7f0e"/>
     <use xlink:href="#mee5eb285da" x="356.642929" y="286.877068" style="fill: #ff7f0e; stroke: #ff7f0e"/>
     <use xlink:href="#mee5eb285da" x="362.169697" y="265.412118" style="fill: #ff7f0e; stroke: #ff7f0e"/>
     <use xlink:href="#mee5eb285da" x="367.696465" y="267.34061" style="fill: #ff7f0e; stroke: #ff7f0e"/>
     <use xlink:href="#mee5eb285da" x="373.223232" y="268.933712" style="fill: #ff7f0e; stroke: #ff7f0e"/>
     <use xlink:href="#mee5eb285da" x="378.75" y="273.461474" style="fill: #ff7f0e; stroke: #ff7f0e"/>
     <use xlink:href="#mee5eb285da" x="384.276768" y="262.980542" style="fill: #ff7f0e; stroke: #ff7f0e"/>
     <use xlink:href="#mee5eb285da" x="389.803535" y="280.756203" style="fill: #ff7f0e; stroke: #ff7f0e"/>
     <use xlink:href="#mee5eb285da" x="395.330303" y="286.79322" style="fill: #ff7f0e; stroke: #ff7f0e"/>
     <use xlink:href="#mee5eb285da" x="400.857071" y="277.989237" style="fill: #ff7f0e; stroke: #ff7f0e"/>
     <use xlink:href="#mee5eb285da" x="406.383838" y="235.143186" style="fill: #ff7f0e; stroke: #ff7f0e"/>
     <use xlink:href="#mee5eb285da" x="411.910606" y="262.477457" style="fill: #ff7f0e; stroke: #ff7f0e"/>
     <use xlink:href="#mee5eb285da" x="417.437374" y="278.073085" style="fill: #ff7f0e; stroke: #ff7f0e"/>
     <use xlink:href="#mee5eb285da" x="422.964141" y="296.184136" style="fill: #ff7f0e; stroke: #ff7f0e"/>
     <use xlink:href="#mee5eb285da" x="428.490909" y="296.184136" style="fill: #ff7f0e; stroke: #ff7f0e"/>
     <use xlink:href="#mee5eb285da" x="434.017677" y="295.261813" style="fill: #ff7f0e; stroke: #ff7f0e"/>
     <use xlink:href="#mee5eb285da" x="439.544444" y="287.883237" style="fill: #ff7f0e; stroke: #ff7f0e"/>
     <use xlink:href="#mee5eb285da" x="445.071212" y="276.56383" style="fill: #ff7f0e; stroke: #ff7f0e"/>
     <use xlink:href="#mee5eb285da" x="450.59798" y="280.840051" style="fill: #ff7f0e; stroke: #ff7f0e"/>
     <use xlink:href="#mee5eb285da" x="456.124747" y="286.290135" style="fill: #ff7f0e; stroke: #ff7f0e"/>
     <use xlink:href="#mee5eb285da" x="461.651515" y="289.895576" style="fill: #ff7f0e; stroke: #ff7f0e"/>
     <use xlink:href="#mee5eb285da" x="467.178283" y="294.507186" style="fill: #ff7f0e; stroke: #ff7f0e"/>
     <use xlink:href="#mee5eb285da" x="472.705051" y="292.159458" style="fill: #ff7f0e; stroke: #ff7f0e"/>
     <use xlink:href="#mee5eb285da" x="478.231818" y="291.237135" style="fill: #ff7f0e; stroke: #ff7f0e"/>
     <use xlink:href="#mee5eb285da" x="483.758586" y="276.983068" style="fill: #ff7f0e; stroke: #ff7f0e"/>
     <use xlink:href="#mee5eb285da" x="489.285354" y="279.246949" style="fill: #ff7f0e; stroke: #ff7f0e"/>
     <use xlink:href="#mee5eb285da" x="494.812121" y="285.703203" style="fill: #ff7f0e; stroke: #ff7f0e"/>
     <use xlink:href="#mee5eb285da" x="500.338889" y="293.333322" style="fill: #ff7f0e; stroke: #ff7f0e"/>
     <use xlink:href="#mee5eb285da" x="505.865657" y="301.214983" style="fill: #ff7f0e; stroke: #ff7f0e"/>
     <use xlink:href="#mee5eb285da" x="511.392424" y="296.68722" style="fill: #ff7f0e; stroke: #ff7f0e"/>
     <use xlink:href="#mee5eb285da" x="516.919192" y="292.830237" style="fill: #ff7f0e; stroke: #ff7f0e"/>
     <use xlink:href="#mee5eb285da" x="522.44596" y="285.116271" style="fill: #ff7f0e; stroke: #ff7f0e"/>
     <use xlink:href="#mee5eb285da" x="527.972727" y="289.560186" style="fill: #ff7f0e; stroke: #ff7f0e"/>
     <use xlink:href="#mee5eb285da" x="533.499495" y="288.13478" style="fill: #ff7f0e; stroke: #ff7f0e"/>
     <use xlink:href="#mee5eb285da" x="539.026263" y="293.920254" style="fill: #ff7f0e; stroke: #ff7f0e"/>
     <use xlink:href="#mee5eb285da" x="544.55303" y="297.525695" style="fill: #ff7f0e; stroke: #ff7f0e"/>
     <use xlink:href="#mee5eb285da" x="550.079798" y="289.392491" style="fill: #ff7f0e; stroke: #ff7f0e"/>
     <use xlink:href="#mee5eb285da" x="555.606566" y="283.523169" style="fill: #ff7f0e; stroke: #ff7f0e"/>
     <use xlink:href="#mee5eb285da" x="561.133333" y="269.436796" style="fill: #ff7f0e; stroke: #ff7f0e"/>
     <use xlink:href="#mee5eb285da" x="566.660101" y="280.756203" style="fill: #ff7f0e; stroke: #ff7f0e"/>
     <use xlink:href="#mee5eb285da" x="572.186869" y="283.942407" style="fill: #ff7f0e; stroke: #ff7f0e"/>
     <use xlink:href="#mee5eb285da" x="577.713636" y="289.140949" style="fill: #ff7f0e; stroke: #ff7f0e"/>
     <use xlink:href="#mee5eb285da" x="583.240404" y="289.308644" style="fill: #ff7f0e; stroke: #ff7f0e"/>
     <use xlink:href="#mee5eb285da" x="588.767172" y="294.591034" style="fill: #ff7f0e; stroke: #ff7f0e"/>
     <use xlink:href="#mee5eb285da" x="594.293939" y="286.960915" style="fill: #ff7f0e; stroke: #ff7f0e"/>
     <use xlink:href="#mee5eb285da" x="599.820707" y="278.660017" style="fill: #ff7f0e; stroke: #ff7f0e"/>
     <use xlink:href="#mee5eb285da" x="605.347475" y="281.594678" style="fill: #ff7f0e; stroke: #ff7f0e"/>
     <use xlink:href="#mee5eb285da" x="610.874242" y="284.277796" style="fill: #ff7f0e; stroke: #ff7f0e"/>
     <use xlink:href="#mee5eb285da" x="616.40101" y="290.985593" style="fill: #ff7f0e; stroke: #ff7f0e"/>
     <use xlink:href="#mee5eb285da" x="621.927778" y="292.997932" style="fill: #ff7f0e; stroke: #ff7f0e"/>
     <use xlink:href="#mee5eb285da" x="627.454545" y="296.938763" style="fill: #ff7f0e; stroke: #ff7f0e"/>
     <use xlink:href="#mee5eb285da" x="632.981313" y="291.320983" style="fill: #ff7f0e; stroke: #ff7f0e"/>
     <use xlink:href="#mee5eb285da" x="638.508081" y="285.116271" style="fill: #ff7f0e; stroke: #ff7f0e"/>
     <use xlink:href="#mee5eb285da" x="644.034848" y="273.545322" style="fill: #ff7f0e; stroke: #ff7f0e"/>
     <use xlink:href="#mee5eb285da" x="649.561616" y="285.703203" style="fill: #ff7f0e; stroke: #ff7f0e"/>
     <use xlink:href="#mee5eb285da" x="655.088384" y="294.423339" style="fill: #ff7f0e; stroke: #ff7f0e"/>
     <use xlink:href="#mee5eb285da" x="660.615152" y="299.118797" style="fill: #ff7f0e; stroke: #ff7f0e"/>
     <use xlink:href="#mee5eb285da" x="666.141919" y="298.02878" style="fill: #ff7f0e; stroke: #ff7f0e"/>
     <use xlink:href="#mee5eb285da" x="671.668687" y="297.358" style="fill: #ff7f0e; stroke: #ff7f0e"/>
     <use xlink:href="#mee5eb285da" x="677.195455" y="285.283966" style="fill: #ff7f0e; stroke: #ff7f0e"/>
    </g>
   </g>
   <g id="patch_3">
    <path d="M 50.46 327.04 
L 50.46 12.96 
" style="fill: none; stroke: #000000; stroke-width: 0.8; stroke-linejoin: miter; stroke-linecap: square"/>
   </g>
   <g id="patch_4">
    <path d="M 50.46 327.04 
L 707.04 327.04 
" style="fill: none; stroke: #000000; stroke-width: 0.8; stroke-linejoin: miter; stroke-linecap: square"/>
   </g>
   <g id="legend_1">
    <g id="patch_5">
     <path d="M 58.86 57.7875 
L 197.86125 57.7875 
Q 200.26125 57.7875 200.26125 55.3875 
L 200.26125 21.36 
Q 200.26125 18.96 197.86125 18.96 
L 58.86 18.96 
Q 56.46 18.96 56.46 21.36 
L 56.46 55.3875 
Q 56.46 57.7875 58.86 57.7875 
z
" style="fill: #ffffff; opacity: 0.8; stroke: #cccccc; stroke-linejoin: miter"/>
    </g>
    <g id="line2d_20">
     <path d="M 61.26 28.678125 
L 73.26 28.678125 
L 85.26 28.678125 
" style="fill: none; stroke: #1f77b4; stroke-width: 1.5; stroke-linecap: square"/>
     <g>
      <use xlink:href="#m73c997a2a1" x="73.26" y="28.678125" style="fill: #1f77b4; stroke: #1f77b4"/>
     </g>
    </g>
    <g id="text_18">
     <!-- Age range 0-9 -->
     <g transform="translate(94.86 32.878125)scale(0.12 -0.12)">
      <defs>
       <path id="DejaVuSans-41" d="M 2188 4044 
L 1331 1722 
L 3047 1722 
L 2188 4044 
z
M 1831 4666 
L 2547 4666 
L 4325 0 
L 3669 0 
L 3244 1197 
L 1141 1197 
L 716 0 
L 50 0 
L 1831 4666 
z
" transform="scale(0.015625)"/>
       <path id="DejaVuSans-67" d="M 2906 1791 
Q 2906 2416 2648 2759 
Q 2391 3103 1925 3103 
Q 1463 3103 1205 2759 
Q 947 2416 947 1791 
Q 947 1169 1205 825 
Q 1463 481 1925 481 
Q 2391 481 2648 825 
Q 2906 1169 2906 1791 
z
M 3481 434 
Q 3481 -459 3084 -895 
Q 2688 -1331 1869 -1331 
Q 1566 -1331 1297 -1286 
Q 1028 -1241 775 -1147 
L 775 -588 
Q 1028 -725 1275 -790 
Q 1522 -856 1778 -856 
Q 2344 -856 2625 -561 
Q 2906 -266 2906 331 
L 2906 616 
Q 2728 306 2450 153 
Q 2172 0 1784 0 
Q 1141 0 747 490 
Q 353 981 353 1791 
Q 353 2603 747 3093 
Q 1141 3584 1784 3584 
Q 2172 3584 2450 3431 
Q 2728 3278 2906 2969 
L 2906 3500 
L 3481 3500 
L 3481 434 
z
" transform="scale(0.015625)"/>
       <path id="DejaVuSans-2d" d="M 313 2009 
L 1997 2009 
L 1997 1497 
L 313 1497 
L 313 2009 
z
" transform="scale(0.015625)"/>
      </defs>
      <use xlink:href="#DejaVuSans-41"/>
      <use xlink:href="#DejaVuSans-67" x="68.408203"/>
      <use xlink:href="#DejaVuSans-65" x="131.884766"/>
      <use xlink:href="#DejaVuSans-20" x="193.408203"/>
      <use xlink:href="#DejaVuSans-72" x="225.195312"/>
      <use xlink:href="#DejaVuSans-61" x="266.308594"/>
      <use xlink:href="#DejaVuSans-6e" x="327.587891"/>
      <use xlink:href="#DejaVuSans-67" x="390.966797"/>
      <use xlink:href="#DejaVuSans-65" x="454.443359"/>
      <use xlink:href="#DejaVuSans-20" x="515.966797"/>
      <use xlink:href="#DejaVuSans-30" x="547.753906"/>
      <use xlink:href="#DejaVuSans-2d" x="611.376953"/>
      <use xlink:href="#DejaVuSans-39" x="647.460938"/>
     </g>
    </g>
    <g id="line2d_21">
     <path d="M 61.26 46.291875 
L 73.26 46.291875 
L 85.26 46.291875 
" style="fill: none; stroke: #ff7f0e; stroke-width: 1.5; stroke-linecap: square"/>
     <g>
      <use xlink:href="#mee5eb285da" x="73.26" y="46.291875" style="fill: #ff7f0e; stroke: #ff7f0e"/>
     </g>
    </g>
    <g id="text_19">
     <!-- Age range 10-19 -->
     <g transform="translate(94.86 50.491875)scale(0.12 -0.12)">
      <use xlink:href="#DejaVuSans-41"/>
      <use xlink:href="#DejaVuSans-67" x="68.408203"/>
      <use xlink:href="#DejaVuSans-65" x="131.884766"/>
      <use xlink:href="#DejaVuSans-20" x="193.408203"/>
      <use xlink:href="#DejaVuSans-72" x="225.195312"/>
      <use xlink:href="#DejaVuSans-61" x="266.308594"/>
      <use xlink:href="#DejaVuSans-6e" x="327.587891"/>
      <use xlink:href="#DejaVuSans-67" x="390.966797"/>
      <use xlink:href="#DejaVuSans-65" x="454.443359"/>
      <use xlink:href="#DejaVuSans-20" x="515.966797"/>
      <use xlink:href="#DejaVuSans-31" x="547.753906"/>
      <use xlink:href="#DejaVuSans-30" x="611.376953"/>
      <use xlink:href="#DejaVuSans-2d" x="675"/>
      <use xlink:href="#DejaVuSans-31" x="711.083984"/>
      <use xlink:href="#DejaVuSans-39" x="774.707031"/>
     </g>
    </g>
   </g>
  </g>
 </g>
 <defs>
  <clipPath id="p678cc2fea5">
   <rect x="50.46" y="12.96" width="656.58" height="314.08"/>
  </clipPath>
 </defs>
</svg>
