<?xml version="1.0" encoding="utf-8" standalone="no"?>
<!DOCTYPE svg PUBLIC "-//W3C//DTD SVG 1.1//EN"
  "http://www.w3.org/Graphics/SVG/1.1/DTD/svg11.dtd">
<svg xmlns:xlink="http://www.w3.org/1999/xlink" width="720pt" height="360pt" viewBox="0 0 720 360" xmlns="http://www.w3.org/2000/svg" version="1.1">
 <metadata>
  <rdf:RDF xmlns:dc="http://purl.org/dc/elements/1.1/" xmlns:cc="http://creativecommons.org/ns#" xmlns:rdf="http://www.w3.org/1999/02/22-rdf-syntax-ns#">
   <cc:Work>
    <dc:type rdf:resource="http://purl.org/dc/dcmitype/StillImage"/>
    <dc:date>2022-02-14T23:19:15.262490</dc:date>
    <dc:format>image/svg+xml</dc:format>
    <dc:creator>
     <cc:Agent>
      <dc:title>Matplotlib v3.5.1, https://matplotlib.org/</dc:title>
     </cc:Agent>
    </dc:creator>
   </cc:Work>
  </rdf:RDF>
 </metadata>
 <defs>
  <style type="text/css">*{stroke-linejoin: round; stroke-linecap: butt}</style>
 </defs>
 <g id="figure_1">
  <g id="patch_1">
   <path d="M 0 360 
L 720 360 
L 720 0 
L 0 0 
L 0 360 
z
" style="fill: none"/>
  </g>
  <g id="axes_1">
   <g id="patch_2">
    <path d="M 50.46 327.04 
L 707.04 327.04 
L 707.04 12.96 
L 50.46 12.96 
z
" style="fill: #ffffff"/>
   </g>
   <g id="matplotlib.axis_1">
    <g id="xtick_1">
     <g id="line2d_1">
      <defs>
       <path id="m89d8c95153" d="M 0 0 
L 0 3.5 
" style="stroke: #000000; stroke-width: 0.8"/>
      </defs>
      <g>
       <use xlink:href="#m89d8c95153" x="80.304545" y="327.04" style="stroke: #000000; stroke-width: 0.8"/>
      </g>
     </g>
     <g id="text_1">
      <!-- Dec 05 -->
      <g transform="translate(59.151733 343.158125)scale(0.12 -0.12)">
       <defs>
        <path id="DejaVuSans-44" d="M 1259 4147 
L 1259 519 
L 2022 519 
Q 2988 519 3436 956 
Q 3884 1394 3884 2338 
Q 3884 3275 3436 3711 
Q 2988 4147 2022 4147 
L 1259 4147 
z
M 628 4666 
L 1925 4666 
Q 3281 4666 3915 4102 
Q 4550 3538 4550 2338 
Q 4550 1131 3912 565 
Q 3275 0 1925 0 
L 628 0 
L 628 4666 
z
" transform="scale(0.015625)"/>
        <path id="DejaVuSans-65" d="M 3597 1894 
L 3597 1613 
L 953 1613 
Q 991 1019 1311 708 
Q 1631 397 2203 397 
Q 2534 397 2845 478 
Q 3156 559 3463 722 
L 3463 178 
Q 3153 47 2828 -22 
Q 2503 -91 2169 -91 
Q 1331 -91 842 396 
Q 353 884 353 1716 
Q 353 2575 817 3079 
Q 1281 3584 2069 3584 
Q 2775 3584 3186 3129 
Q 3597 2675 3597 1894 
z
M 3022 2063 
Q 3016 2534 2758 2815 
Q 2500 3097 2075 3097 
Q 1594 3097 1305 2825 
Q 1016 2553 972 2059 
L 3022 2063 
z
" transform="scale(0.015625)"/>
        <path id="DejaVuSans-63" d="M 3122 3366 
L 3122 2828 
Q 2878 2963 2633 3030 
Q 2388 3097 2138 3097 
Q 1578 3097 1268 2742 
Q 959 2388 959 1747 
Q 959 1106 1268 751 
Q 1578 397 2138 397 
Q 2388 397 2633 464 
Q 2878 531 3122 666 
L 3122 134 
Q 2881 22 2623 -34 
Q 2366 -91 2075 -91 
Q 1284 -91 818 406 
Q 353 903 353 1747 
Q 353 2603 823 3093 
Q 1294 3584 2113 3584 
Q 2378 3584 2631 3529 
Q 2884 3475 3122 3366 
z
" transform="scale(0.015625)"/>
        <path id="DejaVuSans-20" transform="scale(0.015625)"/>
        <path id="DejaVuSans-30" d="M 2034 4250 
Q 1547 4250 1301 3770 
Q 1056 3291 1056 2328 
Q 1056 1369 1301 889 
Q 1547 409 2034 409 
Q 2525 409 2770 889 
Q 3016 1369 3016 2328 
Q 3016 3291 2770 3770 
Q 2525 4250 2034 4250 
z
M 2034 4750 
Q 2819 4750 3233 4129 
Q 3647 3509 3647 2328 
Q 3647 1150 3233 529 
Q 2819 -91 2034 -91 
Q 1250 -91 836 529 
Q 422 1150 422 2328 
Q 422 3509 836 4129 
Q 1250 4750 2034 4750 
z
" transform="scale(0.015625)"/>
        <path id="DejaVuSans-35" d="M 691 4666 
L 3169 4666 
L 3169 4134 
L 1269 4134 
L 1269 2991 
Q 1406 3038 1543 3061 
Q 1681 3084 1819 3084 
Q 2600 3084 3056 2656 
Q 3513 2228 3513 1497 
Q 3513 744 3044 326 
Q 2575 -91 1722 -91 
Q 1428 -91 1123 -41 
Q 819 9 494 109 
L 494 744 
Q 775 591 1075 516 
Q 1375 441 1709 441 
Q 2250 441 2565 725 
Q 2881 1009 2881 1497 
Q 2881 1984 2565 2268 
Q 2250 2553 1709 2553 
Q 1456 2553 1204 2497 
Q 953 2441 691 2322 
L 691 4666 
z
" transform="scale(0.015625)"/>
       </defs>
       <use xlink:href="#DejaVuSans-44"/>
       <use xlink:href="#DejaVuSans-65" x="77.001953"/>
       <use xlink:href="#DejaVuSans-63" x="138.525391"/>
       <use xlink:href="#DejaVuSans-20" x="193.505859"/>
       <use xlink:href="#DejaVuSans-30" x="225.292969"/>
       <use xlink:href="#DejaVuSans-35" x="288.916016"/>
      </g>
     </g>
    </g>
    <g id="xtick_2">
     <g id="line2d_2">
      <g>
       <use xlink:href="#m89d8c95153" x="155.966773" y="327.04" style="stroke: #000000; stroke-width: 0.8"/>
      </g>
     </g>
     <g id="text_2">
      <!-- Dec 14 -->
      <g transform="translate(134.813961 343.158125)scale(0.12 -0.12)">
       <defs>
        <path id="DejaVuSans-31" d="M 794 531 
L 1825 531 
L 1825 4091 
L 703 3866 
L 703 4441 
L 1819 4666 
L 2450 4666 
L 2450 531 
L 3481 531 
L 3481 0 
L 794 0 
L 794 531 
z
" transform="scale(0.015625)"/>
        <path id="DejaVuSans-34" d="M 2419 4116 
L 825 1625 
L 2419 1625 
L 2419 4116 
z
M 2253 4666 
L 3047 4666 
L 3047 1625 
L 3713 1625 
L 3713 1100 
L 3047 1100 
L 3047 0 
L 2419 0 
L 2419 1100 
L 313 1100 
L 313 1709 
L 2253 4666 
z
" transform="scale(0.015625)"/>
       </defs>
       <use xlink:href="#DejaVuSans-44"/>
       <use xlink:href="#DejaVuSans-65" x="77.001953"/>
       <use xlink:href="#DejaVuSans-63" x="138.525391"/>
       <use xlink:href="#DejaVuSans-20" x="193.505859"/>
       <use xlink:href="#DejaVuSans-31" x="225.292969"/>
       <use xlink:href="#DejaVuSans-34" x="288.916016"/>
      </g>
     </g>
    </g>
    <g id="xtick_3">
     <g id="line2d_3">
      <g>
       <use xlink:href="#m89d8c95153" x="231.629001" y="327.04" style="stroke: #000000; stroke-width: 0.8"/>
      </g>
     </g>
     <g id="text_3">
      <!-- Dec 23 -->
      <g transform="translate(210.476189 343.158125)scale(0.12 -0.12)">
       <defs>
        <path id="DejaVuSans-32" d="M 1228 531 
L 3431 531 
L 3431 0 
L 469 0 
L 469 531 
Q 828 903 1448 1529 
Q 2069 2156 2228 2338 
Q 2531 2678 2651 2914 
Q 2772 3150 2772 3378 
Q 2772 3750 2511 3984 
Q 2250 4219 1831 4219 
Q 1534 4219 1204 4116 
Q 875 4013 500 3803 
L 500 4441 
Q 881 4594 1212 4672 
Q 1544 4750 1819 4750 
Q 2544 4750 2975 4387 
Q 3406 4025 3406 3419 
Q 3406 3131 3298 2873 
Q 3191 2616 2906 2266 
Q 2828 2175 2409 1742 
Q 1991 1309 1228 531 
z
" transform="scale(0.015625)"/>
        <path id="DejaVuSans-33" d="M 2597 2516 
Q 3050 2419 3304 2112 
Q 3559 1806 3559 1356 
Q 3559 666 3084 287 
Q 2609 -91 1734 -91 
Q 1441 -91 1130 -33 
Q 819 25 488 141 
L 488 750 
Q 750 597 1062 519 
Q 1375 441 1716 441 
Q 2309 441 2620 675 
Q 2931 909 2931 1356 
Q 2931 1769 2642 2001 
Q 2353 2234 1838 2234 
L 1294 2234 
L 1294 2753 
L 1863 2753 
Q 2328 2753 2575 2939 
Q 2822 3125 2822 3475 
Q 2822 3834 2567 4026 
Q 2313 4219 1838 4219 
Q 1578 4219 1281 4162 
Q 984 4106 628 3988 
L 628 4550 
Q 988 4650 1302 4700 
Q 1616 4750 1894 4750 
Q 2613 4750 3031 4423 
Q 3450 4097 3450 3541 
Q 3450 3153 3228 2886 
Q 3006 2619 2597 2516 
z
" transform="scale(0.015625)"/>
       </defs>
       <use xlink:href="#DejaVuSans-44"/>
       <use xlink:href="#DejaVuSans-65" x="77.001953"/>
       <use xlink:href="#DejaVuSans-63" x="138.525391"/>
       <use xlink:href="#DejaVuSans-20" x="193.505859"/>
       <use xlink:href="#DejaVuSans-32" x="225.292969"/>
       <use xlink:href="#DejaVuSans-33" x="288.916016"/>
      </g>
     </g>
    </g>
    <g id="xtick_4">
     <g id="line2d_4">
      <g>
       <use xlink:href="#m89d8c95153" x="307.291229" y="327.04" style="stroke: #000000; stroke-width: 0.8"/>
      </g>
     </g>
     <g id="text_4">
      <!-- Jan 01 -->
      <g transform="translate(288.499979 343.158125)scale(0.12 -0.12)">
       <defs>
        <path id="DejaVuSans-4a" d="M 628 4666 
L 1259 4666 
L 1259 325 
Q 1259 -519 939 -900 
Q 619 -1281 -91 -1281 
L -331 -1281 
L -331 -750 
L -134 -750 
Q 284 -750 456 -515 
Q 628 -281 628 325 
L 628 4666 
z
" transform="scale(0.015625)"/>
        <path id="DejaVuSans-61" d="M 2194 1759 
Q 1497 1759 1228 1600 
Q 959 1441 959 1056 
Q 959 750 1161 570 
Q 1363 391 1709 391 
Q 2188 391 2477 730 
Q 2766 1069 2766 1631 
L 2766 1759 
L 2194 1759 
z
M 3341 1997 
L 3341 0 
L 2766 0 
L 2766 531 
Q 2569 213 2275 61 
Q 1981 -91 1556 -91 
Q 1019 -91 701 211 
Q 384 513 384 1019 
Q 384 1609 779 1909 
Q 1175 2209 1959 2209 
L 2766 2209 
L 2766 2266 
Q 2766 2663 2505 2880 
Q 2244 3097 1772 3097 
Q 1472 3097 1187 3025 
Q 903 2953 641 2809 
L 641 3341 
Q 956 3463 1253 3523 
Q 1550 3584 1831 3584 
Q 2591 3584 2966 3190 
Q 3341 2797 3341 1997 
z
" transform="scale(0.015625)"/>
        <path id="DejaVuSans-6e" d="M 3513 2113 
L 3513 0 
L 2938 0 
L 2938 2094 
Q 2938 2591 2744 2837 
Q 2550 3084 2163 3084 
Q 1697 3084 1428 2787 
Q 1159 2491 1159 1978 
L 1159 0 
L 581 0 
L 581 3500 
L 1159 3500 
L 1159 2956 
Q 1366 3272 1645 3428 
Q 1925 3584 2291 3584 
Q 2894 3584 3203 3211 
Q 3513 2838 3513 2113 
z
" transform="scale(0.015625)"/>
       </defs>
       <use xlink:href="#DejaVuSans-4a"/>
       <use xlink:href="#DejaVuSans-61" x="29.492188"/>
       <use xlink:href="#DejaVuSans-6e" x="90.771484"/>
       <use xlink:href="#DejaVuSans-20" x="154.150391"/>
       <use xlink:href="#DejaVuSans-30" x="185.9375"/>
       <use xlink:href="#DejaVuSans-31" x="249.560547"/>
      </g>
     </g>
    </g>
    <g id="xtick_5">
     <g id="line2d_5">
      <g>
       <use xlink:href="#m89d8c95153" x="382.953457" y="327.04" style="stroke: #000000; stroke-width: 0.8"/>
      </g>
     </g>
     <g id="text_5">
      <!-- Jan 10 -->
      <g transform="translate(364.162207 343.158125)scale(0.12 -0.12)">
       <use xlink:href="#DejaVuSans-4a"/>
       <use xlink:href="#DejaVuSans-61" x="29.492188"/>
       <use xlink:href="#DejaVuSans-6e" x="90.771484"/>
       <use xlink:href="#DejaVuSans-20" x="154.150391"/>
       <use xlink:href="#DejaVuSans-31" x="185.9375"/>
       <use xlink:href="#DejaVuSans-30" x="249.560547"/>
      </g>
     </g>
    </g>
    <g id="xtick_6">
     <g id="line2d_6">
      <g>
       <use xlink:href="#m89d8c95153" x="458.615685" y="327.04" style="stroke: #000000; stroke-width: 0.8"/>
      </g>
     </g>
     <g id="text_6">
      <!-- Jan 19 -->
      <g transform="translate(439.824435 343.158125)scale(0.12 -0.12)">
       <defs>
        <path id="DejaVuSans-39" d="M 703 97 
L 703 672 
Q 941 559 1184 500 
Q 1428 441 1663 441 
Q 2288 441 2617 861 
Q 2947 1281 2994 2138 
Q 2813 1869 2534 1725 
Q 2256 1581 1919 1581 
Q 1219 1581 811 2004 
Q 403 2428 403 3163 
Q 403 3881 828 4315 
Q 1253 4750 1959 4750 
Q 2769 4750 3195 4129 
Q 3622 3509 3622 2328 
Q 3622 1225 3098 567 
Q 2575 -91 1691 -91 
Q 1453 -91 1209 -44 
Q 966 3 703 97 
z
M 1959 2075 
Q 2384 2075 2632 2365 
Q 2881 2656 2881 3163 
Q 2881 3666 2632 3958 
Q 2384 4250 1959 4250 
Q 1534 4250 1286 3958 
Q 1038 3666 1038 3163 
Q 1038 2656 1286 2365 
Q 1534 2075 1959 2075 
z
" transform="scale(0.015625)"/>
       </defs>
       <use xlink:href="#DejaVuSans-4a"/>
       <use xlink:href="#DejaVuSans-61" x="29.492188"/>
       <use xlink:href="#DejaVuSans-6e" x="90.771484"/>
       <use xlink:href="#DejaVuSans-20" x="154.150391"/>
       <use xlink:href="#DejaVuSans-31" x="185.9375"/>
       <use xlink:href="#DejaVuSans-39" x="249.560547"/>
      </g>
     </g>
    </g>
    <g id="xtick_7">
     <g id="line2d_7">
      <g>
       <use xlink:href="#m89d8c95153" x="534.277913" y="327.04" style="stroke: #000000; stroke-width: 0.8"/>
      </g>
     </g>
     <g id="text_7">
      <!-- Jan 28 -->
      <g transform="translate(515.486663 343.158125)scale(0.12 -0.12)">
       <defs>
        <path id="DejaVuSans-38" d="M 2034 2216 
Q 1584 2216 1326 1975 
Q 1069 1734 1069 1313 
Q 1069 891 1326 650 
Q 1584 409 2034 409 
Q 2484 409 2743 651 
Q 3003 894 3003 1313 
Q 3003 1734 2745 1975 
Q 2488 2216 2034 2216 
z
M 1403 2484 
Q 997 2584 770 2862 
Q 544 3141 544 3541 
Q 544 4100 942 4425 
Q 1341 4750 2034 4750 
Q 2731 4750 3128 4425 
Q 3525 4100 3525 3541 
Q 3525 3141 3298 2862 
Q 3072 2584 2669 2484 
Q 3125 2378 3379 2068 
Q 3634 1759 3634 1313 
Q 3634 634 3220 271 
Q 2806 -91 2034 -91 
Q 1263 -91 848 271 
Q 434 634 434 1313 
Q 434 1759 690 2068 
Q 947 2378 1403 2484 
z
M 1172 3481 
Q 1172 3119 1398 2916 
Q 1625 2713 2034 2713 
Q 2441 2713 2670 2916 
Q 2900 3119 2900 3481 
Q 2900 3844 2670 4047 
Q 2441 4250 2034 4250 
Q 1625 4250 1398 4047 
Q 1172 3844 1172 3481 
z
" transform="scale(0.015625)"/>
       </defs>
       <use xlink:href="#DejaVuSans-4a"/>
       <use xlink:href="#DejaVuSans-61" x="29.492188"/>
       <use xlink:href="#DejaVuSans-6e" x="90.771484"/>
       <use xlink:href="#DejaVuSans-20" x="154.150391"/>
       <use xlink:href="#DejaVuSans-32" x="185.9375"/>
       <use xlink:href="#DejaVuSans-38" x="249.560547"/>
      </g>
     </g>
    </g>
    <g id="xtick_8">
     <g id="line2d_8">
      <g>
       <use xlink:href="#m89d8c95153" x="609.940141" y="327.04" style="stroke: #000000; stroke-width: 0.8"/>
      </g>
     </g>
     <g id="text_8">
      <!-- Feb 06 -->
      <g transform="translate(589.776391 343.158125)scale(0.12 -0.12)">
       <defs>
        <path id="DejaVuSans-46" d="M 628 4666 
L 3309 4666 
L 3309 4134 
L 1259 4134 
L 1259 2759 
L 3109 2759 
L 3109 2228 
L 1259 2228 
L 1259 0 
L 628 0 
L 628 4666 
z
" transform="scale(0.015625)"/>
        <path id="DejaVuSans-62" d="M 3116 1747 
Q 3116 2381 2855 2742 
Q 2594 3103 2138 3103 
Q 1681 3103 1420 2742 
Q 1159 2381 1159 1747 
Q 1159 1113 1420 752 
Q 1681 391 2138 391 
Q 2594 391 2855 752 
Q 3116 1113 3116 1747 
z
M 1159 2969 
Q 1341 3281 1617 3432 
Q 1894 3584 2278 3584 
Q 2916 3584 3314 3078 
Q 3713 2572 3713 1747 
Q 3713 922 3314 415 
Q 2916 -91 2278 -91 
Q 1894 -91 1617 61 
Q 1341 213 1159 525 
L 1159 0 
L 581 0 
L 581 4863 
L 1159 4863 
L 1159 2969 
z
" transform="scale(0.015625)"/>
        <path id="DejaVuSans-36" d="M 2113 2584 
Q 1688 2584 1439 2293 
Q 1191 2003 1191 1497 
Q 1191 994 1439 701 
Q 1688 409 2113 409 
Q 2538 409 2786 701 
Q 3034 994 3034 1497 
Q 3034 2003 2786 2293 
Q 2538 2584 2113 2584 
z
M 3366 4563 
L 3366 3988 
Q 3128 4100 2886 4159 
Q 2644 4219 2406 4219 
Q 1781 4219 1451 3797 
Q 1122 3375 1075 2522 
Q 1259 2794 1537 2939 
Q 1816 3084 2150 3084 
Q 2853 3084 3261 2657 
Q 3669 2231 3669 1497 
Q 3669 778 3244 343 
Q 2819 -91 2113 -91 
Q 1303 -91 875 529 
Q 447 1150 447 2328 
Q 447 3434 972 4092 
Q 1497 4750 2381 4750 
Q 2619 4750 2861 4703 
Q 3103 4656 3366 4563 
z
" transform="scale(0.015625)"/>
       </defs>
       <use xlink:href="#DejaVuSans-46"/>
       <use xlink:href="#DejaVuSans-65" x="52.019531"/>
       <use xlink:href="#DejaVuSans-62" x="113.542969"/>
       <use xlink:href="#DejaVuSans-20" x="177.019531"/>
       <use xlink:href="#DejaVuSans-30" x="208.806641"/>
       <use xlink:href="#DejaVuSans-36" x="272.429688"/>
      </g>
     </g>
    </g>
   </g>
   <g id="matplotlib.axis_2">
    <g id="ytick_1">
     <g id="line2d_9">
      <defs>
       <path id="m388e103532" d="M 0 0 
L -3.5 0 
" style="stroke: #000000; stroke-width: 0.8"/>
      </defs>
      <g>
       <use xlink:href="#m388e103532" x="50.46" y="327.04" style="stroke: #000000; stroke-width: 0.8"/>
      </g>
     </g>
     <g id="text_9">
      <!-- 0 -->
      <g transform="translate(35.825 331.599063)scale(0.12 -0.12)">
       <use xlink:href="#DejaVuSans-30"/>
      </g>
     </g>
    </g>
    <g id="ytick_2">
     <g id="line2d_10">
      <g>
       <use xlink:href="#m388e103532" x="50.46" y="285.105076" style="stroke: #000000; stroke-width: 0.8"/>
      </g>
     </g>
     <g id="text_10">
      <!-- 500 -->
      <g transform="translate(20.555 289.664139)scale(0.12 -0.12)">
       <use xlink:href="#DejaVuSans-35"/>
       <use xlink:href="#DejaVuSans-30" x="63.623047"/>
       <use xlink:href="#DejaVuSans-30" x="127.246094"/>
      </g>
     </g>
    </g>
    <g id="ytick_3">
     <g id="line2d_11">
      <g>
       <use xlink:href="#m388e103532" x="50.46" y="243.170152" style="stroke: #000000; stroke-width: 0.8"/>
      </g>
     </g>
     <g id="text_11">
      <!-- 1000 -->
      <g transform="translate(12.92 247.729215)scale(0.12 -0.12)">
       <use xlink:href="#DejaVuSans-31"/>
       <use xlink:href="#DejaVuSans-30" x="63.623047"/>
       <use xlink:href="#DejaVuSans-30" x="127.246094"/>
       <use xlink:href="#DejaVuSans-30" x="190.869141"/>
      </g>
     </g>
    </g>
    <g id="ytick_4">
     <g id="line2d_12">
      <g>
       <use xlink:href="#m388e103532" x="50.46" y="201.235228" style="stroke: #000000; stroke-width: 0.8"/>
      </g>
     </g>
     <g id="text_12">
      <!-- 1500 -->
      <g transform="translate(12.92 205.794291)scale(0.12 -0.12)">
       <use xlink:href="#DejaVuSans-31"/>
       <use xlink:href="#DejaVuSans-35" x="63.623047"/>
       <use xlink:href="#DejaVuSans-30" x="127.246094"/>
       <use xlink:href="#DejaVuSans-30" x="190.869141"/>
      </g>
     </g>
    </g>
    <g id="ytick_5">
     <g id="line2d_13">
      <g>
       <use xlink:href="#m388e103532" x="50.46" y="159.300304" style="stroke: #000000; stroke-width: 0.8"/>
      </g>
     </g>
     <g id="text_13">
      <!-- 2000 -->
      <g transform="translate(12.92 163.859367)scale(0.12 -0.12)">
       <use xlink:href="#DejaVuSans-32"/>
       <use xlink:href="#DejaVuSans-30" x="63.623047"/>
       <use xlink:href="#DejaVuSans-30" x="127.246094"/>
       <use xlink:href="#DejaVuSans-30" x="190.869141"/>
      </g>
     </g>
    </g>
    <g id="ytick_6">
     <g id="line2d_14">
      <g>
       <use xlink:href="#m388e103532" x="50.46" y="117.36538" style="stroke: #000000; stroke-width: 0.8"/>
      </g>
     </g>
     <g id="text_14">
      <!-- 2500 -->
      <g transform="translate(12.92 121.924443)scale(0.12 -0.12)">
       <use xlink:href="#DejaVuSans-32"/>
       <use xlink:href="#DejaVuSans-35" x="63.623047"/>
       <use xlink:href="#DejaVuSans-30" x="127.246094"/>
       <use xlink:href="#DejaVuSans-30" x="190.869141"/>
      </g>
     </g>
    </g>
    <g id="ytick_7">
     <g id="line2d_15">
      <g>
       <use xlink:href="#m388e103532" x="50.46" y="75.430456" style="stroke: #000000; stroke-width: 0.8"/>
      </g>
     </g>
     <g id="text_15">
      <!-- 3000 -->
      <g transform="translate(12.92 79.989519)scale(0.12 -0.12)">
       <use xlink:href="#DejaVuSans-33"/>
       <use xlink:href="#DejaVuSans-30" x="63.623047"/>
       <use xlink:href="#DejaVuSans-30" x="127.246094"/>
       <use xlink:href="#DejaVuSans-30" x="190.869141"/>
      </g>
     </g>
    </g>
    <g id="ytick_8">
     <g id="line2d_16">
      <g>
       <use xlink:href="#m388e103532" x="50.46" y="33.495532" style="stroke: #000000; stroke-width: 0.8"/>
      </g>
     </g>
     <g id="text_16">
      <!-- 3500 -->
      <g transform="translate(12.92 38.054595)scale(0.12 -0.12)">
       <use xlink:href="#DejaVuSans-33"/>
       <use xlink:href="#DejaVuSans-35" x="63.623047"/>
       <use xlink:href="#DejaVuSans-30" x="127.246094"/>
       <use xlink:href="#DejaVuSans-30" x="190.869141"/>
      </g>
     </g>
    </g>
   </g>
   <g id="line2d_17">
    <path d="M 80.304545 313.872434 
L 88.71146 310.014421 
L 97.118374 310.26603 
L 105.525288 303.724182 
L 113.932202 308.672503 
L 122.339117 310.76925 
L 130.746031 311.691818 
L 139.152945 310.43377 
L 147.559859 306.575757 
L 155.966773 307.414456 
L 164.373688 299.111341 
L 172.780602 299.111341 
L 181.187516 306.240278 
L 189.59443 304.311271 
L 198.001344 308.504764 
L 206.408259 305.904798 
L 214.815173 307.162846 
L 223.222087 304.98223 
L 231.629001 304.81449 
L 240.035915 306.743497 
L 248.44283 306.408017 
L 256.849744 312.782126 
L 265.256658 310.182161 
L 273.663572 305.23384 
L 282.070487 302.717744 
L 290.477401 298.356512 
L 298.884315 299.27908 
L 307.291229 298.104902 
L 315.698143 294.246889 
L 324.105058 288.45987 
L 332.511972 271.602031 
L 340.918886 259.189293 
L 349.3258 261.1183 
L 357.732714 263.802135 
L 366.139629 229.667107 
L 374.546543 226.815532 
L 382.953457 246.944295 
L 391.360371 220.776903 
L 399.767286 207.693206 
L 408.1742 208.867384 
L 416.581114 209.538343 
L 424.988028 244.008851 
L 433.394942 165.003454 
L 441.801857 206.015809 
L 450.208771 238.137961 
L 458.615685 220.441423 
L 467.022599 211.38348 
L 475.429513 227.65423 
L 483.836428 225.305874 
L 492.243342 242.750803 
L 500.650256 266.48597 
L 509.05717 239.899228 
L 517.464085 246.944295 
L 525.870999 254.324842 
L 534.277913 264.473093 
L 542.684827 254.744191 
L 551.091741 268.582716 
L 559.498656 274.872955 
L 567.90557 274.118126 
L 576.312484 258.182855 
L 584.719398 270.763332 
L 593.126312 276.718091 
L 601.533227 287.034083 
L 609.940141 284.517987 
L 618.347055 285.859905 
L 626.753969 276.466482 
L 635.160883 269.840764 
L 643.567798 280.156755 
L 651.974712 282.337371 
L 660.381626 291.479184 
L 668.78854 292.150143 
L 677.195455 296.008156 
" clip-path="url(#pf64d96f3e6)" style="fill: none; stroke: #1f77b4; stroke-width: 1.5; stroke-linecap: square"/>
    <defs>
     <path id="md426a7e1b6" d="M 0 3 
C 0.795609 3 1.55874 2.683901 2.12132 2.12132 
C 2.683901 1.55874 3 0.795609 3 0 
C 3 -0.795609 2.683901 -1.55874 2.12132 -2.12132 
C 1.55874 -2.683901 0.795609 -3 0 -3 
C -0.795609 -3 -1.55874 -2.683901 -2.12132 -2.12132 
C -2.683901 -1.55874 -3 -0.795609 -3 0 
C -3 0.795609 -2.683901 1.55874 -2.12132 2.12132 
C -1.55874 2.683901 -0.795609 3 0 3 
z
" style="stroke: #1f77b4"/>
    </defs>
    <g clip-path="url(#pf64d96f3e6)">
     <use xlink:href="#md426a7e1b6" x="80.304545" y="313.872434" style="fill: #1f77b4; stroke: #1f77b4"/>
     <use xlink:href="#md426a7e1b6" x="88.71146" y="310.014421" style="fill: #1f77b4; stroke: #1f77b4"/>
     <use xlink:href="#md426a7e1b6" x="97.118374" y="310.26603" style="fill: #1f77b4; stroke: #1f77b4"/>
     <use xlink:href="#md426a7e1b6" x="105.525288" y="303.724182" style="fill: #1f77b4; stroke: #1f77b4"/>
     <use xlink:href="#md426a7e1b6" x="113.932202" y="308.672503" style="fill: #1f77b4; stroke: #1f77b4"/>
     <use xlink:href="#md426a7e1b6" x="122.339117" y="310.76925" style="fill: #1f77b4; stroke: #1f77b4"/>
     <use xlink:href="#md426a7e1b6" x="130.746031" y="311.691818" style="fill: #1f77b4; stroke: #1f77b4"/>
     <use xlink:href="#md426a7e1b6" x="139.152945" y="310.43377" style="fill: #1f77b4; stroke: #1f77b4"/>
     <use xlink:href="#md426a7e1b6" x="147.559859" y="306.575757" style="fill: #1f77b4; stroke: #1f77b4"/>
     <use xlink:href="#md426a7e1b6" x="155.966773" y="307.414456" style="fill: #1f77b4; stroke: #1f77b4"/>
     <use xlink:href="#md426a7e1b6" x="164.373688" y="299.111341" style="fill: #1f77b4; stroke: #1f77b4"/>
     <use xlink:href="#md426a7e1b6" x="172.780602" y="299.111341" style="fill: #1f77b4; stroke: #1f77b4"/>
     <use xlink:href="#md426a7e1b6" x="181.187516" y="306.240278" style="fill: #1f77b4; stroke: #1f77b4"/>
     <use xlink:href="#md426a7e1b6" x="189.59443" y="304.311271" style="fill: #1f77b4; stroke: #1f77b4"/>
     <use xlink:href="#md426a7e1b6" x="198.001344" y="308.504764" style="fill: #1f77b4; stroke: #1f77b4"/>
     <use xlink:href="#md426a7e1b6" x="206.408259" y="305.904798" style="fill: #1f77b4; stroke: #1f77b4"/>
     <use xlink:href="#md426a7e1b6" x="214.815173" y="307.162846" style="fill: #1f77b4; stroke: #1f77b4"/>
     <use xlink:href="#md426a7e1b6" x="223.222087" y="304.98223" style="fill: #1f77b4; stroke: #1f77b4"/>
     <use xlink:href="#md426a7e1b6" x="231.629001" y="304.81449" style="fill: #1f77b4; stroke: #1f77b4"/>
     <use xlink:href="#md426a7e1b6" x="240.035915" y="306.743497" style="fill: #1f77b4; stroke: #1f77b4"/>
     <use xlink:href="#md426a7e1b6" x="248.44283" y="306.408017" style="fill: #1f77b4; stroke: #1f77b4"/>
     <use xlink:href="#md426a7e1b6" x="256.849744" y="312.782126" style="fill: #1f77b4; stroke: #1f77b4"/>
     <use xlink:href="#md426a7e1b6" x="265.256658" y="310.182161" style="fill: #1f77b4; stroke: #1f77b4"/>
     <use xlink:href="#md426a7e1b6" x="273.663572" y="305.23384" style="fill: #1f77b4; stroke: #1f77b4"/>
     <use xlink:href="#md426a7e1b6" x="282.070487" y="302.717744" style="fill: #1f77b4; stroke: #1f77b4"/>
     <use xlink:href="#md426a7e1b6" x="290.477401" y="298.356512" style="fill: #1f77b4; stroke: #1f77b4"/>
     <use xlink:href="#md426a7e1b6" x="298.884315" y="299.27908" style="fill: #1f77b4; stroke: #1f77b4"/>
     <use xlink:href="#md426a7e1b6" x="307.291229" y="298.104902" style="fill: #1f77b4; stroke: #1f77b4"/>
     <use xlink:href="#md426a7e1b6" x="315.698143" y="294.246889" style="fill: #1f77b4; stroke: #1f77b4"/>
     <use xlink:href="#md426a7e1b6" x="324.105058" y="288.45987" style="fill: #1f77b4; stroke: #1f77b4"/>
     <use xlink:href="#md426a7e1b6" x="332.511972" y="271.602031" style="fill: #1f77b4; stroke: #1f77b4"/>
     <use xlink:href="#md426a7e1b6" x="340.918886" y="259.189293" style="fill: #1f77b4; stroke: #1f77b4"/>
     <use xlink:href="#md426a7e1b6" x="349.3258" y="261.1183" style="fill: #1f77b4; stroke: #1f77b4"/>
     <use xlink:href="#md426a7e1b6" x="357.732714" y="263.802135" style="fill: #1f77b4; stroke: #1f77b4"/>
     <use xlink:href="#md426a7e1b6" x="366.139629" y="229.667107" style="fill: #1f77b4; stroke: #1f77b4"/>
     <use xlink:href="#md426a7e1b6" x="374.546543" y="226.815532" style="fill: #1f77b4; stroke: #1f77b4"/>
     <use xlink:href="#md426a7e1b6" x="382.953457" y="246.944295" style="fill: #1f77b4; stroke: #1f77b4"/>
     <use xlink:href="#md426a7e1b6" x="391.360371" y="220.776903" style="fill: #1f77b4; stroke: #1f77b4"/>
     <use xlink:href="#md426a7e1b6" x="399.767286" y="207.693206" style="fill: #1f77b4; stroke: #1f77b4"/>
     <use xlink:href="#md426a7e1b6" x="408.1742" y="208.867384" style="fill: #1f77b4; stroke: #1f77b4"/>
     <use xlink:href="#md426a7e1b6" x="416.581114" y="209.538343" style="fill: #1f77b4; stroke: #1f77b4"/>
     <use xlink:href="#md426a7e1b6" x="424.988028" y="244.008851" style="fill: #1f77b4; stroke: #1f77b4"/>
     <use xlink:href="#md426a7e1b6" x="433.394942" y="165.003454" style="fill: #1f77b4; stroke: #1f77b4"/>
     <use xlink:href="#md426a7e1b6" x="441.801857" y="206.015809" style="fill: #1f77b4; stroke: #1f77b4"/>
     <use xlink:href="#md426a7e1b6" x="450.208771" y="238.137961" style="fill: #1f77b4; stroke: #1f77b4"/>
     <use xlink:href="#md426a7e1b6" x="458.615685" y="220.441423" style="fill: #1f77b4; stroke: #1f77b4"/>
     <use xlink:href="#md426a7e1b6" x="467.022599" y="211.38348" style="fill: #1f77b4; stroke: #1f77b4"/>
     <use xlink:href="#md426a7e1b6" x="475.429513" y="227.65423" style="fill: #1f77b4; stroke: #1f77b4"/>
     <use xlink:href="#md426a7e1b6" x="483.836428" y="225.305874" style="fill: #1f77b4; stroke: #1f77b4"/>
     <use xlink:href="#md426a7e1b6" x="492.243342" y="242.750803" style="fill: #1f77b4; stroke: #1f77b4"/>
     <use xlink:href="#md426a7e1b6" x="500.650256" y="266.48597" style="fill: #1f77b4; stroke: #1f77b4"/>
     <use xlink:href="#md426a7e1b6" x="509.05717" y="239.899228" style="fill: #1f77b4; stroke: #1f77b4"/>
     <use xlink:href="#md426a7e1b6" x="517.464085" y="246.944295" style="fill: #1f77b4; stroke: #1f77b4"/>
     <use xlink:href="#md426a7e1b6" x="525.870999" y="254.324842" style="fill: #1f77b4; stroke: #1f77b4"/>
     <use xlink:href="#md426a7e1b6" x="534.277913" y="264.473093" style="fill: #1f77b4; stroke: #1f77b4"/>
     <use xlink:href="#md426a7e1b6" x="542.684827" y="254.744191" style="fill: #1f77b4; stroke: #1f77b4"/>
     <use xlink:href="#md426a7e1b6" x="551.091741" y="268.582716" style="fill: #1f77b4; stroke: #1f77b4"/>
     <use xlink:href="#md426a7e1b6" x="559.498656" y="274.872955" style="fill: #1f77b4; stroke: #1f77b4"/>
     <use xlink:href="#md426a7e1b6" x="567.90557" y="274.118126" style="fill: #1f77b4; stroke: #1f77b4"/>
     <use xlink:href="#md426a7e1b6" x="576.312484" y="258.182855" style="fill: #1f77b4; stroke: #1f77b4"/>
     <use xlink:href="#md426a7e1b6" x="584.719398" y="270.763332" style="fill: #1f77b4; stroke: #1f77b4"/>
     <use xlink:href="#md426a7e1b6" x="593.126312" y="276.718091" style="fill: #1f77b4; stroke: #1f77b4"/>
     <use xlink:href="#md426a7e1b6" x="601.533227" y="287.034083" style="fill: #1f77b4; stroke: #1f77b4"/>
     <use xlink:href="#md426a7e1b6" x="609.940141" y="284.517987" style="fill: #1f77b4; stroke: #1f77b4"/>
     <use xlink:href="#md426a7e1b6" x="618.347055" y="285.859905" style="fill: #1f77b4; stroke: #1f77b4"/>
     <use xlink:href="#md426a7e1b6" x="626.753969" y="276.466482" style="fill: #1f77b4; stroke: #1f77b4"/>
     <use xlink:href="#md426a7e1b6" x="635.160883" y="269.840764" style="fill: #1f77b4; stroke: #1f77b4"/>
     <use xlink:href="#md426a7e1b6" x="643.567798" y="280.156755" style="fill: #1f77b4; stroke: #1f77b4"/>
     <use xlink:href="#md426a7e1b6" x="651.974712" y="282.337371" style="fill: #1f77b4; stroke: #1f77b4"/>
     <use xlink:href="#md426a7e1b6" x="660.381626" y="291.479184" style="fill: #1f77b4; stroke: #1f77b4"/>
     <use xlink:href="#md426a7e1b6" x="668.78854" y="292.150143" style="fill: #1f77b4; stroke: #1f77b4"/>
     <use xlink:href="#md426a7e1b6" x="677.195455" y="296.008156" style="fill: #1f77b4; stroke: #1f77b4"/>
    </g>
   </g>
   <g id="line2d_18">
    <path d="M 80.304545 312.949866 
L 88.71146 311.356338 
L 97.118374 307.833805 
L 105.525288 307.749935 
L 113.932202 308.001545 
L 122.339117 312.027297 
L 130.746031 312.195037 
L 139.152945 312.446646 
L 147.559859 310.43377 
L 155.966773 307.917675 
L 164.373688 306.827367 
L 172.780602 310.76925 
L 181.187516 311.188599 
L 189.59443 310.60151 
L 198.001344 311.440208 
L 206.408259 311.104729 
L 214.815173 312.278907 
L 223.222087 309.595072 
L 231.629001 305.569319 
L 240.035915 305.653189 
L 248.44283 302.801614 
L 256.849744 310.76925 
L 265.256658 307.833805 
L 273.663572 304.73062 
L 282.070487 292.066273 
L 290.477401 283.343809 
L 298.884315 275.627783 
L 307.291229 265.479532 
L 315.698143 267.492408 
L 324.105058 257.260287 
L 332.511972 202.409406 
L 340.918886 158.209996 
L 349.3258 100.75915 
L 357.732714 94.468912 
L 366.139629 27.289164 
L 374.546543 57.650048 
L 382.953457 116.107332 
L 391.360371 117.61699 
L 399.767286 124.158838 
L 408.1742 141.855376 
L 416.581114 150.158491 
L 424.988028 210.041562 
L 433.394942 158.964825 
L 441.801857 208.364165 
L 450.208771 237.718612 
L 458.615685 227.98971 
L 467.022599 222.538169 
L 475.429513 237.131523 
L 483.836428 248.789432 
L 492.243342 265.311792 
L 500.650256 286.866343 
L 509.05717 265.311792 
L 517.464085 267.324668 
L 525.870999 268.918195 
L 534.277913 273.531037 
L 542.684827 263.047306 
L 551.091741 280.743844 
L 559.498656 286.950213 
L 567.90557 277.976139 
L 576.312484 235.621866 
L 584.719398 262.795696 
L 593.126312 278.730968 
L 601.533227 296.846855 
L 609.940141 296.511375 
L 618.347055 295.756547 
L 626.753969 289.382438 
L 635.160883 277.892269 
L 643.567798 282.253501 
L 651.974712 288.376 
L 660.381626 293.91141 
L 668.78854 297.685553 
L 677.195455 300.117779 
" clip-path="url(#pf64d96f3e6)" style="fill: none; stroke: #ff7f0e; stroke-width: 1.5; stroke-linecap: square"/>
    <defs>
     <path id="mb9e36b74da" d="M 0 3 
C 0.795609 3 1.55874 2.683901 2.12132 2.12132 
C 2.683901 1.55874 3 0.795609 3 0 
C 3 -0.795609 2.683901 -1.55874 2.12132 -2.12132 
C 1.55874 -2.683901 0.795609 -3 0 -3 
C -0.795609 -3 -1.55874 -2.683901 -2.12132 -2.12132 
C -2.683901 -1.55874 -3 -0.795609 -3 0 
C -3 0.795609 -2.683901 1.55874 -2.12132 2.12132 
C -1.55874 2.683901 -0.795609 3 0 3 
z
" style="stroke: #ff7f0e"/>
    </defs>
    <g clip-path="url(#pf64d96f3e6)">
     <use xlink:href="#mb9e36b74da" x="80.304545" y="312.949866" style="fill: #ff7f0e; stroke: #ff7f0e"/>
     <use xlink:href="#mb9e36b74da" x="88.71146" y="311.356338" style="fill: #ff7f0e; stroke: #ff7f0e"/>
     <use xlink:href="#mb9e36b74da" x="97.118374" y="307.833805" style="fill: #ff7f0e; stroke: #ff7f0e"/>
     <use xlink:href="#mb9e36b74da" x="105.525288" y="307.749935" style="fill: #ff7f0e; stroke: #ff7f0e"/>
     <use xlink:href="#mb9e36b74da" x="113.932202" y="308.001545" style="fill: #ff7f0e; stroke: #ff7f0e"/>
     <use xlink:href="#mb9e36b74da" x="122.339117" y="312.027297" style="fill: #ff7f0e; stroke: #ff7f0e"/>
     <use xlink:href="#mb9e36b74da" x="130.746031" y="312.195037" style="fill: #ff7f0e; stroke: #ff7f0e"/>
     <use xlink:href="#mb9e36b74da" x="139.152945" y="312.446646" style="fill: #ff7f0e; stroke: #ff7f0e"/>
     <use xlink:href="#mb9e36b74da" x="147.559859" y="310.43377" style="fill: #ff7f0e; stroke: #ff7f0e"/>
     <use xlink:href="#mb9e36b74da" x="155.966773" y="307.917675" style="fill: #ff7f0e; stroke: #ff7f0e"/>
     <use xlink:href="#mb9e36b74da" x="164.373688" y="306.827367" style="fill: #ff7f0e; stroke: #ff7f0e"/>
     <use xlink:href="#mb9e36b74da" x="172.780602" y="310.76925" style="fill: #ff7f0e; stroke: #ff7f0e"/>
     <use xlink:href="#mb9e36b74da" x="181.187516" y="311.188599" style="fill: #ff7f0e; stroke: #ff7f0e"/>
     <use xlink:href="#mb9e36b74da" x="189.59443" y="310.60151" style="fill: #ff7f0e; stroke: #ff7f0e"/>
     <use xlink:href="#mb9e36b74da" x="198.001344" y="311.440208" style="fill: #ff7f0e; stroke: #ff7f0e"/>
     <use xlink:href="#mb9e36b74da" x="206.408259" y="311.104729" style="fill: #ff7f0e; stroke: #ff7f0e"/>
     <use xlink:href="#mb9e36b74da" x="214.815173" y="312.278907" style="fill: #ff7f0e; stroke: #ff7f0e"/>
     <use xlink:href="#mb9e36b74da" x="223.222087" y="309.595072" style="fill: #ff7f0e; stroke: #ff7f0e"/>
     <use xlink:href="#mb9e36b74da" x="231.629001" y="305.569319" style="fill: #ff7f0e; stroke: #ff7f0e"/>
     <use xlink:href="#mb9e36b74da" x="240.035915" y="305.653189" style="fill: #ff7f0e; stroke: #ff7f0e"/>
     <use xlink:href="#mb9e36b74da" x="248.44283" y="302.801614" style="fill: #ff7f0e; stroke: #ff7f0e"/>
     <use xlink:href="#mb9e36b74da" x="256.849744" y="310.76925" style="fill: #ff7f0e; stroke: #ff7f0e"/>
     <use xlink:href="#mb9e36b74da" x="265.256658" y="307.833805" style="fill: #ff7f0e; stroke: #ff7f0e"/>
     <use xlink:href="#mb9e36b74da" x="273.663572" y="304.73062" style="fill: #ff7f0e; stroke: #ff7f0e"/>
     <use xlink:href="#mb9e36b74da" x="282.070487" y="292.066273" style="fill: #ff7f0e; stroke: #ff7f0e"/>
     <use xlink:href="#mb9e36b74da" x="290.477401" y="283.343809" style="fill: #ff7f0e; stroke: #ff7f0e"/>
     <use xlink:href="#mb9e36b74da" x="298.884315" y="275.627783" style="fill: #ff7f0e; stroke: #ff7f0e"/>
     <use xlink:href="#mb9e36b74da" x="307.291229" y="265.479532" style="fill: #ff7f0e; stroke: #ff7f0e"/>
     <use xlink:href="#mb9e36b74da" x="315.698143" y="267.492408" style="fill: #ff7f0e; stroke: #ff7f0e"/>
     <use xlink:href="#mb9e36b74da" x="324.105058" y="257.260287" style="fill: #ff7f0e; stroke: #ff7f0e"/>
     <use xlink:href="#mb9e36b74da" x="332.511972" y="202.409406" style="fill: #ff7f0e; stroke: #ff7f0e"/>
     <use xlink:href="#mb9e36b74da" x="340.918886" y="158.209996" style="fill: #ff7f0e; stroke: #ff7f0e"/>
     <use xlink:href="#mb9e36b74da" x="349.3258" y="100.75915" style="fill: #ff7f0e; stroke: #ff7f0e"/>
     <use xlink:href="#mb9e36b74da" x="357.732714" y="94.468912" style="fill: #ff7f0e; stroke: #ff7f0e"/>
     <use xlink:href="#mb9e36b74da" x="366.139629" y="27.289164" style="fill: #ff7f0e; stroke: #ff7f0e"/>
     <use xlink:href="#mb9e36b74da" x="374.546543" y="57.650048" style="fill: #ff7f0e; stroke: #ff7f0e"/>
     <use xlink:href="#mb9e36b74da" x="382.953457" y="116.107332" style="fill: #ff7f0e; stroke: #ff7f0e"/>
     <use xlink:href="#mb9e36b74da" x="391.360371" y="117.61699" style="fill: #ff7f0e; stroke: #ff7f0e"/>
     <use xlink:href="#mb9e36b74da" x="399.767286" y="124.158838" style="fill: #ff7f0e; stroke: #ff7f0e"/>
     <use xlink:href="#mb9e36b74da" x="408.1742" y="141.855376" style="fill: #ff7f0e; stroke: #ff7f0e"/>
     <use xlink:href="#mb9e36b74da" x="416.581114" y="150.158491" style="fill: #ff7f0e; stroke: #ff7f0e"/>
     <use xlink:href="#mb9e36b74da" x="424.988028" y="210.041562" style="fill: #ff7f0e; stroke: #ff7f0e"/>
     <use xlink:href="#mb9e36b74da" x="433.394942" y="158.964825" style="fill: #ff7f0e; stroke: #ff7f0e"/>
     <use xlink:href="#mb9e36b74da" x="441.801857" y="208.364165" style="fill: #ff7f0e; stroke: #ff7f0e"/>
     <use xlink:href="#mb9e36b74da" x="450.208771" y="237.718612" style="fill: #ff7f0e; stroke: #ff7f0e"/>
     <use xlink:href="#mb9e36b74da" x="458.615685" y="227.98971" style="fill: #ff7f0e; stroke: #ff7f0e"/>
     <use xlink:href="#mb9e36b74da" x="467.022599" y="222.538169" style="fill: #ff7f0e; stroke: #ff7f0e"/>
     <use xlink:href="#mb9e36b74da" x="475.429513" y="237.131523" style="fill: #ff7f0e; stroke: #ff7f0e"/>
     <use xlink:href="#mb9e36b74da" x="483.836428" y="248.789432" style="fill: #ff7f0e; stroke: #ff7f0e"/>
     <use xlink:href="#mb9e36b74da" x="492.243342" y="265.311792" style="fill: #ff7f0e; stroke: #ff7f0e"/>
     <use xlink:href="#mb9e36b74da" x="500.650256" y="286.866343" style="fill: #ff7f0e; stroke: #ff7f0e"/>
     <use xlink:href="#mb9e36b74da" x="509.05717" y="265.311792" style="fill: #ff7f0e; stroke: #ff7f0e"/>
     <use xlink:href="#mb9e36b74da" x="517.464085" y="267.324668" style="fill: #ff7f0e; stroke: #ff7f0e"/>
     <use xlink:href="#mb9e36b74da" x="525.870999" y="268.918195" style="fill: #ff7f0e; stroke: #ff7f0e"/>
     <use xlink:href="#mb9e36b74da" x="534.277913" y="273.531037" style="fill: #ff7f0e; stroke: #ff7f0e"/>
     <use xlink:href="#mb9e36b74da" x="542.684827" y="263.047306" style="fill: #ff7f0e; stroke: #ff7f0e"/>
     <use xlink:href="#mb9e36b74da" x="551.091741" y="280.743844" style="fill: #ff7f0e; stroke: #ff7f0e"/>
     <use xlink:href="#mb9e36b74da" x="559.498656" y="286.950213" style="fill: #ff7f0e; stroke: #ff7f0e"/>
     <use xlink:href="#mb9e36b74da" x="567.90557" y="277.976139" style="fill: #ff7f0e; stroke: #ff7f0e"/>
     <use xlink:href="#mb9e36b74da" x="576.312484" y="235.621866" style="fill: #ff7f0e; stroke: #ff7f0e"/>
     <use xlink:href="#mb9e36b74da" x="584.719398" y="262.795696" style="fill: #ff7f0e; stroke: #ff7f0e"/>
     <use xlink:href="#mb9e36b74da" x="593.126312" y="278.730968" style="fill: #ff7f0e; stroke: #ff7f0e"/>
     <use xlink:href="#mb9e36b74da" x="601.533227" y="296.846855" style="fill: #ff7f0e; stroke: #ff7f0e"/>
     <use xlink:href="#mb9e36b74da" x="609.940141" y="296.511375" style="fill: #ff7f0e; stroke: #ff7f0e"/>
     <use xlink:href="#mb9e36b74da" x="618.347055" y="295.756547" style="fill: #ff7f0e; stroke: #ff7f0e"/>
     <use xlink:href="#mb9e36b74da" x="626.753969" y="289.382438" style="fill: #ff7f0e; stroke: #ff7f0e"/>
     <use xlink:href="#mb9e36b74da" x="635.160883" y="277.892269" style="fill: #ff7f0e; stroke: #ff7f0e"/>
     <use xlink:href="#mb9e36b74da" x="643.567798" y="282.253501" style="fill: #ff7f0e; stroke: #ff7f0e"/>
     <use xlink:href="#mb9e36b74da" x="651.974712" y="288.376" style="fill: #ff7f0e; stroke: #ff7f0e"/>
     <use xlink:href="#mb9e36b74da" x="660.381626" y="293.91141" style="fill: #ff7f0e; stroke: #ff7f0e"/>
     <use xlink:href="#mb9e36b74da" x="668.78854" y="297.685553" style="fill: #ff7f0e; stroke: #ff7f0e"/>
     <use xlink:href="#mb9e36b74da" x="677.195455" y="300.117779" style="fill: #ff7f0e; stroke: #ff7f0e"/>
    </g>
   </g>
   <g id="patch_3">
    <path d="M 50.46 327.04 
L 50.46 12.96 
" style="fill: none; stroke: #000000; stroke-width: 0.8; stroke-linejoin: miter; stroke-linecap: square"/>
   </g>
   <g id="patch_4">
    <path d="M 50.46 327.04 
L 707.04 327.04 
" style="fill: none; stroke: #000000; stroke-width: 0.8; stroke-linejoin: miter; stroke-linecap: square"/>
   </g>
   <g id="legend_1">
    <g id="patch_5">
     <path d="M 58.86 57.7875 
L 197.86125 57.7875 
Q 200.26125 57.7875 200.26125 55.3875 
L 200.26125 21.36 
Q 200.26125 18.96 197.86125 18.96 
L 58.86 18.96 
Q 56.46 18.96 56.46 21.36 
L 56.46 55.3875 
Q 56.46 57.7875 58.86 57.7875 
z
" style="fill: #ffffff; opacity: 0.8; stroke: #cccccc; stroke-linejoin: miter"/>
    </g>
    <g id="line2d_19">
     <path d="M 61.26 28.678125 
L 73.26 28.678125 
L 85.26 28.678125 
" style="fill: none; stroke: #1f77b4; stroke-width: 1.5; stroke-linecap: square"/>
     <g>
      <use xlink:href="#md426a7e1b6" x="73.26" y="28.678125" style="fill: #1f77b4; stroke: #1f77b4"/>
     </g>
    </g>
    <g id="text_17">
     <!-- Age range 0-9 -->
     <g transform="translate(94.86 32.878125)scale(0.12 -0.12)">
      <defs>
       <path id="DejaVuSans-41" d="M 2188 4044 
L 1331 1722 
L 3047 1722 
L 2188 4044 
z
M 1831 4666 
L 2547 4666 
L 4325 0 
L 3669 0 
L 3244 1197 
L 1141 1197 
L 716 0 
L 50 0 
L 1831 4666 
z
" transform="scale(0.015625)"/>
       <path id="DejaVuSans-67" d="M 2906 1791 
Q 2906 2416 2648 2759 
Q 2391 3103 1925 3103 
Q 1463 3103 1205 2759 
Q 947 2416 947 1791 
Q 947 1169 1205 825 
Q 1463 481 1925 481 
Q 2391 481 2648 825 
Q 2906 1169 2906 1791 
z
M 3481 434 
Q 3481 -459 3084 -895 
Q 2688 -1331 1869 -1331 
Q 1566 -1331 1297 -1286 
Q 1028 -1241 775 -1147 
L 775 -588 
Q 1028 -725 1275 -790 
Q 1522 -856 1778 -856 
Q 2344 -856 2625 -561 
Q 2906 -266 2906 331 
L 2906 616 
Q 2728 306 2450 153 
Q 2172 0 1784 0 
Q 1141 0 747 490 
Q 353 981 353 1791 
Q 353 2603 747 3093 
Q 1141 3584 1784 3584 
Q 2172 3584 2450 3431 
Q 2728 3278 2906 2969 
L 2906 3500 
L 3481 3500 
L 3481 434 
z
" transform="scale(0.015625)"/>
       <path id="DejaVuSans-72" d="M 2631 2963 
Q 2534 3019 2420 3045 
Q 2306 3072 2169 3072 
Q 1681 3072 1420 2755 
Q 1159 2438 1159 1844 
L 1159 0 
L 581 0 
L 581 3500 
L 1159 3500 
L 1159 2956 
Q 1341 3275 1631 3429 
Q 1922 3584 2338 3584 
Q 2397 3584 2469 3576 
Q 2541 3569 2628 3553 
L 2631 2963 
z
" transform="scale(0.015625)"/>
       <path id="DejaVuSans-2d" d="M 313 2009 
L 1997 2009 
L 1997 1497 
L 313 1497 
L 313 2009 
z
" transform="scale(0.015625)"/>
      </defs>
      <use xlink:href="#DejaVuSans-41"/>
      <use xlink:href="#DejaVuSans-67" x="68.408203"/>
      <use xlink:href="#DejaVuSans-65" x="131.884766"/>
      <use xlink:href="#DejaVuSans-20" x="193.408203"/>
      <use xlink:href="#DejaVuSans-72" x="225.195312"/>
      <use xlink:href="#DejaVuSans-61" x="266.308594"/>
      <use xlink:href="#DejaVuSans-6e" x="327.587891"/>
      <use xlink:href="#DejaVuSans-67" x="390.966797"/>
      <use xlink:href="#DejaVuSans-65" x="454.443359"/>
      <use xlink:href="#DejaVuSans-20" x="515.966797"/>
      <use xlink:href="#DejaVuSans-30" x="547.753906"/>
      <use xlink:href="#DejaVuSans-2d" x="611.376953"/>
      <use xlink:href="#DejaVuSans-39" x="647.460938"/>
     </g>
    </g>
    <g id="line2d_20">
     <path d="M 61.26 46.291875 
L 73.26 46.291875 
L 85.26 46.291875 
" style="fill: none; stroke: #ff7f0e; stroke-width: 1.5; stroke-linecap: square"/>
     <g>
      <use xlink:href="#mb9e36b74da" x="73.26" y="46.291875" style="fill: #ff7f0e; stroke: #ff7f0e"/>
     </g>
    </g>
    <g id="text_18">
     <!-- Age range 10-19 -->
     <g transform="translate(94.86 50.491875)scale(0.12 -0.12)">
      <use xlink:href="#DejaVuSans-41"/>
      <use xlink:href="#DejaVuSans-67" x="68.408203"/>
      <use xlink:href="#DejaVuSans-65" x="131.884766"/>
      <use xlink:href="#DejaVuSans-20" x="193.408203"/>
      <use xlink:href="#DejaVuSans-72" x="225.195312"/>
      <use xlink:href="#DejaVuSans-61" x="266.308594"/>
      <use xlink:href="#DejaVuSans-6e" x="327.587891"/>
      <use xlink:href="#DejaVuSans-67" x="390.966797"/>
      <use xlink:href="#DejaVuSans-65" x="454.443359"/>
      <use xlink:href="#DejaVuSans-20" x="515.966797"/>
      <use xlink:href="#DejaVuSans-31" x="547.753906"/>
      <use xlink:href="#DejaVuSans-30" x="611.376953"/>
      <use xlink:href="#DejaVuSans-2d" x="675"/>
      <use xlink:href="#DejaVuSans-31" x="711.083984"/>
      <use xlink:href="#DejaVuSans-39" x="774.707031"/>
     </g>
    </g>
   </g>
  </g>
 </g>
 <defs>
  <clipPath id="pf64d96f3e6">
   <rect x="50.46" y="12.96" width="656.58" height="314.08"/>
  </clipPath>
 </defs>
</svg>
