<?xml version="1.0" encoding="utf-8" standalone="no"?>
<!DOCTYPE svg PUBLIC "-//W3C//DTD SVG 1.1//EN"
  "http://www.w3.org/Graphics/SVG/1.1/DTD/svg11.dtd">
<svg xmlns:xlink="http://www.w3.org/1999/xlink" width="720pt" height="360pt" viewBox="0 0 720 360" xmlns="http://www.w3.org/2000/svg" version="1.1">
 <metadata>
  <rdf:RDF xmlns:dc="http://purl.org/dc/elements/1.1/" xmlns:cc="http://creativecommons.org/ns#" xmlns:rdf="http://www.w3.org/1999/02/22-rdf-syntax-ns#">
   <cc:Work>
    <dc:type rdf:resource="http://purl.org/dc/dcmitype/StillImage"/>
    <dc:date>2022-03-09T00:42:56.934960</dc:date>
    <dc:format>image/svg+xml</dc:format>
    <dc:creator>
     <cc:Agent>
      <dc:title>Matplotlib v3.5.1, https://matplotlib.org/</dc:title>
     </cc:Agent>
    </dc:creator>
   </cc:Work>
  </rdf:RDF>
 </metadata>
 <defs>
  <style type="text/css">*{stroke-linejoin: round; stroke-linecap: butt}</style>
 </defs>
 <g id="figure_1">
  <g id="patch_1">
   <path d="M 0 360 
L 720 360 
L 720 0 
L 0 0 
L 0 360 
z
" style="fill: none"/>
  </g>
  <g id="axes_1">
   <g id="patch_2">
    <path d="M 50.46 327.04 
L 707.04 327.04 
L 707.04 12.96 
L 50.46 12.96 
z
" style="fill: #ffffff"/>
   </g>
   <g id="matplotlib.axis_1">
    <g id="xtick_1">
     <g id="line2d_1">
      <defs>
       <path id="m273debf169" d="M 0 0 
L 0 3.5 
" style="stroke: #000000; stroke-width: 0.8"/>
      </defs>
      <g>
       <use xlink:href="#m273debf169" x="80.304545" y="327.04" style="stroke: #000000; stroke-width: 0.8"/>
      </g>
     </g>
     <g id="text_1">
      <!-- Dec 05 -->
      <g transform="translate(59.151733 343.158125)scale(0.12 -0.12)">
       <defs>
        <path id="DejaVuSans-44" d="M 1259 4147 
L 1259 519 
L 2022 519 
Q 2988 519 3436 956 
Q 3884 1394 3884 2338 
Q 3884 3275 3436 3711 
Q 2988 4147 2022 4147 
L 1259 4147 
z
M 628 4666 
L 1925 4666 
Q 3281 4666 3915 4102 
Q 4550 3538 4550 2338 
Q 4550 1131 3912 565 
Q 3275 0 1925 0 
L 628 0 
L 628 4666 
z
" transform="scale(0.015625)"/>
        <path id="DejaVuSans-65" d="M 3597 1894 
L 3597 1613 
L 953 1613 
Q 991 1019 1311 708 
Q 1631 397 2203 397 
Q 2534 397 2845 478 
Q 3156 559 3463 722 
L 3463 178 
Q 3153 47 2828 -22 
Q 2503 -91 2169 -91 
Q 1331 -91 842 396 
Q 353 884 353 1716 
Q 353 2575 817 3079 
Q 1281 3584 2069 3584 
Q 2775 3584 3186 3129 
Q 3597 2675 3597 1894 
z
M 3022 2063 
Q 3016 2534 2758 2815 
Q 2500 3097 2075 3097 
Q 1594 3097 1305 2825 
Q 1016 2553 972 2059 
L 3022 2063 
z
" transform="scale(0.015625)"/>
        <path id="DejaVuSans-63" d="M 3122 3366 
L 3122 2828 
Q 2878 2963 2633 3030 
Q 2388 3097 2138 3097 
Q 1578 3097 1268 2742 
Q 959 2388 959 1747 
Q 959 1106 1268 751 
Q 1578 397 2138 397 
Q 2388 397 2633 464 
Q 2878 531 3122 666 
L 3122 134 
Q 2881 22 2623 -34 
Q 2366 -91 2075 -91 
Q 1284 -91 818 406 
Q 353 903 353 1747 
Q 353 2603 823 3093 
Q 1294 3584 2113 3584 
Q 2378 3584 2631 3529 
Q 2884 3475 3122 3366 
z
" transform="scale(0.015625)"/>
        <path id="DejaVuSans-20" transform="scale(0.015625)"/>
        <path id="DejaVuSans-30" d="M 2034 4250 
Q 1547 4250 1301 3770 
Q 1056 3291 1056 2328 
Q 1056 1369 1301 889 
Q 1547 409 2034 409 
Q 2525 409 2770 889 
Q 3016 1369 3016 2328 
Q 3016 3291 2770 3770 
Q 2525 4250 2034 4250 
z
M 2034 4750 
Q 2819 4750 3233 4129 
Q 3647 3509 3647 2328 
Q 3647 1150 3233 529 
Q 2819 -91 2034 -91 
Q 1250 -91 836 529 
Q 422 1150 422 2328 
Q 422 3509 836 4129 
Q 1250 4750 2034 4750 
z
" transform="scale(0.015625)"/>
        <path id="DejaVuSans-35" d="M 691 4666 
L 3169 4666 
L 3169 4134 
L 1269 4134 
L 1269 2991 
Q 1406 3038 1543 3061 
Q 1681 3084 1819 3084 
Q 2600 3084 3056 2656 
Q 3513 2228 3513 1497 
Q 3513 744 3044 326 
Q 2575 -91 1722 -91 
Q 1428 -91 1123 -41 
Q 819 9 494 109 
L 494 744 
Q 775 591 1075 516 
Q 1375 441 1709 441 
Q 2250 441 2565 725 
Q 2881 1009 2881 1497 
Q 2881 1984 2565 2268 
Q 2250 2553 1709 2553 
Q 1456 2553 1204 2497 
Q 953 2441 691 2322 
L 691 4666 
z
" transform="scale(0.015625)"/>
       </defs>
       <use xlink:href="#DejaVuSans-44"/>
       <use xlink:href="#DejaVuSans-65" x="77.001953"/>
       <use xlink:href="#DejaVuSans-63" x="138.525391"/>
       <use xlink:href="#DejaVuSans-20" x="193.505859"/>
       <use xlink:href="#DejaVuSans-30" x="225.292969"/>
       <use xlink:href="#DejaVuSans-35" x="288.916016"/>
      </g>
     </g>
    </g>
    <g id="xtick_2">
     <g id="line2d_2">
      <g>
       <use xlink:href="#m273debf169" x="150.904545" y="327.04" style="stroke: #000000; stroke-width: 0.8"/>
      </g>
     </g>
     <g id="text_2">
      <!-- Dec 16 -->
      <g transform="translate(129.751733 343.158125)scale(0.12 -0.12)">
       <defs>
        <path id="DejaVuSans-31" d="M 794 531 
L 1825 531 
L 1825 4091 
L 703 3866 
L 703 4441 
L 1819 4666 
L 2450 4666 
L 2450 531 
L 3481 531 
L 3481 0 
L 794 0 
L 794 531 
z
" transform="scale(0.015625)"/>
        <path id="DejaVuSans-36" d="M 2113 2584 
Q 1688 2584 1439 2293 
Q 1191 2003 1191 1497 
Q 1191 994 1439 701 
Q 1688 409 2113 409 
Q 2538 409 2786 701 
Q 3034 994 3034 1497 
Q 3034 2003 2786 2293 
Q 2538 2584 2113 2584 
z
M 3366 4563 
L 3366 3988 
Q 3128 4100 2886 4159 
Q 2644 4219 2406 4219 
Q 1781 4219 1451 3797 
Q 1122 3375 1075 2522 
Q 1259 2794 1537 2939 
Q 1816 3084 2150 3084 
Q 2853 3084 3261 2657 
Q 3669 2231 3669 1497 
Q 3669 778 3244 343 
Q 2819 -91 2113 -91 
Q 1303 -91 875 529 
Q 447 1150 447 2328 
Q 447 3434 972 4092 
Q 1497 4750 2381 4750 
Q 2619 4750 2861 4703 
Q 3103 4656 3366 4563 
z
" transform="scale(0.015625)"/>
       </defs>
       <use xlink:href="#DejaVuSans-44"/>
       <use xlink:href="#DejaVuSans-65" x="77.001953"/>
       <use xlink:href="#DejaVuSans-63" x="138.525391"/>
       <use xlink:href="#DejaVuSans-20" x="193.505859"/>
       <use xlink:href="#DejaVuSans-31" x="225.292969"/>
       <use xlink:href="#DejaVuSans-36" x="288.916016"/>
      </g>
     </g>
    </g>
    <g id="xtick_3">
     <g id="line2d_3">
      <g>
       <use xlink:href="#m273debf169" x="221.504545" y="327.04" style="stroke: #000000; stroke-width: 0.8"/>
      </g>
     </g>
     <g id="text_3">
      <!-- Dec 27 -->
      <g transform="translate(200.351733 343.158125)scale(0.12 -0.12)">
       <defs>
        <path id="DejaVuSans-32" d="M 1228 531 
L 3431 531 
L 3431 0 
L 469 0 
L 469 531 
Q 828 903 1448 1529 
Q 2069 2156 2228 2338 
Q 2531 2678 2651 2914 
Q 2772 3150 2772 3378 
Q 2772 3750 2511 3984 
Q 2250 4219 1831 4219 
Q 1534 4219 1204 4116 
Q 875 4013 500 3803 
L 500 4441 
Q 881 4594 1212 4672 
Q 1544 4750 1819 4750 
Q 2544 4750 2975 4387 
Q 3406 4025 3406 3419 
Q 3406 3131 3298 2873 
Q 3191 2616 2906 2266 
Q 2828 2175 2409 1742 
Q 1991 1309 1228 531 
z
" transform="scale(0.015625)"/>
        <path id="DejaVuSans-37" d="M 525 4666 
L 3525 4666 
L 3525 4397 
L 1831 0 
L 1172 0 
L 2766 4134 
L 525 4134 
L 525 4666 
z
" transform="scale(0.015625)"/>
       </defs>
       <use xlink:href="#DejaVuSans-44"/>
       <use xlink:href="#DejaVuSans-65" x="77.001953"/>
       <use xlink:href="#DejaVuSans-63" x="138.525391"/>
       <use xlink:href="#DejaVuSans-20" x="193.505859"/>
       <use xlink:href="#DejaVuSans-32" x="225.292969"/>
       <use xlink:href="#DejaVuSans-37" x="288.916016"/>
      </g>
     </g>
    </g>
    <g id="xtick_4">
     <g id="line2d_4">
      <g>
       <use xlink:href="#m273debf169" x="292.104545" y="327.04" style="stroke: #000000; stroke-width: 0.8"/>
      </g>
     </g>
     <g id="text_4">
      <!-- Jan 07 -->
      <g transform="translate(273.313295 343.158125)scale(0.12 -0.12)">
       <defs>
        <path id="DejaVuSans-4a" d="M 628 4666 
L 1259 4666 
L 1259 325 
Q 1259 -519 939 -900 
Q 619 -1281 -91 -1281 
L -331 -1281 
L -331 -750 
L -134 -750 
Q 284 -750 456 -515 
Q 628 -281 628 325 
L 628 4666 
z
" transform="scale(0.015625)"/>
        <path id="DejaVuSans-61" d="M 2194 1759 
Q 1497 1759 1228 1600 
Q 959 1441 959 1056 
Q 959 750 1161 570 
Q 1363 391 1709 391 
Q 2188 391 2477 730 
Q 2766 1069 2766 1631 
L 2766 1759 
L 2194 1759 
z
M 3341 1997 
L 3341 0 
L 2766 0 
L 2766 531 
Q 2569 213 2275 61 
Q 1981 -91 1556 -91 
Q 1019 -91 701 211 
Q 384 513 384 1019 
Q 384 1609 779 1909 
Q 1175 2209 1959 2209 
L 2766 2209 
L 2766 2266 
Q 2766 2663 2505 2880 
Q 2244 3097 1772 3097 
Q 1472 3097 1187 3025 
Q 903 2953 641 2809 
L 641 3341 
Q 956 3463 1253 3523 
Q 1550 3584 1831 3584 
Q 2591 3584 2966 3190 
Q 3341 2797 3341 1997 
z
" transform="scale(0.015625)"/>
        <path id="DejaVuSans-6e" d="M 3513 2113 
L 3513 0 
L 2938 0 
L 2938 2094 
Q 2938 2591 2744 2837 
Q 2550 3084 2163 3084 
Q 1697 3084 1428 2787 
Q 1159 2491 1159 1978 
L 1159 0 
L 581 0 
L 581 3500 
L 1159 3500 
L 1159 2956 
Q 1366 3272 1645 3428 
Q 1925 3584 2291 3584 
Q 2894 3584 3203 3211 
Q 3513 2838 3513 2113 
z
" transform="scale(0.015625)"/>
       </defs>
       <use xlink:href="#DejaVuSans-4a"/>
       <use xlink:href="#DejaVuSans-61" x="29.492188"/>
       <use xlink:href="#DejaVuSans-6e" x="90.771484"/>
       <use xlink:href="#DejaVuSans-20" x="154.150391"/>
       <use xlink:href="#DejaVuSans-30" x="185.9375"/>
       <use xlink:href="#DejaVuSans-37" x="249.560547"/>
      </g>
     </g>
    </g>
    <g id="xtick_5">
     <g id="line2d_5">
      <g>
       <use xlink:href="#m273debf169" x="362.704545" y="327.04" style="stroke: #000000; stroke-width: 0.8"/>
      </g>
     </g>
     <g id="text_5">
      <!-- Jan 18 -->
      <g transform="translate(343.913295 343.158125)scale(0.12 -0.12)">
       <defs>
        <path id="DejaVuSans-38" d="M 2034 2216 
Q 1584 2216 1326 1975 
Q 1069 1734 1069 1313 
Q 1069 891 1326 650 
Q 1584 409 2034 409 
Q 2484 409 2743 651 
Q 3003 894 3003 1313 
Q 3003 1734 2745 1975 
Q 2488 2216 2034 2216 
z
M 1403 2484 
Q 997 2584 770 2862 
Q 544 3141 544 3541 
Q 544 4100 942 4425 
Q 1341 4750 2034 4750 
Q 2731 4750 3128 4425 
Q 3525 4100 3525 3541 
Q 3525 3141 3298 2862 
Q 3072 2584 2669 2484 
Q 3125 2378 3379 2068 
Q 3634 1759 3634 1313 
Q 3634 634 3220 271 
Q 2806 -91 2034 -91 
Q 1263 -91 848 271 
Q 434 634 434 1313 
Q 434 1759 690 2068 
Q 947 2378 1403 2484 
z
M 1172 3481 
Q 1172 3119 1398 2916 
Q 1625 2713 2034 2713 
Q 2441 2713 2670 2916 
Q 2900 3119 2900 3481 
Q 2900 3844 2670 4047 
Q 2441 4250 2034 4250 
Q 1625 4250 1398 4047 
Q 1172 3844 1172 3481 
z
" transform="scale(0.015625)"/>
       </defs>
       <use xlink:href="#DejaVuSans-4a"/>
       <use xlink:href="#DejaVuSans-61" x="29.492188"/>
       <use xlink:href="#DejaVuSans-6e" x="90.771484"/>
       <use xlink:href="#DejaVuSans-20" x="154.150391"/>
       <use xlink:href="#DejaVuSans-31" x="185.9375"/>
       <use xlink:href="#DejaVuSans-38" x="249.560547"/>
      </g>
     </g>
    </g>
    <g id="xtick_6">
     <g id="line2d_6">
      <g>
       <use xlink:href="#m273debf169" x="433.304545" y="327.04" style="stroke: #000000; stroke-width: 0.8"/>
      </g>
     </g>
     <g id="text_6">
      <!-- Jan 29 -->
      <g transform="translate(414.513295 343.158125)scale(0.12 -0.12)">
       <defs>
        <path id="DejaVuSans-39" d="M 703 97 
L 703 672 
Q 941 559 1184 500 
Q 1428 441 1663 441 
Q 2288 441 2617 861 
Q 2947 1281 2994 2138 
Q 2813 1869 2534 1725 
Q 2256 1581 1919 1581 
Q 1219 1581 811 2004 
Q 403 2428 403 3163 
Q 403 3881 828 4315 
Q 1253 4750 1959 4750 
Q 2769 4750 3195 4129 
Q 3622 3509 3622 2328 
Q 3622 1225 3098 567 
Q 2575 -91 1691 -91 
Q 1453 -91 1209 -44 
Q 966 3 703 97 
z
M 1959 2075 
Q 2384 2075 2632 2365 
Q 2881 2656 2881 3163 
Q 2881 3666 2632 3958 
Q 2384 4250 1959 4250 
Q 1534 4250 1286 3958 
Q 1038 3666 1038 3163 
Q 1038 2656 1286 2365 
Q 1534 2075 1959 2075 
z
" transform="scale(0.015625)"/>
       </defs>
       <use xlink:href="#DejaVuSans-4a"/>
       <use xlink:href="#DejaVuSans-61" x="29.492188"/>
       <use xlink:href="#DejaVuSans-6e" x="90.771484"/>
       <use xlink:href="#DejaVuSans-20" x="154.150391"/>
       <use xlink:href="#DejaVuSans-32" x="185.9375"/>
       <use xlink:href="#DejaVuSans-39" x="249.560547"/>
      </g>
     </g>
    </g>
    <g id="xtick_7">
     <g id="line2d_7">
      <g>
       <use xlink:href="#m273debf169" x="503.904545" y="327.04" style="stroke: #000000; stroke-width: 0.8"/>
      </g>
     </g>
     <g id="text_7">
      <!-- Feb 09 -->
      <g transform="translate(483.740795 343.158125)scale(0.12 -0.12)">
       <defs>
        <path id="DejaVuSans-46" d="M 628 4666 
L 3309 4666 
L 3309 4134 
L 1259 4134 
L 1259 2759 
L 3109 2759 
L 3109 2228 
L 1259 2228 
L 1259 0 
L 628 0 
L 628 4666 
z
" transform="scale(0.015625)"/>
        <path id="DejaVuSans-62" d="M 3116 1747 
Q 3116 2381 2855 2742 
Q 2594 3103 2138 3103 
Q 1681 3103 1420 2742 
Q 1159 2381 1159 1747 
Q 1159 1113 1420 752 
Q 1681 391 2138 391 
Q 2594 391 2855 752 
Q 3116 1113 3116 1747 
z
M 1159 2969 
Q 1341 3281 1617 3432 
Q 1894 3584 2278 3584 
Q 2916 3584 3314 3078 
Q 3713 2572 3713 1747 
Q 3713 922 3314 415 
Q 2916 -91 2278 -91 
Q 1894 -91 1617 61 
Q 1341 213 1159 525 
L 1159 0 
L 581 0 
L 581 4863 
L 1159 4863 
L 1159 2969 
z
" transform="scale(0.015625)"/>
       </defs>
       <use xlink:href="#DejaVuSans-46"/>
       <use xlink:href="#DejaVuSans-65" x="52.019531"/>
       <use xlink:href="#DejaVuSans-62" x="113.542969"/>
       <use xlink:href="#DejaVuSans-20" x="177.019531"/>
       <use xlink:href="#DejaVuSans-30" x="208.806641"/>
       <use xlink:href="#DejaVuSans-39" x="272.429688"/>
      </g>
     </g>
    </g>
    <g id="xtick_8">
     <g id="line2d_8">
      <g>
       <use xlink:href="#m273debf169" x="574.504545" y="327.04" style="stroke: #000000; stroke-width: 0.8"/>
      </g>
     </g>
     <g id="text_8">
      <!-- Feb 20 -->
      <g transform="translate(554.340795 343.158125)scale(0.12 -0.12)">
       <use xlink:href="#DejaVuSans-46"/>
       <use xlink:href="#DejaVuSans-65" x="52.019531"/>
       <use xlink:href="#DejaVuSans-62" x="113.542969"/>
       <use xlink:href="#DejaVuSans-20" x="177.019531"/>
       <use xlink:href="#DejaVuSans-32" x="208.806641"/>
       <use xlink:href="#DejaVuSans-30" x="272.429688"/>
      </g>
     </g>
    </g>
    <g id="xtick_9">
     <g id="line2d_9">
      <g>
       <use xlink:href="#m273debf169" x="645.104545" y="327.04" style="stroke: #000000; stroke-width: 0.8"/>
      </g>
     </g>
     <g id="text_9">
      <!-- Mar 03 -->
      <g transform="translate(624.242358 343.158125)scale(0.12 -0.12)">
       <defs>
        <path id="DejaVuSans-4d" d="M 628 4666 
L 1569 4666 
L 2759 1491 
L 3956 4666 
L 4897 4666 
L 4897 0 
L 4281 0 
L 4281 4097 
L 3078 897 
L 2444 897 
L 1241 4097 
L 1241 0 
L 628 0 
L 628 4666 
z
" transform="scale(0.015625)"/>
        <path id="DejaVuSans-72" d="M 2631 2963 
Q 2534 3019 2420 3045 
Q 2306 3072 2169 3072 
Q 1681 3072 1420 2755 
Q 1159 2438 1159 1844 
L 1159 0 
L 581 0 
L 581 3500 
L 1159 3500 
L 1159 2956 
Q 1341 3275 1631 3429 
Q 1922 3584 2338 3584 
Q 2397 3584 2469 3576 
Q 2541 3569 2628 3553 
L 2631 2963 
z
" transform="scale(0.015625)"/>
        <path id="DejaVuSans-33" d="M 2597 2516 
Q 3050 2419 3304 2112 
Q 3559 1806 3559 1356 
Q 3559 666 3084 287 
Q 2609 -91 1734 -91 
Q 1441 -91 1130 -33 
Q 819 25 488 141 
L 488 750 
Q 750 597 1062 519 
Q 1375 441 1716 441 
Q 2309 441 2620 675 
Q 2931 909 2931 1356 
Q 2931 1769 2642 2001 
Q 2353 2234 1838 2234 
L 1294 2234 
L 1294 2753 
L 1863 2753 
Q 2328 2753 2575 2939 
Q 2822 3125 2822 3475 
Q 2822 3834 2567 4026 
Q 2313 4219 1838 4219 
Q 1578 4219 1281 4162 
Q 984 4106 628 3988 
L 628 4550 
Q 988 4650 1302 4700 
Q 1616 4750 1894 4750 
Q 2613 4750 3031 4423 
Q 3450 4097 3450 3541 
Q 3450 3153 3228 2886 
Q 3006 2619 2597 2516 
z
" transform="scale(0.015625)"/>
       </defs>
       <use xlink:href="#DejaVuSans-4d"/>
       <use xlink:href="#DejaVuSans-61" x="86.279297"/>
       <use xlink:href="#DejaVuSans-72" x="147.558594"/>
       <use xlink:href="#DejaVuSans-20" x="188.671875"/>
       <use xlink:href="#DejaVuSans-30" x="220.458984"/>
       <use xlink:href="#DejaVuSans-33" x="284.082031"/>
      </g>
     </g>
    </g>
   </g>
   <g id="matplotlib.axis_2">
    <g id="ytick_1">
     <g id="line2d_10">
      <defs>
       <path id="m0c5239dda0" d="M 0 0 
L -3.5 0 
" style="stroke: #000000; stroke-width: 0.8"/>
      </defs>
      <g>
       <use xlink:href="#m0c5239dda0" x="50.46" y="327.04" style="stroke: #000000; stroke-width: 0.8"/>
      </g>
     </g>
     <g id="text_10">
      <!-- 0 -->
      <g transform="translate(35.825 331.599063)scale(0.12 -0.12)">
       <use xlink:href="#DejaVuSans-30"/>
      </g>
     </g>
    </g>
    <g id="ytick_2">
     <g id="line2d_11">
      <g>
       <use xlink:href="#m0c5239dda0" x="50.46" y="285.104516" style="stroke: #000000; stroke-width: 0.8"/>
      </g>
     </g>
     <g id="text_11">
      <!-- 500 -->
      <g transform="translate(20.555 289.663579)scale(0.12 -0.12)">
       <use xlink:href="#DejaVuSans-35"/>
       <use xlink:href="#DejaVuSans-30" x="63.623047"/>
       <use xlink:href="#DejaVuSans-30" x="127.246094"/>
      </g>
     </g>
    </g>
    <g id="ytick_3">
     <g id="line2d_12">
      <g>
       <use xlink:href="#m0c5239dda0" x="50.46" y="243.169032" style="stroke: #000000; stroke-width: 0.8"/>
      </g>
     </g>
     <g id="text_12">
      <!-- 1000 -->
      <g transform="translate(12.92 247.728095)scale(0.12 -0.12)">
       <use xlink:href="#DejaVuSans-31"/>
       <use xlink:href="#DejaVuSans-30" x="63.623047"/>
       <use xlink:href="#DejaVuSans-30" x="127.246094"/>
       <use xlink:href="#DejaVuSans-30" x="190.869141"/>
      </g>
     </g>
    </g>
    <g id="ytick_4">
     <g id="line2d_13">
      <g>
       <use xlink:href="#m0c5239dda0" x="50.46" y="201.233548" style="stroke: #000000; stroke-width: 0.8"/>
      </g>
     </g>
     <g id="text_13">
      <!-- 1500 -->
      <g transform="translate(12.92 205.792611)scale(0.12 -0.12)">
       <use xlink:href="#DejaVuSans-31"/>
       <use xlink:href="#DejaVuSans-35" x="63.623047"/>
       <use xlink:href="#DejaVuSans-30" x="127.246094"/>
       <use xlink:href="#DejaVuSans-30" x="190.869141"/>
      </g>
     </g>
    </g>
    <g id="ytick_5">
     <g id="line2d_14">
      <g>
       <use xlink:href="#m0c5239dda0" x="50.46" y="159.298065" style="stroke: #000000; stroke-width: 0.8"/>
      </g>
     </g>
     <g id="text_14">
      <!-- 2000 -->
      <g transform="translate(12.92 163.857127)scale(0.12 -0.12)">
       <use xlink:href="#DejaVuSans-32"/>
       <use xlink:href="#DejaVuSans-30" x="63.623047"/>
       <use xlink:href="#DejaVuSans-30" x="127.246094"/>
       <use xlink:href="#DejaVuSans-30" x="190.869141"/>
      </g>
     </g>
    </g>
    <g id="ytick_6">
     <g id="line2d_15">
      <g>
       <use xlink:href="#m0c5239dda0" x="50.46" y="117.362581" style="stroke: #000000; stroke-width: 0.8"/>
      </g>
     </g>
     <g id="text_15">
      <!-- 2500 -->
      <g transform="translate(12.92 121.921643)scale(0.12 -0.12)">
       <use xlink:href="#DejaVuSans-32"/>
       <use xlink:href="#DejaVuSans-35" x="63.623047"/>
       <use xlink:href="#DejaVuSans-30" x="127.246094"/>
       <use xlink:href="#DejaVuSans-30" x="190.869141"/>
      </g>
     </g>
    </g>
    <g id="ytick_7">
     <g id="line2d_16">
      <g>
       <use xlink:href="#m0c5239dda0" x="50.46" y="75.427097" style="stroke: #000000; stroke-width: 0.8"/>
      </g>
     </g>
     <g id="text_16">
      <!-- 3000 -->
      <g transform="translate(12.92 79.986159)scale(0.12 -0.12)">
       <use xlink:href="#DejaVuSans-33"/>
       <use xlink:href="#DejaVuSans-30" x="63.623047"/>
       <use xlink:href="#DejaVuSans-30" x="127.246094"/>
       <use xlink:href="#DejaVuSans-30" x="190.869141"/>
      </g>
     </g>
    </g>
    <g id="ytick_8">
     <g id="line2d_17">
      <g>
       <use xlink:href="#m0c5239dda0" x="50.46" y="33.491613" style="stroke: #000000; stroke-width: 0.8"/>
      </g>
     </g>
     <g id="text_17">
      <!-- 3500 -->
      <g transform="translate(12.92 38.050675)scale(0.12 -0.12)">
       <use xlink:href="#DejaVuSans-33"/>
       <use xlink:href="#DejaVuSans-35" x="63.623047"/>
       <use xlink:href="#DejaVuSans-30" x="127.246094"/>
       <use xlink:href="#DejaVuSans-30" x="190.869141"/>
      </g>
     </g>
    </g>
   </g>
   <g id="line2d_18">
    <path d="M 80.304545 313.788387 
L 86.722727 310.014194 
L 93.140909 310.265806 
L 99.559091 303.723871 
L 105.977273 308.672258 
L 112.395455 310.769032 
L 118.813636 311.691613 
L 125.231818 310.433548 
L 131.65 306.575484 
L 138.068182 307.414194 
L 144.486364 299.110968 
L 150.904545 299.110968 
L 157.322727 306.24 
L 163.740909 304.310968 
L 170.159091 308.504516 
L 176.577273 305.904516 
L 182.995455 307.162581 
L 189.413636 304.981935 
L 195.831818 304.814194 
L 202.25 306.743226 
L 208.668182 306.407742 
L 215.086364 312.781935 
L 221.504545 310.181935 
L 227.922727 305.233548 
L 234.340909 302.717419 
L 240.759091 298.356129 
L 247.177273 299.27871 
L 253.595455 298.104516 
L 260.013636 294.246452 
L 266.431818 288.459355 
L 272.85 271.60129 
L 279.268182 259.188387 
L 285.686364 261.117419 
L 292.104545 263.80129 
L 298.522727 229.665806 
L 304.940909 226.981935 
L 311.359091 246.943226 
L 317.777273 220.691613 
L 324.195455 207.691613 
L 330.613636 208.781935 
L 337.031818 209.536774 
L 343.45 244.007742 
L 349.868182 165.00129 
L 356.286364 206.098065 
L 362.704545 238.136774 
L 369.122727 220.188387 
L 375.540909 211.381935 
L 381.959091 227.569032 
L 388.377273 225.220645 
L 394.795455 242.749677 
L 401.213636 266.40129 
L 407.631818 239.814194 
L 414.05 246.859355 
L 420.468182 254.323871 
L 426.886364 264.388387 
L 433.304545 254.743226 
L 439.722727 268.581935 
L 446.140909 274.788387 
L 452.559091 273.530323 
L 458.977273 258.014194 
L 465.395455 270.427097 
L 471.813636 276.465806 
L 478.231818 286.698065 
L 484.65 284.265806 
L 491.068182 285.104516 
L 497.486364 274.956129 
L 503.904545 269.169032 
L 510.322727 278.394839 
L 516.740909 280.994839 
L 523.159091 287.620645 
L 529.577273 288.375484 
L 535.995455 288.962581 
L 542.413636 285.943226 
L 548.831818 276.130323 
L 555.25 280.491613 
L 561.668182 291.394839 
L 568.086364 295.504516 
L 574.504545 299.194839 
L 580.922727 300.788387 
L 587.340909 296.175484 
L 593.759091 289.465806 
L 600.177273 297.265806 
L 606.595455 298.104516 
L 613.013636 296.930323 
L 619.431818 302.381935 
L 625.85 304.227097 
L 632.268182 303.891613 
L 638.686364 298.188387 
L 645.104545 305.317419 
L 651.522727 302.214194 
L 657.940909 308.169032 
L 664.359091 310.685161 
L 670.777273 312.027097 
L 677.195455 310.265806 
" clip-path="url(#p863f577982)" style="fill: none; stroke: #1f77b4; stroke-width: 1.5; stroke-linecap: square"/>
    <defs>
     <path id="m1104d24fcd" d="M 0 3 
C 0.795609 3 1.55874 2.683901 2.12132 2.12132 
C 2.683901 1.55874 3 0.795609 3 0 
C 3 -0.795609 2.683901 -1.55874 2.12132 -2.12132 
C 1.55874 -2.683901 0.795609 -3 0 -3 
C -0.795609 -3 -1.55874 -2.683901 -2.12132 -2.12132 
C -2.683901 -1.55874 -3 -0.795609 -3 0 
C -3 0.795609 -2.683901 1.55874 -2.12132 2.12132 
C -1.55874 2.683901 -0.795609 3 0 3 
z
" style="stroke: #1f77b4"/>
    </defs>
    <g clip-path="url(#p863f577982)">
     <use xlink:href="#m1104d24fcd" x="80.304545" y="313.788387" style="fill: #1f77b4; stroke: #1f77b4"/>
     <use xlink:href="#m1104d24fcd" x="86.722727" y="310.014194" style="fill: #1f77b4; stroke: #1f77b4"/>
     <use xlink:href="#m1104d24fcd" x="93.140909" y="310.265806" style="fill: #1f77b4; stroke: #1f77b4"/>
     <use xlink:href="#m1104d24fcd" x="99.559091" y="303.723871" style="fill: #1f77b4; stroke: #1f77b4"/>
     <use xlink:href="#m1104d24fcd" x="105.977273" y="308.672258" style="fill: #1f77b4; stroke: #1f77b4"/>
     <use xlink:href="#m1104d24fcd" x="112.395455" y="310.769032" style="fill: #1f77b4; stroke: #1f77b4"/>
     <use xlink:href="#m1104d24fcd" x="118.813636" y="311.691613" style="fill: #1f77b4; stroke: #1f77b4"/>
     <use xlink:href="#m1104d24fcd" x="125.231818" y="310.433548" style="fill: #1f77b4; stroke: #1f77b4"/>
     <use xlink:href="#m1104d24fcd" x="131.65" y="306.575484" style="fill: #1f77b4; stroke: #1f77b4"/>
     <use xlink:href="#m1104d24fcd" x="138.068182" y="307.414194" style="fill: #1f77b4; stroke: #1f77b4"/>
     <use xlink:href="#m1104d24fcd" x="144.486364" y="299.110968" style="fill: #1f77b4; stroke: #1f77b4"/>
     <use xlink:href="#m1104d24fcd" x="150.904545" y="299.110968" style="fill: #1f77b4; stroke: #1f77b4"/>
     <use xlink:href="#m1104d24fcd" x="157.322727" y="306.24" style="fill: #1f77b4; stroke: #1f77b4"/>
     <use xlink:href="#m1104d24fcd" x="163.740909" y="304.310968" style="fill: #1f77b4; stroke: #1f77b4"/>
     <use xlink:href="#m1104d24fcd" x="170.159091" y="308.504516" style="fill: #1f77b4; stroke: #1f77b4"/>
     <use xlink:href="#m1104d24fcd" x="176.577273" y="305.904516" style="fill: #1f77b4; stroke: #1f77b4"/>
     <use xlink:href="#m1104d24fcd" x="182.995455" y="307.162581" style="fill: #1f77b4; stroke: #1f77b4"/>
     <use xlink:href="#m1104d24fcd" x="189.413636" y="304.981935" style="fill: #1f77b4; stroke: #1f77b4"/>
     <use xlink:href="#m1104d24fcd" x="195.831818" y="304.814194" style="fill: #1f77b4; stroke: #1f77b4"/>
     <use xlink:href="#m1104d24fcd" x="202.25" y="306.743226" style="fill: #1f77b4; stroke: #1f77b4"/>
     <use xlink:href="#m1104d24fcd" x="208.668182" y="306.407742" style="fill: #1f77b4; stroke: #1f77b4"/>
     <use xlink:href="#m1104d24fcd" x="215.086364" y="312.781935" style="fill: #1f77b4; stroke: #1f77b4"/>
     <use xlink:href="#m1104d24fcd" x="221.504545" y="310.181935" style="fill: #1f77b4; stroke: #1f77b4"/>
     <use xlink:href="#m1104d24fcd" x="227.922727" y="305.233548" style="fill: #1f77b4; stroke: #1f77b4"/>
     <use xlink:href="#m1104d24fcd" x="234.340909" y="302.717419" style="fill: #1f77b4; stroke: #1f77b4"/>
     <use xlink:href="#m1104d24fcd" x="240.759091" y="298.356129" style="fill: #1f77b4; stroke: #1f77b4"/>
     <use xlink:href="#m1104d24fcd" x="247.177273" y="299.27871" style="fill: #1f77b4; stroke: #1f77b4"/>
     <use xlink:href="#m1104d24fcd" x="253.595455" y="298.104516" style="fill: #1f77b4; stroke: #1f77b4"/>
     <use xlink:href="#m1104d24fcd" x="260.013636" y="294.246452" style="fill: #1f77b4; stroke: #1f77b4"/>
     <use xlink:href="#m1104d24fcd" x="266.431818" y="288.459355" style="fill: #1f77b4; stroke: #1f77b4"/>
     <use xlink:href="#m1104d24fcd" x="272.85" y="271.60129" style="fill: #1f77b4; stroke: #1f77b4"/>
     <use xlink:href="#m1104d24fcd" x="279.268182" y="259.188387" style="fill: #1f77b4; stroke: #1f77b4"/>
     <use xlink:href="#m1104d24fcd" x="285.686364" y="261.117419" style="fill: #1f77b4; stroke: #1f77b4"/>
     <use xlink:href="#m1104d24fcd" x="292.104545" y="263.80129" style="fill: #1f77b4; stroke: #1f77b4"/>
     <use xlink:href="#m1104d24fcd" x="298.522727" y="229.665806" style="fill: #1f77b4; stroke: #1f77b4"/>
     <use xlink:href="#m1104d24fcd" x="304.940909" y="226.981935" style="fill: #1f77b4; stroke: #1f77b4"/>
     <use xlink:href="#m1104d24fcd" x="311.359091" y="246.943226" style="fill: #1f77b4; stroke: #1f77b4"/>
     <use xlink:href="#m1104d24fcd" x="317.777273" y="220.691613" style="fill: #1f77b4; stroke: #1f77b4"/>
     <use xlink:href="#m1104d24fcd" x="324.195455" y="207.691613" style="fill: #1f77b4; stroke: #1f77b4"/>
     <use xlink:href="#m1104d24fcd" x="330.613636" y="208.781935" style="fill: #1f77b4; stroke: #1f77b4"/>
     <use xlink:href="#m1104d24fcd" x="337.031818" y="209.536774" style="fill: #1f77b4; stroke: #1f77b4"/>
     <use xlink:href="#m1104d24fcd" x="343.45" y="244.007742" style="fill: #1f77b4; stroke: #1f77b4"/>
     <use xlink:href="#m1104d24fcd" x="349.868182" y="165.00129" style="fill: #1f77b4; stroke: #1f77b4"/>
     <use xlink:href="#m1104d24fcd" x="356.286364" y="206.098065" style="fill: #1f77b4; stroke: #1f77b4"/>
     <use xlink:href="#m1104d24fcd" x="362.704545" y="238.136774" style="fill: #1f77b4; stroke: #1f77b4"/>
     <use xlink:href="#m1104d24fcd" x="369.122727" y="220.188387" style="fill: #1f77b4; stroke: #1f77b4"/>
     <use xlink:href="#m1104d24fcd" x="375.540909" y="211.381935" style="fill: #1f77b4; stroke: #1f77b4"/>
     <use xlink:href="#m1104d24fcd" x="381.959091" y="227.569032" style="fill: #1f77b4; stroke: #1f77b4"/>
     <use xlink:href="#m1104d24fcd" x="388.377273" y="225.220645" style="fill: #1f77b4; stroke: #1f77b4"/>
     <use xlink:href="#m1104d24fcd" x="394.795455" y="242.749677" style="fill: #1f77b4; stroke: #1f77b4"/>
     <use xlink:href="#m1104d24fcd" x="401.213636" y="266.40129" style="fill: #1f77b4; stroke: #1f77b4"/>
     <use xlink:href="#m1104d24fcd" x="407.631818" y="239.814194" style="fill: #1f77b4; stroke: #1f77b4"/>
     <use xlink:href="#m1104d24fcd" x="414.05" y="246.859355" style="fill: #1f77b4; stroke: #1f77b4"/>
     <use xlink:href="#m1104d24fcd" x="420.468182" y="254.323871" style="fill: #1f77b4; stroke: #1f77b4"/>
     <use xlink:href="#m1104d24fcd" x="426.886364" y="264.388387" style="fill: #1f77b4; stroke: #1f77b4"/>
     <use xlink:href="#m1104d24fcd" x="433.304545" y="254.743226" style="fill: #1f77b4; stroke: #1f77b4"/>
     <use xlink:href="#m1104d24fcd" x="439.722727" y="268.581935" style="fill: #1f77b4; stroke: #1f77b4"/>
     <use xlink:href="#m1104d24fcd" x="446.140909" y="274.788387" style="fill: #1f77b4; stroke: #1f77b4"/>
     <use xlink:href="#m1104d24fcd" x="452.559091" y="273.530323" style="fill: #1f77b4; stroke: #1f77b4"/>
     <use xlink:href="#m1104d24fcd" x="458.977273" y="258.014194" style="fill: #1f77b4; stroke: #1f77b4"/>
     <use xlink:href="#m1104d24fcd" x="465.395455" y="270.427097" style="fill: #1f77b4; stroke: #1f77b4"/>
     <use xlink:href="#m1104d24fcd" x="471.813636" y="276.465806" style="fill: #1f77b4; stroke: #1f77b4"/>
     <use xlink:href="#m1104d24fcd" x="478.231818" y="286.698065" style="fill: #1f77b4; stroke: #1f77b4"/>
     <use xlink:href="#m1104d24fcd" x="484.65" y="284.265806" style="fill: #1f77b4; stroke: #1f77b4"/>
     <use xlink:href="#m1104d24fcd" x="491.068182" y="285.104516" style="fill: #1f77b4; stroke: #1f77b4"/>
     <use xlink:href="#m1104d24fcd" x="497.486364" y="274.956129" style="fill: #1f77b4; stroke: #1f77b4"/>
     <use xlink:href="#m1104d24fcd" x="503.904545" y="269.169032" style="fill: #1f77b4; stroke: #1f77b4"/>
     <use xlink:href="#m1104d24fcd" x="510.322727" y="278.394839" style="fill: #1f77b4; stroke: #1f77b4"/>
     <use xlink:href="#m1104d24fcd" x="516.740909" y="280.994839" style="fill: #1f77b4; stroke: #1f77b4"/>
     <use xlink:href="#m1104d24fcd" x="523.159091" y="287.620645" style="fill: #1f77b4; stroke: #1f77b4"/>
     <use xlink:href="#m1104d24fcd" x="529.577273" y="288.375484" style="fill: #1f77b4; stroke: #1f77b4"/>
     <use xlink:href="#m1104d24fcd" x="535.995455" y="288.962581" style="fill: #1f77b4; stroke: #1f77b4"/>
     <use xlink:href="#m1104d24fcd" x="542.413636" y="285.943226" style="fill: #1f77b4; stroke: #1f77b4"/>
     <use xlink:href="#m1104d24fcd" x="548.831818" y="276.130323" style="fill: #1f77b4; stroke: #1f77b4"/>
     <use xlink:href="#m1104d24fcd" x="555.25" y="280.491613" style="fill: #1f77b4; stroke: #1f77b4"/>
     <use xlink:href="#m1104d24fcd" x="561.668182" y="291.394839" style="fill: #1f77b4; stroke: #1f77b4"/>
     <use xlink:href="#m1104d24fcd" x="568.086364" y="295.504516" style="fill: #1f77b4; stroke: #1f77b4"/>
     <use xlink:href="#m1104d24fcd" x="574.504545" y="299.194839" style="fill: #1f77b4; stroke: #1f77b4"/>
     <use xlink:href="#m1104d24fcd" x="580.922727" y="300.788387" style="fill: #1f77b4; stroke: #1f77b4"/>
     <use xlink:href="#m1104d24fcd" x="587.340909" y="296.175484" style="fill: #1f77b4; stroke: #1f77b4"/>
     <use xlink:href="#m1104d24fcd" x="593.759091" y="289.465806" style="fill: #1f77b4; stroke: #1f77b4"/>
     <use xlink:href="#m1104d24fcd" x="600.177273" y="297.265806" style="fill: #1f77b4; stroke: #1f77b4"/>
     <use xlink:href="#m1104d24fcd" x="606.595455" y="298.104516" style="fill: #1f77b4; stroke: #1f77b4"/>
     <use xlink:href="#m1104d24fcd" x="613.013636" y="296.930323" style="fill: #1f77b4; stroke: #1f77b4"/>
     <use xlink:href="#m1104d24fcd" x="619.431818" y="302.381935" style="fill: #1f77b4; stroke: #1f77b4"/>
     <use xlink:href="#m1104d24fcd" x="625.85" y="304.227097" style="fill: #1f77b4; stroke: #1f77b4"/>
     <use xlink:href="#m1104d24fcd" x="632.268182" y="303.891613" style="fill: #1f77b4; stroke: #1f77b4"/>
     <use xlink:href="#m1104d24fcd" x="638.686364" y="298.188387" style="fill: #1f77b4; stroke: #1f77b4"/>
     <use xlink:href="#m1104d24fcd" x="645.104545" y="305.317419" style="fill: #1f77b4; stroke: #1f77b4"/>
     <use xlink:href="#m1104d24fcd" x="651.522727" y="302.214194" style="fill: #1f77b4; stroke: #1f77b4"/>
     <use xlink:href="#m1104d24fcd" x="657.940909" y="308.169032" style="fill: #1f77b4; stroke: #1f77b4"/>
     <use xlink:href="#m1104d24fcd" x="664.359091" y="310.685161" style="fill: #1f77b4; stroke: #1f77b4"/>
     <use xlink:href="#m1104d24fcd" x="670.777273" y="312.027097" style="fill: #1f77b4; stroke: #1f77b4"/>
     <use xlink:href="#m1104d24fcd" x="677.195455" y="310.265806" style="fill: #1f77b4; stroke: #1f77b4"/>
    </g>
   </g>
   <g id="line2d_19">
    <path d="M 80.304545 313.033548 
L 86.722727 311.356129 
L 93.140909 307.833548 
L 99.559091 307.749677 
L 105.977273 308.00129 
L 112.395455 312.027097 
L 118.813636 312.194839 
L 125.231818 312.446452 
L 131.65 310.433548 
L 138.068182 307.917419 
L 144.486364 306.827097 
L 150.904545 310.769032 
L 157.322727 311.188387 
L 163.740909 310.60129 
L 170.159091 311.44 
L 176.577273 311.104516 
L 182.995455 312.27871 
L 189.413636 309.594839 
L 195.831818 305.569032 
L 202.25 305.652903 
L 208.668182 302.80129 
L 215.086364 310.769032 
L 221.504545 307.833548 
L 227.922727 304.730323 
L 234.340909 292.065806 
L 240.759091 283.343226 
L 247.177273 275.627097 
L 253.595455 265.47871 
L 260.013636 267.491613 
L 266.431818 257.259355 
L 272.85 202.407742 
L 279.268182 158.291613 
L 285.686364 100.756129 
L 292.104545 94.465806 
L 298.522727 27.285161 
L 304.940909 57.646452 
L 311.359091 116.020645 
L 317.777273 117.614194 
L 324.195455 124.156129 
L 330.613636 141.852903 
L 337.031818 150.156129 
L 343.45 210.04 
L 349.868182 158.962581 
L 356.286364 208.362581 
L 362.704545 237.717419 
L 369.122727 227.904516 
L 375.540909 222.369032 
L 381.959091 237.130323 
L 388.377273 248.788387 
L 394.795455 265.310968 
L 401.213636 286.865806 
L 407.631818 265.394839 
L 414.05 267.323871 
L 420.468182 268.917419 
L 426.886364 273.530323 
L 433.304545 262.962581 
L 439.722727 280.743226 
L 446.140909 286.781935 
L 452.559091 277.975484 
L 458.977273 235.20129 
L 465.395455 262.375484 
L 471.813636 278.059355 
L 478.231818 296.175484 
L 484.65 296.175484 
L 491.068182 295.252903 
L 497.486364 287.872258 
L 503.904545 276.549677 
L 510.322727 280.910968 
L 516.740909 286.27871 
L 523.159091 289.885161 
L 529.577273 294.581935 
L 535.995455 292.149677 
L 542.413636 291.394839 
L 548.831818 277.304516 
L 555.25 279.317419 
L 561.668182 285.943226 
L 568.086364 293.407742 
L 574.504545 301.291613 
L 580.922727 296.762581 
L 587.340909 292.820645 
L 593.759091 285.188387 
L 600.177273 289.717419 
L 606.595455 288.04 
L 613.013636 293.910968 
L 619.431818 297.517419 
L 625.85 289.465806 
L 632.268182 284.014194 
L 638.686364 269.252903 
L 645.104545 281.498065 
L 651.522727 284.769032 
L 657.940909 290.723871 
L 664.359091 289.717419 
L 670.777273 298.104516 
L 677.195455 295.504516 
" clip-path="url(#p863f577982)" style="fill: none; stroke: #ff7f0e; stroke-width: 1.5; stroke-linecap: square"/>
    <defs>
     <path id="m58e8f9ff3e" d="M 0 3 
C 0.795609 3 1.55874 2.683901 2.12132 2.12132 
C 2.683901 1.55874 3 0.795609 3 0 
C 3 -0.795609 2.683901 -1.55874 2.12132 -2.12132 
C 1.55874 -2.683901 0.795609 -3 0 -3 
C -0.795609 -3 -1.55874 -2.683901 -2.12132 -2.12132 
C -2.683901 -1.55874 -3 -0.795609 -3 0 
C -3 0.795609 -2.683901 1.55874 -2.12132 2.12132 
C -1.55874 2.683901 -0.795609 3 0 3 
z
" style="stroke: #ff7f0e"/>
    </defs>
    <g clip-path="url(#p863f577982)">
     <use xlink:href="#m58e8f9ff3e" x="80.304545" y="313.033548" style="fill: #ff7f0e; stroke: #ff7f0e"/>
     <use xlink:href="#m58e8f9ff3e" x="86.722727" y="311.356129" style="fill: #ff7f0e; stroke: #ff7f0e"/>
     <use xlink:href="#m58e8f9ff3e" x="93.140909" y="307.833548" style="fill: #ff7f0e; stroke: #ff7f0e"/>
     <use xlink:href="#m58e8f9ff3e" x="99.559091" y="307.749677" style="fill: #ff7f0e; stroke: #ff7f0e"/>
     <use xlink:href="#m58e8f9ff3e" x="105.977273" y="308.00129" style="fill: #ff7f0e; stroke: #ff7f0e"/>
     <use xlink:href="#m58e8f9ff3e" x="112.395455" y="312.027097" style="fill: #ff7f0e; stroke: #ff7f0e"/>
     <use xlink:href="#m58e8f9ff3e" x="118.813636" y="312.194839" style="fill: #ff7f0e; stroke: #ff7f0e"/>
     <use xlink:href="#m58e8f9ff3e" x="125.231818" y="312.446452" style="fill: #ff7f0e; stroke: #ff7f0e"/>
     <use xlink:href="#m58e8f9ff3e" x="131.65" y="310.433548" style="fill: #ff7f0e; stroke: #ff7f0e"/>
     <use xlink:href="#m58e8f9ff3e" x="138.068182" y="307.917419" style="fill: #ff7f0e; stroke: #ff7f0e"/>
     <use xlink:href="#m58e8f9ff3e" x="144.486364" y="306.827097" style="fill: #ff7f0e; stroke: #ff7f0e"/>
     <use xlink:href="#m58e8f9ff3e" x="150.904545" y="310.769032" style="fill: #ff7f0e; stroke: #ff7f0e"/>
     <use xlink:href="#m58e8f9ff3e" x="157.322727" y="311.188387" style="fill: #ff7f0e; stroke: #ff7f0e"/>
     <use xlink:href="#m58e8f9ff3e" x="163.740909" y="310.60129" style="fill: #ff7f0e; stroke: #ff7f0e"/>
     <use xlink:href="#m58e8f9ff3e" x="170.159091" y="311.44" style="fill: #ff7f0e; stroke: #ff7f0e"/>
     <use xlink:href="#m58e8f9ff3e" x="176.577273" y="311.104516" style="fill: #ff7f0e; stroke: #ff7f0e"/>
     <use xlink:href="#m58e8f9ff3e" x="182.995455" y="312.27871" style="fill: #ff7f0e; stroke: #ff7f0e"/>
     <use xlink:href="#m58e8f9ff3e" x="189.413636" y="309.594839" style="fill: #ff7f0e; stroke: #ff7f0e"/>
     <use xlink:href="#m58e8f9ff3e" x="195.831818" y="305.569032" style="fill: #ff7f0e; stroke: #ff7f0e"/>
     <use xlink:href="#m58e8f9ff3e" x="202.25" y="305.652903" style="fill: #ff7f0e; stroke: #ff7f0e"/>
     <use xlink:href="#m58e8f9ff3e" x="208.668182" y="302.80129" style="fill: #ff7f0e; stroke: #ff7f0e"/>
     <use xlink:href="#m58e8f9ff3e" x="215.086364" y="310.769032" style="fill: #ff7f0e; stroke: #ff7f0e"/>
     <use xlink:href="#m58e8f9ff3e" x="221.504545" y="307.833548" style="fill: #ff7f0e; stroke: #ff7f0e"/>
     <use xlink:href="#m58e8f9ff3e" x="227.922727" y="304.730323" style="fill: #ff7f0e; stroke: #ff7f0e"/>
     <use xlink:href="#m58e8f9ff3e" x="234.340909" y="292.065806" style="fill: #ff7f0e; stroke: #ff7f0e"/>
     <use xlink:href="#m58e8f9ff3e" x="240.759091" y="283.343226" style="fill: #ff7f0e; stroke: #ff7f0e"/>
     <use xlink:href="#m58e8f9ff3e" x="247.177273" y="275.627097" style="fill: #ff7f0e; stroke: #ff7f0e"/>
     <use xlink:href="#m58e8f9ff3e" x="253.595455" y="265.47871" style="fill: #ff7f0e; stroke: #ff7f0e"/>
     <use xlink:href="#m58e8f9ff3e" x="260.013636" y="267.491613" style="fill: #ff7f0e; stroke: #ff7f0e"/>
     <use xlink:href="#m58e8f9ff3e" x="266.431818" y="257.259355" style="fill: #ff7f0e; stroke: #ff7f0e"/>
     <use xlink:href="#m58e8f9ff3e" x="272.85" y="202.407742" style="fill: #ff7f0e; stroke: #ff7f0e"/>
     <use xlink:href="#m58e8f9ff3e" x="279.268182" y="158.291613" style="fill: #ff7f0e; stroke: #ff7f0e"/>
     <use xlink:href="#m58e8f9ff3e" x="285.686364" y="100.756129" style="fill: #ff7f0e; stroke: #ff7f0e"/>
     <use xlink:href="#m58e8f9ff3e" x="292.104545" y="94.465806" style="fill: #ff7f0e; stroke: #ff7f0e"/>
     <use xlink:href="#m58e8f9ff3e" x="298.522727" y="27.285161" style="fill: #ff7f0e; stroke: #ff7f0e"/>
     <use xlink:href="#m58e8f9ff3e" x="304.940909" y="57.646452" style="fill: #ff7f0e; stroke: #ff7f0e"/>
     <use xlink:href="#m58e8f9ff3e" x="311.359091" y="116.020645" style="fill: #ff7f0e; stroke: #ff7f0e"/>
     <use xlink:href="#m58e8f9ff3e" x="317.777273" y="117.614194" style="fill: #ff7f0e; stroke: #ff7f0e"/>
     <use xlink:href="#m58e8f9ff3e" x="324.195455" y="124.156129" style="fill: #ff7f0e; stroke: #ff7f0e"/>
     <use xlink:href="#m58e8f9ff3e" x="330.613636" y="141.852903" style="fill: #ff7f0e; stroke: #ff7f0e"/>
     <use xlink:href="#m58e8f9ff3e" x="337.031818" y="150.156129" style="fill: #ff7f0e; stroke: #ff7f0e"/>
     <use xlink:href="#m58e8f9ff3e" x="343.45" y="210.04" style="fill: #ff7f0e; stroke: #ff7f0e"/>
     <use xlink:href="#m58e8f9ff3e" x="349.868182" y="158.962581" style="fill: #ff7f0e; stroke: #ff7f0e"/>
     <use xlink:href="#m58e8f9ff3e" x="356.286364" y="208.362581" style="fill: #ff7f0e; stroke: #ff7f0e"/>
     <use xlink:href="#m58e8f9ff3e" x="362.704545" y="237.717419" style="fill: #ff7f0e; stroke: #ff7f0e"/>
     <use xlink:href="#m58e8f9ff3e" x="369.122727" y="227.904516" style="fill: #ff7f0e; stroke: #ff7f0e"/>
     <use xlink:href="#m58e8f9ff3e" x="375.540909" y="222.369032" style="fill: #ff7f0e; stroke: #ff7f0e"/>
     <use xlink:href="#m58e8f9ff3e" x="381.959091" y="237.130323" style="fill: #ff7f0e; stroke: #ff7f0e"/>
     <use xlink:href="#m58e8f9ff3e" x="388.377273" y="248.788387" style="fill: #ff7f0e; stroke: #ff7f0e"/>
     <use xlink:href="#m58e8f9ff3e" x="394.795455" y="265.310968" style="fill: #ff7f0e; stroke: #ff7f0e"/>
     <use xlink:href="#m58e8f9ff3e" x="401.213636" y="286.865806" style="fill: #ff7f0e; stroke: #ff7f0e"/>
     <use xlink:href="#m58e8f9ff3e" x="407.631818" y="265.394839" style="fill: #ff7f0e; stroke: #ff7f0e"/>
     <use xlink:href="#m58e8f9ff3e" x="414.05" y="267.323871" style="fill: #ff7f0e; stroke: #ff7f0e"/>
     <use xlink:href="#m58e8f9ff3e" x="420.468182" y="268.917419" style="fill: #ff7f0e; stroke: #ff7f0e"/>
     <use xlink:href="#m58e8f9ff3e" x="426.886364" y="273.530323" style="fill: #ff7f0e; stroke: #ff7f0e"/>
     <use xlink:href="#m58e8f9ff3e" x="433.304545" y="262.962581" style="fill: #ff7f0e; stroke: #ff7f0e"/>
     <use xlink:href="#m58e8f9ff3e" x="439.722727" y="280.743226" style="fill: #ff7f0e; stroke: #ff7f0e"/>
     <use xlink:href="#m58e8f9ff3e" x="446.140909" y="286.781935" style="fill: #ff7f0e; stroke: #ff7f0e"/>
     <use xlink:href="#m58e8f9ff3e" x="452.559091" y="277.975484" style="fill: #ff7f0e; stroke: #ff7f0e"/>
     <use xlink:href="#m58e8f9ff3e" x="458.977273" y="235.20129" style="fill: #ff7f0e; stroke: #ff7f0e"/>
     <use xlink:href="#m58e8f9ff3e" x="465.395455" y="262.375484" style="fill: #ff7f0e; stroke: #ff7f0e"/>
     <use xlink:href="#m58e8f9ff3e" x="471.813636" y="278.059355" style="fill: #ff7f0e; stroke: #ff7f0e"/>
     <use xlink:href="#m58e8f9ff3e" x="478.231818" y="296.175484" style="fill: #ff7f0e; stroke: #ff7f0e"/>
     <use xlink:href="#m58e8f9ff3e" x="484.65" y="296.175484" style="fill: #ff7f0e; stroke: #ff7f0e"/>
     <use xlink:href="#m58e8f9ff3e" x="491.068182" y="295.252903" style="fill: #ff7f0e; stroke: #ff7f0e"/>
     <use xlink:href="#m58e8f9ff3e" x="497.486364" y="287.872258" style="fill: #ff7f0e; stroke: #ff7f0e"/>
     <use xlink:href="#m58e8f9ff3e" x="503.904545" y="276.549677" style="fill: #ff7f0e; stroke: #ff7f0e"/>
     <use xlink:href="#m58e8f9ff3e" x="510.322727" y="280.910968" style="fill: #ff7f0e; stroke: #ff7f0e"/>
     <use xlink:href="#m58e8f9ff3e" x="516.740909" y="286.27871" style="fill: #ff7f0e; stroke: #ff7f0e"/>
     <use xlink:href="#m58e8f9ff3e" x="523.159091" y="289.885161" style="fill: #ff7f0e; stroke: #ff7f0e"/>
     <use xlink:href="#m58e8f9ff3e" x="529.577273" y="294.581935" style="fill: #ff7f0e; stroke: #ff7f0e"/>
     <use xlink:href="#m58e8f9ff3e" x="535.995455" y="292.149677" style="fill: #ff7f0e; stroke: #ff7f0e"/>
     <use xlink:href="#m58e8f9ff3e" x="542.413636" y="291.394839" style="fill: #ff7f0e; stroke: #ff7f0e"/>
     <use xlink:href="#m58e8f9ff3e" x="548.831818" y="277.304516" style="fill: #ff7f0e; stroke: #ff7f0e"/>
     <use xlink:href="#m58e8f9ff3e" x="555.25" y="279.317419" style="fill: #ff7f0e; stroke: #ff7f0e"/>
     <use xlink:href="#m58e8f9ff3e" x="561.668182" y="285.943226" style="fill: #ff7f0e; stroke: #ff7f0e"/>
     <use xlink:href="#m58e8f9ff3e" x="568.086364" y="293.407742" style="fill: #ff7f0e; stroke: #ff7f0e"/>
     <use xlink:href="#m58e8f9ff3e" x="574.504545" y="301.291613" style="fill: #ff7f0e; stroke: #ff7f0e"/>
     <use xlink:href="#m58e8f9ff3e" x="580.922727" y="296.762581" style="fill: #ff7f0e; stroke: #ff7f0e"/>
     <use xlink:href="#m58e8f9ff3e" x="587.340909" y="292.820645" style="fill: #ff7f0e; stroke: #ff7f0e"/>
     <use xlink:href="#m58e8f9ff3e" x="593.759091" y="285.188387" style="fill: #ff7f0e; stroke: #ff7f0e"/>
     <use xlink:href="#m58e8f9ff3e" x="600.177273" y="289.717419" style="fill: #ff7f0e; stroke: #ff7f0e"/>
     <use xlink:href="#m58e8f9ff3e" x="606.595455" y="288.04" style="fill: #ff7f0e; stroke: #ff7f0e"/>
     <use xlink:href="#m58e8f9ff3e" x="613.013636" y="293.910968" style="fill: #ff7f0e; stroke: #ff7f0e"/>
     <use xlink:href="#m58e8f9ff3e" x="619.431818" y="297.517419" style="fill: #ff7f0e; stroke: #ff7f0e"/>
     <use xlink:href="#m58e8f9ff3e" x="625.85" y="289.465806" style="fill: #ff7f0e; stroke: #ff7f0e"/>
     <use xlink:href="#m58e8f9ff3e" x="632.268182" y="284.014194" style="fill: #ff7f0e; stroke: #ff7f0e"/>
     <use xlink:href="#m58e8f9ff3e" x="638.686364" y="269.252903" style="fill: #ff7f0e; stroke: #ff7f0e"/>
     <use xlink:href="#m58e8f9ff3e" x="645.104545" y="281.498065" style="fill: #ff7f0e; stroke: #ff7f0e"/>
     <use xlink:href="#m58e8f9ff3e" x="651.522727" y="284.769032" style="fill: #ff7f0e; stroke: #ff7f0e"/>
     <use xlink:href="#m58e8f9ff3e" x="657.940909" y="290.723871" style="fill: #ff7f0e; stroke: #ff7f0e"/>
     <use xlink:href="#m58e8f9ff3e" x="664.359091" y="289.717419" style="fill: #ff7f0e; stroke: #ff7f0e"/>
     <use xlink:href="#m58e8f9ff3e" x="670.777273" y="298.104516" style="fill: #ff7f0e; stroke: #ff7f0e"/>
     <use xlink:href="#m58e8f9ff3e" x="677.195455" y="295.504516" style="fill: #ff7f0e; stroke: #ff7f0e"/>
    </g>
   </g>
   <g id="patch_3">
    <path d="M 50.46 327.04 
L 50.46 12.96 
" style="fill: none; stroke: #000000; stroke-width: 0.8; stroke-linejoin: miter; stroke-linecap: square"/>
   </g>
   <g id="patch_4">
    <path d="M 50.46 327.04 
L 707.04 327.04 
" style="fill: none; stroke: #000000; stroke-width: 0.8; stroke-linejoin: miter; stroke-linecap: square"/>
   </g>
   <g id="legend_1">
    <g id="patch_5">
     <path d="M 58.86 57.7875 
L 197.86125 57.7875 
Q 200.26125 57.7875 200.26125 55.3875 
L 200.26125 21.36 
Q 200.26125 18.96 197.86125 18.96 
L 58.86 18.96 
Q 56.46 18.96 56.46 21.36 
L 56.46 55.3875 
Q 56.46 57.7875 58.86 57.7875 
z
" style="fill: #ffffff; opacity: 0.8; stroke: #cccccc; stroke-linejoin: miter"/>
    </g>
    <g id="line2d_20">
     <path d="M 61.26 28.678125 
L 73.26 28.678125 
L 85.26 28.678125 
" style="fill: none; stroke: #1f77b4; stroke-width: 1.5; stroke-linecap: square"/>
     <g>
      <use xlink:href="#m1104d24fcd" x="73.26" y="28.678125" style="fill: #1f77b4; stroke: #1f77b4"/>
     </g>
    </g>
    <g id="text_18">
     <!-- Age range 0-9 -->
     <g transform="translate(94.86 32.878125)scale(0.12 -0.12)">
      <defs>
       <path id="DejaVuSans-41" d="M 2188 4044 
L 1331 1722 
L 3047 1722 
L 2188 4044 
z
M 1831 4666 
L 2547 4666 
L 4325 0 
L 3669 0 
L 3244 1197 
L 1141 1197 
L 716 0 
L 50 0 
L 1831 4666 
z
" transform="scale(0.015625)"/>
       <path id="DejaVuSans-67" d="M 2906 1791 
Q 2906 2416 2648 2759 
Q 2391 3103 1925 3103 
Q 1463 3103 1205 2759 
Q 947 2416 947 1791 
Q 947 1169 1205 825 
Q 1463 481 1925 481 
Q 2391 481 2648 825 
Q 2906 1169 2906 1791 
z
M 3481 434 
Q 3481 -459 3084 -895 
Q 2688 -1331 1869 -1331 
Q 1566 -1331 1297 -1286 
Q 1028 -1241 775 -1147 
L 775 -588 
Q 1028 -725 1275 -790 
Q 1522 -856 1778 -856 
Q 2344 -856 2625 -561 
Q 2906 -266 2906 331 
L 2906 616 
Q 2728 306 2450 153 
Q 2172 0 1784 0 
Q 1141 0 747 490 
Q 353 981 353 1791 
Q 353 2603 747 3093 
Q 1141 3584 1784 3584 
Q 2172 3584 2450 3431 
Q 2728 3278 2906 2969 
L 2906 3500 
L 3481 3500 
L 3481 434 
z
" transform="scale(0.015625)"/>
       <path id="DejaVuSans-2d" d="M 313 2009 
L 1997 2009 
L 1997 1497 
L 313 1497 
L 313 2009 
z
" transform="scale(0.015625)"/>
      </defs>
      <use xlink:href="#DejaVuSans-41"/>
      <use xlink:href="#DejaVuSans-67" x="68.408203"/>
      <use xlink:href="#DejaVuSans-65" x="131.884766"/>
      <use xlink:href="#DejaVuSans-20" x="193.408203"/>
      <use xlink:href="#DejaVuSans-72" x="225.195312"/>
      <use xlink:href="#DejaVuSans-61" x="266.308594"/>
      <use xlink:href="#DejaVuSans-6e" x="327.587891"/>
      <use xlink:href="#DejaVuSans-67" x="390.966797"/>
      <use xlink:href="#DejaVuSans-65" x="454.443359"/>
      <use xlink:href="#DejaVuSans-20" x="515.966797"/>
      <use xlink:href="#DejaVuSans-30" x="547.753906"/>
      <use xlink:href="#DejaVuSans-2d" x="611.376953"/>
      <use xlink:href="#DejaVuSans-39" x="647.460938"/>
     </g>
    </g>
    <g id="line2d_21">
     <path d="M 61.26 46.291875 
L 73.26 46.291875 
L 85.26 46.291875 
" style="fill: none; stroke: #ff7f0e; stroke-width: 1.5; stroke-linecap: square"/>
     <g>
      <use xlink:href="#m58e8f9ff3e" x="73.26" y="46.291875" style="fill: #ff7f0e; stroke: #ff7f0e"/>
     </g>
    </g>
    <g id="text_19">
     <!-- Age range 10-19 -->
     <g transform="translate(94.86 50.491875)scale(0.12 -0.12)">
      <use xlink:href="#DejaVuSans-41"/>
      <use xlink:href="#DejaVuSans-67" x="68.408203"/>
      <use xlink:href="#DejaVuSans-65" x="131.884766"/>
      <use xlink:href="#DejaVuSans-20" x="193.408203"/>
      <use xlink:href="#DejaVuSans-72" x="225.195312"/>
      <use xlink:href="#DejaVuSans-61" x="266.308594"/>
      <use xlink:href="#DejaVuSans-6e" x="327.587891"/>
      <use xlink:href="#DejaVuSans-67" x="390.966797"/>
      <use xlink:href="#DejaVuSans-65" x="454.443359"/>
      <use xlink:href="#DejaVuSans-20" x="515.966797"/>
      <use xlink:href="#DejaVuSans-31" x="547.753906"/>
      <use xlink:href="#DejaVuSans-30" x="611.376953"/>
      <use xlink:href="#DejaVuSans-2d" x="675"/>
      <use xlink:href="#DejaVuSans-31" x="711.083984"/>
      <use xlink:href="#DejaVuSans-39" x="774.707031"/>
     </g>
    </g>
   </g>
  </g>
 </g>
 <defs>
  <clipPath id="p863f577982">
   <rect x="50.46" y="12.96" width="656.58" height="314.08"/>
  </clipPath>
 </defs>
</svg>
