<?xml version="1.0" encoding="utf-8" standalone="no"?>
<!DOCTYPE svg PUBLIC "-//W3C//DTD SVG 1.1//EN"
  "http://www.w3.org/Graphics/SVG/1.1/DTD/svg11.dtd">
<svg xmlns:xlink="http://www.w3.org/1999/xlink" width="720pt" height="360pt" viewBox="0 0 720 360" xmlns="http://www.w3.org/2000/svg" version="1.1">
 <metadata>
  <rdf:RDF xmlns:dc="http://purl.org/dc/elements/1.1/" xmlns:cc="http://creativecommons.org/ns#" xmlns:rdf="http://www.w3.org/1999/02/22-rdf-syntax-ns#">
   <cc:Work>
    <dc:type rdf:resource="http://purl.org/dc/dcmitype/StillImage"/>
    <dc:date>2022-01-21T21:55:51.683462</dc:date>
    <dc:format>image/svg+xml</dc:format>
    <dc:creator>
     <cc:Agent>
      <dc:title>Matplotlib v3.5.1, https://matplotlib.org/</dc:title>
     </cc:Agent>
    </dc:creator>
   </cc:Work>
  </rdf:RDF>
 </metadata>
 <defs>
  <style type="text/css">*{stroke-linejoin: round; stroke-linecap: butt}</style>
 </defs>
 <g id="figure_1">
  <g id="patch_1">
   <path d="M 0 360 
L 720 360 
L 720 0 
L 0 0 
L 0 360 
z
" style="fill: none"/>
  </g>
  <g id="axes_1">
   <g id="patch_2">
    <path d="M 50.46 327.04 
L 707.04 327.04 
L 707.04 12.96 
L 50.46 12.96 
z
" style="fill: #ffffff"/>
   </g>
   <g id="matplotlib.axis_1">
    <g id="xtick_1">
     <g id="line2d_1">
      <defs>
       <path id="m92f1aa825b" d="M 0 0 
L 0 3.5 
" style="stroke: #000000; stroke-width: 0.8"/>
      </defs>
      <g>
       <use xlink:href="#m92f1aa825b" x="80.304545" y="327.04" style="stroke: #000000; stroke-width: 0.8"/>
      </g>
     </g>
     <g id="text_1">
      <!-- Dec 05 -->
      <g transform="translate(59.151733 343.158125)scale(0.12 -0.12)">
       <defs>
        <path id="DejaVuSans-44" d="M 1259 4147 
L 1259 519 
L 2022 519 
Q 2988 519 3436 956 
Q 3884 1394 3884 2338 
Q 3884 3275 3436 3711 
Q 2988 4147 2022 4147 
L 1259 4147 
z
M 628 4666 
L 1925 4666 
Q 3281 4666 3915 4102 
Q 4550 3538 4550 2338 
Q 4550 1131 3912 565 
Q 3275 0 1925 0 
L 628 0 
L 628 4666 
z
" transform="scale(0.015625)"/>
        <path id="DejaVuSans-65" d="M 3597 1894 
L 3597 1613 
L 953 1613 
Q 991 1019 1311 708 
Q 1631 397 2203 397 
Q 2534 397 2845 478 
Q 3156 559 3463 722 
L 3463 178 
Q 3153 47 2828 -22 
Q 2503 -91 2169 -91 
Q 1331 -91 842 396 
Q 353 884 353 1716 
Q 353 2575 817 3079 
Q 1281 3584 2069 3584 
Q 2775 3584 3186 3129 
Q 3597 2675 3597 1894 
z
M 3022 2063 
Q 3016 2534 2758 2815 
Q 2500 3097 2075 3097 
Q 1594 3097 1305 2825 
Q 1016 2553 972 2059 
L 3022 2063 
z
" transform="scale(0.015625)"/>
        <path id="DejaVuSans-63" d="M 3122 3366 
L 3122 2828 
Q 2878 2963 2633 3030 
Q 2388 3097 2138 3097 
Q 1578 3097 1268 2742 
Q 959 2388 959 1747 
Q 959 1106 1268 751 
Q 1578 397 2138 397 
Q 2388 397 2633 464 
Q 2878 531 3122 666 
L 3122 134 
Q 2881 22 2623 -34 
Q 2366 -91 2075 -91 
Q 1284 -91 818 406 
Q 353 903 353 1747 
Q 353 2603 823 3093 
Q 1294 3584 2113 3584 
Q 2378 3584 2631 3529 
Q 2884 3475 3122 3366 
z
" transform="scale(0.015625)"/>
        <path id="DejaVuSans-20" transform="scale(0.015625)"/>
        <path id="DejaVuSans-30" d="M 2034 4250 
Q 1547 4250 1301 3770 
Q 1056 3291 1056 2328 
Q 1056 1369 1301 889 
Q 1547 409 2034 409 
Q 2525 409 2770 889 
Q 3016 1369 3016 2328 
Q 3016 3291 2770 3770 
Q 2525 4250 2034 4250 
z
M 2034 4750 
Q 2819 4750 3233 4129 
Q 3647 3509 3647 2328 
Q 3647 1150 3233 529 
Q 2819 -91 2034 -91 
Q 1250 -91 836 529 
Q 422 1150 422 2328 
Q 422 3509 836 4129 
Q 1250 4750 2034 4750 
z
" transform="scale(0.015625)"/>
        <path id="DejaVuSans-35" d="M 691 4666 
L 3169 4666 
L 3169 4134 
L 1269 4134 
L 1269 2991 
Q 1406 3038 1543 3061 
Q 1681 3084 1819 3084 
Q 2600 3084 3056 2656 
Q 3513 2228 3513 1497 
Q 3513 744 3044 326 
Q 2575 -91 1722 -91 
Q 1428 -91 1123 -41 
Q 819 9 494 109 
L 494 744 
Q 775 591 1075 516 
Q 1375 441 1709 441 
Q 2250 441 2565 725 
Q 2881 1009 2881 1497 
Q 2881 1984 2565 2268 
Q 2250 2553 1709 2553 
Q 1456 2553 1204 2497 
Q 953 2441 691 2322 
L 691 4666 
z
" transform="scale(0.015625)"/>
       </defs>
       <use xlink:href="#DejaVuSans-44"/>
       <use xlink:href="#DejaVuSans-65" x="77.001953"/>
       <use xlink:href="#DejaVuSans-63" x="138.525391"/>
       <use xlink:href="#DejaVuSans-20" x="193.505859"/>
       <use xlink:href="#DejaVuSans-30" x="225.292969"/>
       <use xlink:href="#DejaVuSans-35" x="288.916016"/>
      </g>
     </g>
    </g>
    <g id="xtick_2">
     <g id="line2d_2">
      <g>
       <use xlink:href="#m92f1aa825b" x="156.503385" y="327.04" style="stroke: #000000; stroke-width: 0.8"/>
      </g>
     </g>
     <g id="text_2">
      <!-- Dec 11 -->
      <g transform="translate(135.350572 343.158125)scale(0.12 -0.12)">
       <defs>
        <path id="DejaVuSans-31" d="M 794 531 
L 1825 531 
L 1825 4091 
L 703 3866 
L 703 4441 
L 1819 4666 
L 2450 4666 
L 2450 531 
L 3481 531 
L 3481 0 
L 794 0 
L 794 531 
z
" transform="scale(0.015625)"/>
       </defs>
       <use xlink:href="#DejaVuSans-44"/>
       <use xlink:href="#DejaVuSans-65" x="77.001953"/>
       <use xlink:href="#DejaVuSans-63" x="138.525391"/>
       <use xlink:href="#DejaVuSans-20" x="193.505859"/>
       <use xlink:href="#DejaVuSans-31" x="225.292969"/>
       <use xlink:href="#DejaVuSans-31" x="288.916016"/>
      </g>
     </g>
    </g>
    <g id="xtick_3">
     <g id="line2d_3">
      <g>
       <use xlink:href="#m92f1aa825b" x="232.702224" y="327.04" style="stroke: #000000; stroke-width: 0.8"/>
      </g>
     </g>
     <g id="text_3">
      <!-- Dec 17 -->
      <g transform="translate(211.549412 343.158125)scale(0.12 -0.12)">
       <defs>
        <path id="DejaVuSans-37" d="M 525 4666 
L 3525 4666 
L 3525 4397 
L 1831 0 
L 1172 0 
L 2766 4134 
L 525 4134 
L 525 4666 
z
" transform="scale(0.015625)"/>
       </defs>
       <use xlink:href="#DejaVuSans-44"/>
       <use xlink:href="#DejaVuSans-65" x="77.001953"/>
       <use xlink:href="#DejaVuSans-63" x="138.525391"/>
       <use xlink:href="#DejaVuSans-20" x="193.505859"/>
       <use xlink:href="#DejaVuSans-31" x="225.292969"/>
       <use xlink:href="#DejaVuSans-37" x="288.916016"/>
      </g>
     </g>
    </g>
    <g id="xtick_4">
     <g id="line2d_4">
      <g>
       <use xlink:href="#m92f1aa825b" x="308.901064" y="327.04" style="stroke: #000000; stroke-width: 0.8"/>
      </g>
     </g>
     <g id="text_4">
      <!-- Dec 23 -->
      <g transform="translate(287.748251 343.158125)scale(0.12 -0.12)">
       <defs>
        <path id="DejaVuSans-32" d="M 1228 531 
L 3431 531 
L 3431 0 
L 469 0 
L 469 531 
Q 828 903 1448 1529 
Q 2069 2156 2228 2338 
Q 2531 2678 2651 2914 
Q 2772 3150 2772 3378 
Q 2772 3750 2511 3984 
Q 2250 4219 1831 4219 
Q 1534 4219 1204 4116 
Q 875 4013 500 3803 
L 500 4441 
Q 881 4594 1212 4672 
Q 1544 4750 1819 4750 
Q 2544 4750 2975 4387 
Q 3406 4025 3406 3419 
Q 3406 3131 3298 2873 
Q 3191 2616 2906 2266 
Q 2828 2175 2409 1742 
Q 1991 1309 1228 531 
z
" transform="scale(0.015625)"/>
        <path id="DejaVuSans-33" d="M 2597 2516 
Q 3050 2419 3304 2112 
Q 3559 1806 3559 1356 
Q 3559 666 3084 287 
Q 2609 -91 1734 -91 
Q 1441 -91 1130 -33 
Q 819 25 488 141 
L 488 750 
Q 750 597 1062 519 
Q 1375 441 1716 441 
Q 2309 441 2620 675 
Q 2931 909 2931 1356 
Q 2931 1769 2642 2001 
Q 2353 2234 1838 2234 
L 1294 2234 
L 1294 2753 
L 1863 2753 
Q 2328 2753 2575 2939 
Q 2822 3125 2822 3475 
Q 2822 3834 2567 4026 
Q 2313 4219 1838 4219 
Q 1578 4219 1281 4162 
Q 984 4106 628 3988 
L 628 4550 
Q 988 4650 1302 4700 
Q 1616 4750 1894 4750 
Q 2613 4750 3031 4423 
Q 3450 4097 3450 3541 
Q 3450 3153 3228 2886 
Q 3006 2619 2597 2516 
z
" transform="scale(0.015625)"/>
       </defs>
       <use xlink:href="#DejaVuSans-44"/>
       <use xlink:href="#DejaVuSans-65" x="77.001953"/>
       <use xlink:href="#DejaVuSans-63" x="138.525391"/>
       <use xlink:href="#DejaVuSans-20" x="193.505859"/>
       <use xlink:href="#DejaVuSans-32" x="225.292969"/>
       <use xlink:href="#DejaVuSans-33" x="288.916016"/>
      </g>
     </g>
    </g>
    <g id="xtick_5">
     <g id="line2d_5">
      <g>
       <use xlink:href="#m92f1aa825b" x="385.099903" y="327.04" style="stroke: #000000; stroke-width: 0.8"/>
      </g>
     </g>
     <g id="text_5">
      <!-- Dec 29 -->
      <g transform="translate(363.947091 343.158125)scale(0.12 -0.12)">
       <defs>
        <path id="DejaVuSans-39" d="M 703 97 
L 703 672 
Q 941 559 1184 500 
Q 1428 441 1663 441 
Q 2288 441 2617 861 
Q 2947 1281 2994 2138 
Q 2813 1869 2534 1725 
Q 2256 1581 1919 1581 
Q 1219 1581 811 2004 
Q 403 2428 403 3163 
Q 403 3881 828 4315 
Q 1253 4750 1959 4750 
Q 2769 4750 3195 4129 
Q 3622 3509 3622 2328 
Q 3622 1225 3098 567 
Q 2575 -91 1691 -91 
Q 1453 -91 1209 -44 
Q 966 3 703 97 
z
M 1959 2075 
Q 2384 2075 2632 2365 
Q 2881 2656 2881 3163 
Q 2881 3666 2632 3958 
Q 2384 4250 1959 4250 
Q 1534 4250 1286 3958 
Q 1038 3666 1038 3163 
Q 1038 2656 1286 2365 
Q 1534 2075 1959 2075 
z
" transform="scale(0.015625)"/>
       </defs>
       <use xlink:href="#DejaVuSans-44"/>
       <use xlink:href="#DejaVuSans-65" x="77.001953"/>
       <use xlink:href="#DejaVuSans-63" x="138.525391"/>
       <use xlink:href="#DejaVuSans-20" x="193.505859"/>
       <use xlink:href="#DejaVuSans-32" x="225.292969"/>
       <use xlink:href="#DejaVuSans-39" x="288.916016"/>
      </g>
     </g>
    </g>
    <g id="xtick_6">
     <g id="line2d_6">
      <g>
       <use xlink:href="#m92f1aa825b" x="461.298743" y="327.04" style="stroke: #000000; stroke-width: 0.8"/>
      </g>
     </g>
     <g id="text_6">
      <!-- Jan 04 -->
      <g transform="translate(442.507493 343.158125)scale(0.12 -0.12)">
       <defs>
        <path id="DejaVuSans-4a" d="M 628 4666 
L 1259 4666 
L 1259 325 
Q 1259 -519 939 -900 
Q 619 -1281 -91 -1281 
L -331 -1281 
L -331 -750 
L -134 -750 
Q 284 -750 456 -515 
Q 628 -281 628 325 
L 628 4666 
z
" transform="scale(0.015625)"/>
        <path id="DejaVuSans-61" d="M 2194 1759 
Q 1497 1759 1228 1600 
Q 959 1441 959 1056 
Q 959 750 1161 570 
Q 1363 391 1709 391 
Q 2188 391 2477 730 
Q 2766 1069 2766 1631 
L 2766 1759 
L 2194 1759 
z
M 3341 1997 
L 3341 0 
L 2766 0 
L 2766 531 
Q 2569 213 2275 61 
Q 1981 -91 1556 -91 
Q 1019 -91 701 211 
Q 384 513 384 1019 
Q 384 1609 779 1909 
Q 1175 2209 1959 2209 
L 2766 2209 
L 2766 2266 
Q 2766 2663 2505 2880 
Q 2244 3097 1772 3097 
Q 1472 3097 1187 3025 
Q 903 2953 641 2809 
L 641 3341 
Q 956 3463 1253 3523 
Q 1550 3584 1831 3584 
Q 2591 3584 2966 3190 
Q 3341 2797 3341 1997 
z
" transform="scale(0.015625)"/>
        <path id="DejaVuSans-6e" d="M 3513 2113 
L 3513 0 
L 2938 0 
L 2938 2094 
Q 2938 2591 2744 2837 
Q 2550 3084 2163 3084 
Q 1697 3084 1428 2787 
Q 1159 2491 1159 1978 
L 1159 0 
L 581 0 
L 581 3500 
L 1159 3500 
L 1159 2956 
Q 1366 3272 1645 3428 
Q 1925 3584 2291 3584 
Q 2894 3584 3203 3211 
Q 3513 2838 3513 2113 
z
" transform="scale(0.015625)"/>
        <path id="DejaVuSans-34" d="M 2419 4116 
L 825 1625 
L 2419 1625 
L 2419 4116 
z
M 2253 4666 
L 3047 4666 
L 3047 1625 
L 3713 1625 
L 3713 1100 
L 3047 1100 
L 3047 0 
L 2419 0 
L 2419 1100 
L 313 1100 
L 313 1709 
L 2253 4666 
z
" transform="scale(0.015625)"/>
       </defs>
       <use xlink:href="#DejaVuSans-4a"/>
       <use xlink:href="#DejaVuSans-61" x="29.492188"/>
       <use xlink:href="#DejaVuSans-6e" x="90.771484"/>
       <use xlink:href="#DejaVuSans-20" x="154.150391"/>
       <use xlink:href="#DejaVuSans-30" x="185.9375"/>
       <use xlink:href="#DejaVuSans-34" x="249.560547"/>
      </g>
     </g>
    </g>
    <g id="xtick_7">
     <g id="line2d_7">
      <g>
       <use xlink:href="#m92f1aa825b" x="537.497582" y="327.04" style="stroke: #000000; stroke-width: 0.8"/>
      </g>
     </g>
     <g id="text_7">
      <!-- Jan 10 -->
      <g transform="translate(518.706332 343.158125)scale(0.12 -0.12)">
       <use xlink:href="#DejaVuSans-4a"/>
       <use xlink:href="#DejaVuSans-61" x="29.492188"/>
       <use xlink:href="#DejaVuSans-6e" x="90.771484"/>
       <use xlink:href="#DejaVuSans-20" x="154.150391"/>
       <use xlink:href="#DejaVuSans-31" x="185.9375"/>
       <use xlink:href="#DejaVuSans-30" x="249.560547"/>
      </g>
     </g>
    </g>
    <g id="xtick_8">
     <g id="line2d_8">
      <g>
       <use xlink:href="#m92f1aa825b" x="613.696422" y="327.04" style="stroke: #000000; stroke-width: 0.8"/>
      </g>
     </g>
     <g id="text_8">
      <!-- Jan 16 -->
      <g transform="translate(594.905172 343.158125)scale(0.12 -0.12)">
       <defs>
        <path id="DejaVuSans-36" d="M 2113 2584 
Q 1688 2584 1439 2293 
Q 1191 2003 1191 1497 
Q 1191 994 1439 701 
Q 1688 409 2113 409 
Q 2538 409 2786 701 
Q 3034 994 3034 1497 
Q 3034 2003 2786 2293 
Q 2538 2584 2113 2584 
z
M 3366 4563 
L 3366 3988 
Q 3128 4100 2886 4159 
Q 2644 4219 2406 4219 
Q 1781 4219 1451 3797 
Q 1122 3375 1075 2522 
Q 1259 2794 1537 2939 
Q 1816 3084 2150 3084 
Q 2853 3084 3261 2657 
Q 3669 2231 3669 1497 
Q 3669 778 3244 343 
Q 2819 -91 2113 -91 
Q 1303 -91 875 529 
Q 447 1150 447 2328 
Q 447 3434 972 4092 
Q 1497 4750 2381 4750 
Q 2619 4750 2861 4703 
Q 3103 4656 3366 4563 
z
" transform="scale(0.015625)"/>
       </defs>
       <use xlink:href="#DejaVuSans-4a"/>
       <use xlink:href="#DejaVuSans-61" x="29.492188"/>
       <use xlink:href="#DejaVuSans-6e" x="90.771484"/>
       <use xlink:href="#DejaVuSans-20" x="154.150391"/>
       <use xlink:href="#DejaVuSans-31" x="185.9375"/>
       <use xlink:href="#DejaVuSans-36" x="249.560547"/>
      </g>
     </g>
    </g>
   </g>
   <g id="matplotlib.axis_2">
    <g id="ytick_1">
     <g id="line2d_9">
      <defs>
       <path id="mb07d2a75ba" d="M 0 0 
L -3.5 0 
" style="stroke: #000000; stroke-width: 0.8"/>
      </defs>
      <g>
       <use xlink:href="#mb07d2a75ba" x="50.46" y="327.04" style="stroke: #000000; stroke-width: 0.8"/>
      </g>
     </g>
     <g id="text_9">
      <!-- 0 -->
      <g transform="translate(35.825 331.599063)scale(0.12 -0.12)">
       <use xlink:href="#DejaVuSans-30"/>
      </g>
     </g>
    </g>
    <g id="ytick_2">
     <g id="line2d_10">
      <g>
       <use xlink:href="#mb07d2a75ba" x="50.46" y="284.363188" style="stroke: #000000; stroke-width: 0.8"/>
      </g>
     </g>
     <g id="text_10">
      <!-- 500 -->
      <g transform="translate(20.555 288.92225)scale(0.12 -0.12)">
       <use xlink:href="#DejaVuSans-35"/>
       <use xlink:href="#DejaVuSans-30" x="63.623047"/>
       <use xlink:href="#DejaVuSans-30" x="127.246094"/>
      </g>
     </g>
    </g>
    <g id="ytick_3">
     <g id="line2d_11">
      <g>
       <use xlink:href="#mb07d2a75ba" x="50.46" y="241.686375" style="stroke: #000000; stroke-width: 0.8"/>
      </g>
     </g>
     <g id="text_11">
      <!-- 1000 -->
      <g transform="translate(12.92 246.245438)scale(0.12 -0.12)">
       <use xlink:href="#DejaVuSans-31"/>
       <use xlink:href="#DejaVuSans-30" x="63.623047"/>
       <use xlink:href="#DejaVuSans-30" x="127.246094"/>
       <use xlink:href="#DejaVuSans-30" x="190.869141"/>
      </g>
     </g>
    </g>
    <g id="ytick_4">
     <g id="line2d_12">
      <g>
       <use xlink:href="#mb07d2a75ba" x="50.46" y="199.009563" style="stroke: #000000; stroke-width: 0.8"/>
      </g>
     </g>
     <g id="text_12">
      <!-- 1500 -->
      <g transform="translate(12.92 203.568626)scale(0.12 -0.12)">
       <use xlink:href="#DejaVuSans-31"/>
       <use xlink:href="#DejaVuSans-35" x="63.623047"/>
       <use xlink:href="#DejaVuSans-30" x="127.246094"/>
       <use xlink:href="#DejaVuSans-30" x="190.869141"/>
      </g>
     </g>
    </g>
    <g id="ytick_5">
     <g id="line2d_13">
      <g>
       <use xlink:href="#mb07d2a75ba" x="50.46" y="156.332751" style="stroke: #000000; stroke-width: 0.8"/>
      </g>
     </g>
     <g id="text_13">
      <!-- 2000 -->
      <g transform="translate(12.92 160.891813)scale(0.12 -0.12)">
       <use xlink:href="#DejaVuSans-32"/>
       <use xlink:href="#DejaVuSans-30" x="63.623047"/>
       <use xlink:href="#DejaVuSans-30" x="127.246094"/>
       <use xlink:href="#DejaVuSans-30" x="190.869141"/>
      </g>
     </g>
    </g>
    <g id="ytick_6">
     <g id="line2d_14">
      <g>
       <use xlink:href="#mb07d2a75ba" x="50.46" y="113.655939" style="stroke: #000000; stroke-width: 0.8"/>
      </g>
     </g>
     <g id="text_14">
      <!-- 2500 -->
      <g transform="translate(12.92 118.215001)scale(0.12 -0.12)">
       <use xlink:href="#DejaVuSans-32"/>
       <use xlink:href="#DejaVuSans-35" x="63.623047"/>
       <use xlink:href="#DejaVuSans-30" x="127.246094"/>
       <use xlink:href="#DejaVuSans-30" x="190.869141"/>
      </g>
     </g>
    </g>
    <g id="ytick_7">
     <g id="line2d_15">
      <g>
       <use xlink:href="#mb07d2a75ba" x="50.46" y="70.979126" style="stroke: #000000; stroke-width: 0.8"/>
      </g>
     </g>
     <g id="text_15">
      <!-- 3000 -->
      <g transform="translate(12.92 75.538189)scale(0.12 -0.12)">
       <use xlink:href="#DejaVuSans-33"/>
       <use xlink:href="#DejaVuSans-30" x="63.623047"/>
       <use xlink:href="#DejaVuSans-30" x="127.246094"/>
       <use xlink:href="#DejaVuSans-30" x="190.869141"/>
      </g>
     </g>
    </g>
    <g id="ytick_8">
     <g id="line2d_16">
      <g>
       <use xlink:href="#mb07d2a75ba" x="50.46" y="28.302314" style="stroke: #000000; stroke-width: 0.8"/>
      </g>
     </g>
     <g id="text_16">
      <!-- 3500 -->
      <g transform="translate(12.92 32.861377)scale(0.12 -0.12)">
       <use xlink:href="#DejaVuSans-33"/>
       <use xlink:href="#DejaVuSans-35" x="63.623047"/>
       <use xlink:href="#DejaVuSans-30" x="127.246094"/>
       <use xlink:href="#DejaVuSans-30" x="190.869141"/>
      </g>
     </g>
    </g>
   </g>
   <g id="line2d_17">
    <path d="M 80.304545 313.639481 
L 93.004352 309.713214 
L 105.704159 309.969275 
L 118.403965 303.311692 
L 131.103772 308.347556 
L 143.803578 310.481397 
L 156.503385 311.420287 
L 169.203191 310.139982 
L 181.902998 306.128362 
L 194.602805 307.067252 
L 207.302611 298.617243 
L 220.002418 298.617243 
L 232.702224 305.872301 
L 245.402031 303.909168 
L 258.101838 308.176849 
L 270.801644 305.530887 
L 283.501451 306.811191 
L 296.201257 304.591997 
L 308.901064 304.421289 
L 321.60087 306.384423 
L 334.300677 306.043008 
L 347.000484 312.529884 
L 359.70029 309.969275 
L 372.400097 304.848058 
L 385.099903 302.287449 
L 397.79971 297.84906 
L 410.499516 298.78795 
L 423.199323 297.593 
L 435.89913 293.666733 
L 448.598936 287.777333 
L 461.298743 270.621254 
L 473.998549 257.988918 
L 486.698356 259.952051 
L 499.398162 262.51266 
L 512.097969 228.37121 
L 524.797776 225.725248 
L 537.497582 246.466178 
L 550.197389 219.750494 
L 562.897195 206.862097 
L 575.597002 207.630279 
L 588.296809 209.593413 
L 600.996615 245.015167 
L 613.696422 164.697406 
L 626.396228 206.264621 
L 639.096035 241.601022 
L 651.795841 223.335346 
L 664.495648 211.215131 
L 677.195455 227.261613 
" clip-path="url(#p6d74cb1a07)" style="fill: none; stroke: #1f77b4; stroke-width: 1.5; stroke-linecap: square"/>
    <defs>
     <path id="m063b1e5194" d="M 0 3 
C 0.795609 3 1.55874 2.683901 2.12132 2.12132 
C 2.683901 1.55874 3 0.795609 3 0 
C 3 -0.795609 2.683901 -1.55874 2.12132 -2.12132 
C 1.55874 -2.683901 0.795609 -3 0 -3 
C -0.795609 -3 -1.55874 -2.683901 -2.12132 -2.12132 
C -2.683901 -1.55874 -3 -0.795609 -3 0 
C -3 0.795609 -2.683901 1.55874 -2.12132 2.12132 
C -1.55874 2.683901 -0.795609 3 0 3 
z
" style="stroke: #1f77b4"/>
    </defs>
    <g clip-path="url(#p6d74cb1a07)">
     <use xlink:href="#m063b1e5194" x="80.304545" y="313.639481" style="fill: #1f77b4; stroke: #1f77b4"/>
     <use xlink:href="#m063b1e5194" x="93.004352" y="309.713214" style="fill: #1f77b4; stroke: #1f77b4"/>
     <use xlink:href="#m063b1e5194" x="105.704159" y="309.969275" style="fill: #1f77b4; stroke: #1f77b4"/>
     <use xlink:href="#m063b1e5194" x="118.403965" y="303.311692" style="fill: #1f77b4; stroke: #1f77b4"/>
     <use xlink:href="#m063b1e5194" x="131.103772" y="308.347556" style="fill: #1f77b4; stroke: #1f77b4"/>
     <use xlink:href="#m063b1e5194" x="143.803578" y="310.481397" style="fill: #1f77b4; stroke: #1f77b4"/>
     <use xlink:href="#m063b1e5194" x="156.503385" y="311.420287" style="fill: #1f77b4; stroke: #1f77b4"/>
     <use xlink:href="#m063b1e5194" x="169.203191" y="310.139982" style="fill: #1f77b4; stroke: #1f77b4"/>
     <use xlink:href="#m063b1e5194" x="181.902998" y="306.128362" style="fill: #1f77b4; stroke: #1f77b4"/>
     <use xlink:href="#m063b1e5194" x="194.602805" y="307.067252" style="fill: #1f77b4; stroke: #1f77b4"/>
     <use xlink:href="#m063b1e5194" x="207.302611" y="298.617243" style="fill: #1f77b4; stroke: #1f77b4"/>
     <use xlink:href="#m063b1e5194" x="220.002418" y="298.617243" style="fill: #1f77b4; stroke: #1f77b4"/>
     <use xlink:href="#m063b1e5194" x="232.702224" y="305.872301" style="fill: #1f77b4; stroke: #1f77b4"/>
     <use xlink:href="#m063b1e5194" x="245.402031" y="303.909168" style="fill: #1f77b4; stroke: #1f77b4"/>
     <use xlink:href="#m063b1e5194" x="258.101838" y="308.176849" style="fill: #1f77b4; stroke: #1f77b4"/>
     <use xlink:href="#m063b1e5194" x="270.801644" y="305.530887" style="fill: #1f77b4; stroke: #1f77b4"/>
     <use xlink:href="#m063b1e5194" x="283.501451" y="306.811191" style="fill: #1f77b4; stroke: #1f77b4"/>
     <use xlink:href="#m063b1e5194" x="296.201257" y="304.591997" style="fill: #1f77b4; stroke: #1f77b4"/>
     <use xlink:href="#m063b1e5194" x="308.901064" y="304.421289" style="fill: #1f77b4; stroke: #1f77b4"/>
     <use xlink:href="#m063b1e5194" x="321.60087" y="306.384423" style="fill: #1f77b4; stroke: #1f77b4"/>
     <use xlink:href="#m063b1e5194" x="334.300677" y="306.043008" style="fill: #1f77b4; stroke: #1f77b4"/>
     <use xlink:href="#m063b1e5194" x="347.000484" y="312.529884" style="fill: #1f77b4; stroke: #1f77b4"/>
     <use xlink:href="#m063b1e5194" x="359.70029" y="309.969275" style="fill: #1f77b4; stroke: #1f77b4"/>
     <use xlink:href="#m063b1e5194" x="372.400097" y="304.848058" style="fill: #1f77b4; stroke: #1f77b4"/>
     <use xlink:href="#m063b1e5194" x="385.099903" y="302.287449" style="fill: #1f77b4; stroke: #1f77b4"/>
     <use xlink:href="#m063b1e5194" x="397.79971" y="297.84906" style="fill: #1f77b4; stroke: #1f77b4"/>
     <use xlink:href="#m063b1e5194" x="410.499516" y="298.78795" style="fill: #1f77b4; stroke: #1f77b4"/>
     <use xlink:href="#m063b1e5194" x="423.199323" y="297.593" style="fill: #1f77b4; stroke: #1f77b4"/>
     <use xlink:href="#m063b1e5194" x="435.89913" y="293.666733" style="fill: #1f77b4; stroke: #1f77b4"/>
     <use xlink:href="#m063b1e5194" x="448.598936" y="287.777333" style="fill: #1f77b4; stroke: #1f77b4"/>
     <use xlink:href="#m063b1e5194" x="461.298743" y="270.621254" style="fill: #1f77b4; stroke: #1f77b4"/>
     <use xlink:href="#m063b1e5194" x="473.998549" y="257.988918" style="fill: #1f77b4; stroke: #1f77b4"/>
     <use xlink:href="#m063b1e5194" x="486.698356" y="259.952051" style="fill: #1f77b4; stroke: #1f77b4"/>
     <use xlink:href="#m063b1e5194" x="499.398162" y="262.51266" style="fill: #1f77b4; stroke: #1f77b4"/>
     <use xlink:href="#m063b1e5194" x="512.097969" y="228.37121" style="fill: #1f77b4; stroke: #1f77b4"/>
     <use xlink:href="#m063b1e5194" x="524.797776" y="225.725248" style="fill: #1f77b4; stroke: #1f77b4"/>
     <use xlink:href="#m063b1e5194" x="537.497582" y="246.466178" style="fill: #1f77b4; stroke: #1f77b4"/>
     <use xlink:href="#m063b1e5194" x="550.197389" y="219.750494" style="fill: #1f77b4; stroke: #1f77b4"/>
     <use xlink:href="#m063b1e5194" x="562.897195" y="206.862097" style="fill: #1f77b4; stroke: #1f77b4"/>
     <use xlink:href="#m063b1e5194" x="575.597002" y="207.630279" style="fill: #1f77b4; stroke: #1f77b4"/>
     <use xlink:href="#m063b1e5194" x="588.296809" y="209.593413" style="fill: #1f77b4; stroke: #1f77b4"/>
     <use xlink:href="#m063b1e5194" x="600.996615" y="245.015167" style="fill: #1f77b4; stroke: #1f77b4"/>
     <use xlink:href="#m063b1e5194" x="613.696422" y="164.697406" style="fill: #1f77b4; stroke: #1f77b4"/>
     <use xlink:href="#m063b1e5194" x="626.396228" y="206.264621" style="fill: #1f77b4; stroke: #1f77b4"/>
     <use xlink:href="#m063b1e5194" x="639.096035" y="241.601022" style="fill: #1f77b4; stroke: #1f77b4"/>
     <use xlink:href="#m063b1e5194" x="651.795841" y="223.335346" style="fill: #1f77b4; stroke: #1f77b4"/>
     <use xlink:href="#m063b1e5194" x="664.495648" y="211.215131" style="fill: #1f77b4; stroke: #1f77b4"/>
     <use xlink:href="#m063b1e5194" x="677.195455" y="227.261613" style="fill: #1f77b4; stroke: #1f77b4"/>
    </g>
   </g>
   <g id="line2d_18">
    <path d="M 80.304545 312.700591 
L 93.004352 311.078872 
L 105.704159 307.49402 
L 118.403965 307.408666 
L 131.103772 307.664727 
L 143.803578 311.761701 
L 156.503385 311.932408 
L 169.203191 312.188469 
L 181.902998 310.139982 
L 194.602805 307.579374 
L 207.302611 306.469776 
L 220.002418 310.481397 
L 232.702224 310.908165 
L 245.402031 310.31069 
L 258.101838 311.164226 
L 270.801644 310.822811 
L 283.501451 312.017762 
L 296.201257 309.286446 
L 308.901064 305.189472 
L 321.60087 305.274826 
L 334.300677 302.372803 
L 347.000484 310.481397 
L 359.70029 307.49402 
L 372.400097 304.335936 
L 385.099903 291.447539 
L 397.79971 282.485408 
L 410.499516 274.718228 
L 423.199323 264.305086 
L 435.89913 266.438927 
L 448.598936 256.025784 
L 461.298743 200.204514 
L 473.998549 155.1378 
L 486.698356 96.755921 
L 499.398162 90.354399 
L 512.097969 27.278071 
L 524.797776 58.432143 
L 537.497582 115.704426 
L 550.197389 117.838266 
L 562.897195 125.264032 
L 575.597002 141.48122 
L 588.296809 150.614058 
L 600.996615 211.471192 
L 613.696422 158.466591 
L 626.396228 211.300485 
L 639.096035 242.113144 
L 651.795841 230.931819 
L 664.495648 224.530297 
L 677.195455 237.930816 
" clip-path="url(#p6d74cb1a07)" style="fill: none; stroke: #ff7f0e; stroke-width: 1.5; stroke-linecap: square"/>
    <defs>
     <path id="m09058b0985" d="M 0 3 
C 0.795609 3 1.55874 2.683901 2.12132 2.12132 
C 2.683901 1.55874 3 0.795609 3 0 
C 3 -0.795609 2.683901 -1.55874 2.12132 -2.12132 
C 1.55874 -2.683901 0.795609 -3 0 -3 
C -0.795609 -3 -1.55874 -2.683901 -2.12132 -2.12132 
C -2.683901 -1.55874 -3 -0.795609 -3 0 
C -3 0.795609 -2.683901 1.55874 -2.12132 2.12132 
C -1.55874 2.683901 -0.795609 3 0 3 
z
" style="stroke: #ff7f0e"/>
    </defs>
    <g clip-path="url(#p6d74cb1a07)">
     <use xlink:href="#m09058b0985" x="80.304545" y="312.700591" style="fill: #ff7f0e; stroke: #ff7f0e"/>
     <use xlink:href="#m09058b0985" x="93.004352" y="311.078872" style="fill: #ff7f0e; stroke: #ff7f0e"/>
     <use xlink:href="#m09058b0985" x="105.704159" y="307.49402" style="fill: #ff7f0e; stroke: #ff7f0e"/>
     <use xlink:href="#m09058b0985" x="118.403965" y="307.408666" style="fill: #ff7f0e; stroke: #ff7f0e"/>
     <use xlink:href="#m09058b0985" x="131.103772" y="307.664727" style="fill: #ff7f0e; stroke: #ff7f0e"/>
     <use xlink:href="#m09058b0985" x="143.803578" y="311.761701" style="fill: #ff7f0e; stroke: #ff7f0e"/>
     <use xlink:href="#m09058b0985" x="156.503385" y="311.932408" style="fill: #ff7f0e; stroke: #ff7f0e"/>
     <use xlink:href="#m09058b0985" x="169.203191" y="312.188469" style="fill: #ff7f0e; stroke: #ff7f0e"/>
     <use xlink:href="#m09058b0985" x="181.902998" y="310.139982" style="fill: #ff7f0e; stroke: #ff7f0e"/>
     <use xlink:href="#m09058b0985" x="194.602805" y="307.579374" style="fill: #ff7f0e; stroke: #ff7f0e"/>
     <use xlink:href="#m09058b0985" x="207.302611" y="306.469776" style="fill: #ff7f0e; stroke: #ff7f0e"/>
     <use xlink:href="#m09058b0985" x="220.002418" y="310.481397" style="fill: #ff7f0e; stroke: #ff7f0e"/>
     <use xlink:href="#m09058b0985" x="232.702224" y="310.908165" style="fill: #ff7f0e; stroke: #ff7f0e"/>
     <use xlink:href="#m09058b0985" x="245.402031" y="310.31069" style="fill: #ff7f0e; stroke: #ff7f0e"/>
     <use xlink:href="#m09058b0985" x="258.101838" y="311.164226" style="fill: #ff7f0e; stroke: #ff7f0e"/>
     <use xlink:href="#m09058b0985" x="270.801644" y="310.822811" style="fill: #ff7f0e; stroke: #ff7f0e"/>
     <use xlink:href="#m09058b0985" x="283.501451" y="312.017762" style="fill: #ff7f0e; stroke: #ff7f0e"/>
     <use xlink:href="#m09058b0985" x="296.201257" y="309.286446" style="fill: #ff7f0e; stroke: #ff7f0e"/>
     <use xlink:href="#m09058b0985" x="308.901064" y="305.189472" style="fill: #ff7f0e; stroke: #ff7f0e"/>
     <use xlink:href="#m09058b0985" x="321.60087" y="305.274826" style="fill: #ff7f0e; stroke: #ff7f0e"/>
     <use xlink:href="#m09058b0985" x="334.300677" y="302.372803" style="fill: #ff7f0e; stroke: #ff7f0e"/>
     <use xlink:href="#m09058b0985" x="347.000484" y="310.481397" style="fill: #ff7f0e; stroke: #ff7f0e"/>
     <use xlink:href="#m09058b0985" x="359.70029" y="307.49402" style="fill: #ff7f0e; stroke: #ff7f0e"/>
     <use xlink:href="#m09058b0985" x="372.400097" y="304.335936" style="fill: #ff7f0e; stroke: #ff7f0e"/>
     <use xlink:href="#m09058b0985" x="385.099903" y="291.447539" style="fill: #ff7f0e; stroke: #ff7f0e"/>
     <use xlink:href="#m09058b0985" x="397.79971" y="282.485408" style="fill: #ff7f0e; stroke: #ff7f0e"/>
     <use xlink:href="#m09058b0985" x="410.499516" y="274.718228" style="fill: #ff7f0e; stroke: #ff7f0e"/>
     <use xlink:href="#m09058b0985" x="423.199323" y="264.305086" style="fill: #ff7f0e; stroke: #ff7f0e"/>
     <use xlink:href="#m09058b0985" x="435.89913" y="266.438927" style="fill: #ff7f0e; stroke: #ff7f0e"/>
     <use xlink:href="#m09058b0985" x="448.598936" y="256.025784" style="fill: #ff7f0e; stroke: #ff7f0e"/>
     <use xlink:href="#m09058b0985" x="461.298743" y="200.204514" style="fill: #ff7f0e; stroke: #ff7f0e"/>
     <use xlink:href="#m09058b0985" x="473.998549" y="155.1378" style="fill: #ff7f0e; stroke: #ff7f0e"/>
     <use xlink:href="#m09058b0985" x="486.698356" y="96.755921" style="fill: #ff7f0e; stroke: #ff7f0e"/>
     <use xlink:href="#m09058b0985" x="499.398162" y="90.354399" style="fill: #ff7f0e; stroke: #ff7f0e"/>
     <use xlink:href="#m09058b0985" x="512.097969" y="27.278071" style="fill: #ff7f0e; stroke: #ff7f0e"/>
     <use xlink:href="#m09058b0985" x="524.797776" y="58.432143" style="fill: #ff7f0e; stroke: #ff7f0e"/>
     <use xlink:href="#m09058b0985" x="537.497582" y="115.704426" style="fill: #ff7f0e; stroke: #ff7f0e"/>
     <use xlink:href="#m09058b0985" x="550.197389" y="117.838266" style="fill: #ff7f0e; stroke: #ff7f0e"/>
     <use xlink:href="#m09058b0985" x="562.897195" y="125.264032" style="fill: #ff7f0e; stroke: #ff7f0e"/>
     <use xlink:href="#m09058b0985" x="575.597002" y="141.48122" style="fill: #ff7f0e; stroke: #ff7f0e"/>
     <use xlink:href="#m09058b0985" x="588.296809" y="150.614058" style="fill: #ff7f0e; stroke: #ff7f0e"/>
     <use xlink:href="#m09058b0985" x="600.996615" y="211.471192" style="fill: #ff7f0e; stroke: #ff7f0e"/>
     <use xlink:href="#m09058b0985" x="613.696422" y="158.466591" style="fill: #ff7f0e; stroke: #ff7f0e"/>
     <use xlink:href="#m09058b0985" x="626.396228" y="211.300485" style="fill: #ff7f0e; stroke: #ff7f0e"/>
     <use xlink:href="#m09058b0985" x="639.096035" y="242.113144" style="fill: #ff7f0e; stroke: #ff7f0e"/>
     <use xlink:href="#m09058b0985" x="651.795841" y="230.931819" style="fill: #ff7f0e; stroke: #ff7f0e"/>
     <use xlink:href="#m09058b0985" x="664.495648" y="224.530297" style="fill: #ff7f0e; stroke: #ff7f0e"/>
     <use xlink:href="#m09058b0985" x="677.195455" y="237.930816" style="fill: #ff7f0e; stroke: #ff7f0e"/>
    </g>
   </g>
   <g id="patch_3">
    <path d="M 50.46 327.04 
L 50.46 12.96 
" style="fill: none; stroke: #000000; stroke-width: 0.8; stroke-linejoin: miter; stroke-linecap: square"/>
   </g>
   <g id="patch_4">
    <path d="M 50.46 327.04 
L 707.04 327.04 
" style="fill: none; stroke: #000000; stroke-width: 0.8; stroke-linejoin: miter; stroke-linecap: square"/>
   </g>
   <g id="legend_1">
    <g id="patch_5">
     <path d="M 58.86 57.7875 
L 197.86125 57.7875 
Q 200.26125 57.7875 200.26125 55.3875 
L 200.26125 21.36 
Q 200.26125 18.96 197.86125 18.96 
L 58.86 18.96 
Q 56.46 18.96 56.46 21.36 
L 56.46 55.3875 
Q 56.46 57.7875 58.86 57.7875 
z
" style="fill: #ffffff; opacity: 0.8; stroke: #cccccc; stroke-linejoin: miter"/>
    </g>
    <g id="line2d_19">
     <path d="M 61.26 28.678125 
L 73.26 28.678125 
L 85.26 28.678125 
" style="fill: none; stroke: #1f77b4; stroke-width: 1.5; stroke-linecap: square"/>
     <g>
      <use xlink:href="#m063b1e5194" x="73.26" y="28.678125" style="fill: #1f77b4; stroke: #1f77b4"/>
     </g>
    </g>
    <g id="text_17">
     <!-- Age range 0-9 -->
     <g transform="translate(94.86 32.878125)scale(0.12 -0.12)">
      <defs>
       <path id="DejaVuSans-41" d="M 2188 4044 
L 1331 1722 
L 3047 1722 
L 2188 4044 
z
M 1831 4666 
L 2547 4666 
L 4325 0 
L 3669 0 
L 3244 1197 
L 1141 1197 
L 716 0 
L 50 0 
L 1831 4666 
z
" transform="scale(0.015625)"/>
       <path id="DejaVuSans-67" d="M 2906 1791 
Q 2906 2416 2648 2759 
Q 2391 3103 1925 3103 
Q 1463 3103 1205 2759 
Q 947 2416 947 1791 
Q 947 1169 1205 825 
Q 1463 481 1925 481 
Q 2391 481 2648 825 
Q 2906 1169 2906 1791 
z
M 3481 434 
Q 3481 -459 3084 -895 
Q 2688 -1331 1869 -1331 
Q 1566 -1331 1297 -1286 
Q 1028 -1241 775 -1147 
L 775 -588 
Q 1028 -725 1275 -790 
Q 1522 -856 1778 -856 
Q 2344 -856 2625 -561 
Q 2906 -266 2906 331 
L 2906 616 
Q 2728 306 2450 153 
Q 2172 0 1784 0 
Q 1141 0 747 490 
Q 353 981 353 1791 
Q 353 2603 747 3093 
Q 1141 3584 1784 3584 
Q 2172 3584 2450 3431 
Q 2728 3278 2906 2969 
L 2906 3500 
L 3481 3500 
L 3481 434 
z
" transform="scale(0.015625)"/>
       <path id="DejaVuSans-72" d="M 2631 2963 
Q 2534 3019 2420 3045 
Q 2306 3072 2169 3072 
Q 1681 3072 1420 2755 
Q 1159 2438 1159 1844 
L 1159 0 
L 581 0 
L 581 3500 
L 1159 3500 
L 1159 2956 
Q 1341 3275 1631 3429 
Q 1922 3584 2338 3584 
Q 2397 3584 2469 3576 
Q 2541 3569 2628 3553 
L 2631 2963 
z
" transform="scale(0.015625)"/>
       <path id="DejaVuSans-2d" d="M 313 2009 
L 1997 2009 
L 1997 1497 
L 313 1497 
L 313 2009 
z
" transform="scale(0.015625)"/>
      </defs>
      <use xlink:href="#DejaVuSans-41"/>
      <use xlink:href="#DejaVuSans-67" x="68.408203"/>
      <use xlink:href="#DejaVuSans-65" x="131.884766"/>
      <use xlink:href="#DejaVuSans-20" x="193.408203"/>
      <use xlink:href="#DejaVuSans-72" x="225.195312"/>
      <use xlink:href="#DejaVuSans-61" x="266.308594"/>
      <use xlink:href="#DejaVuSans-6e" x="327.587891"/>
      <use xlink:href="#DejaVuSans-67" x="390.966797"/>
      <use xlink:href="#DejaVuSans-65" x="454.443359"/>
      <use xlink:href="#DejaVuSans-20" x="515.966797"/>
      <use xlink:href="#DejaVuSans-30" x="547.753906"/>
      <use xlink:href="#DejaVuSans-2d" x="611.376953"/>
      <use xlink:href="#DejaVuSans-39" x="647.460938"/>
     </g>
    </g>
    <g id="line2d_20">
     <path d="M 61.26 46.291875 
L 73.26 46.291875 
L 85.26 46.291875 
" style="fill: none; stroke: #ff7f0e; stroke-width: 1.5; stroke-linecap: square"/>
     <g>
      <use xlink:href="#m09058b0985" x="73.26" y="46.291875" style="fill: #ff7f0e; stroke: #ff7f0e"/>
     </g>
    </g>
    <g id="text_18">
     <!-- Age range 10-19 -->
     <g transform="translate(94.86 50.491875)scale(0.12 -0.12)">
      <use xlink:href="#DejaVuSans-41"/>
      <use xlink:href="#DejaVuSans-67" x="68.408203"/>
      <use xlink:href="#DejaVuSans-65" x="131.884766"/>
      <use xlink:href="#DejaVuSans-20" x="193.408203"/>
      <use xlink:href="#DejaVuSans-72" x="225.195312"/>
      <use xlink:href="#DejaVuSans-61" x="266.308594"/>
      <use xlink:href="#DejaVuSans-6e" x="327.587891"/>
      <use xlink:href="#DejaVuSans-67" x="390.966797"/>
      <use xlink:href="#DejaVuSans-65" x="454.443359"/>
      <use xlink:href="#DejaVuSans-20" x="515.966797"/>
      <use xlink:href="#DejaVuSans-31" x="547.753906"/>
      <use xlink:href="#DejaVuSans-30" x="611.376953"/>
      <use xlink:href="#DejaVuSans-2d" x="675"/>
      <use xlink:href="#DejaVuSans-31" x="711.083984"/>
      <use xlink:href="#DejaVuSans-39" x="774.707031"/>
     </g>
    </g>
   </g>
  </g>
 </g>
 <defs>
  <clipPath id="p6d74cb1a07">
   <rect x="50.46" y="12.96" width="656.58" height="314.08"/>
  </clipPath>
 </defs>
</svg>
